<?xml version="1.0" encoding="UTF-8" standalone="no"?>
<!-- Created with Inkscape (http://www.inkscape.org/) -->

<svg
   width="125.08655mm"
   height="36.437504mm"
   viewBox="0 0 125.08655 36.437504"
   version="1.1"
   id="svg676"
   inkscape:version="1.2.2 (b0a8486541, 2022-12-01)"
   sodipodi:docname="Aurorita Escribania _ Logo Caratula Protocolo.svg"
   xmlns:inkscape="http://www.inkscape.org/namespaces/inkscape"
   xmlns:sodipodi="http://sodipodi.sourceforge.net/DTD/sodipodi-0.dtd"
   xmlns="http://www.w3.org/2000/svg"
   xmlns:svg="http://www.w3.org/2000/svg">
  <sodipodi:namedview
     id="namedview678"
     pagecolor="#ffffff"
     bordercolor="#000000"
     borderopacity="0.25"
     inkscape:showpageshadow="2"
     inkscape:pageopacity="0.0"
     inkscape:pagecheckerboard="0"
     inkscape:deskcolor="#d1d1d1"
     inkscape:document-units="mm"
     showgrid="false"
     inkscape:zoom="0.66012205"
     inkscape:cx="365.84144"
     inkscape:cy="153.00201"
     inkscape:window-width="1920"
     inkscape:window-height="991"
     inkscape:window-x="0"
     inkscape:window-y="0"
     inkscape:window-maximized="1"
     inkscape:current-layer="layer1" />
  <defs
     id="defs673" />
  <g
     inkscape:label="Capa 1"
     inkscape:groupmode="layer"
     id="layer1"
     transform="translate(-45.766188,-20.408905)">
    <g
       id="g10"
       transform="matrix(0.5210116,0,0,-0.5210116,93.529144,53.711962)">
      <path
         d="M 0,0 V -2.011 H 2.365 V -2.927 H 0 V -5.025 H 2.66 V -5.942 H -1.124 V 0.916 H 2.66 V 0 Z"
         style="fill:#000000;fill-opacity:1;fill-rule:nonzero;stroke:none"
         id="path12" />
    </g>
    <g
       id="g22"
       transform="matrix(0.5210116,0,0,-0.5210116,96.419404,56.717932)">
      <path
         d="M 0,0 C -0.368,0.161 -0.657,0.389 -0.867,0.685 -1.077,0.98 -1.182,1.325 -1.182,1.72 H 0.02 C 0.046,1.424 0.163,1.181 0.37,0.99 0.577,0.799 0.868,0.704 1.242,0.704 c 0.388,0 0.69,0.094 0.906,0.281 0.217,0.188 0.326,0.428 0.326,0.724 0,0.23 -0.068,0.417 -0.203,0.562 C 2.137,2.415 1.969,2.527 1.769,2.606 1.568,2.685 1.291,2.771 0.937,2.862 0.489,2.98 0.126,3.101 -0.152,3.222 c -0.28,0.122 -0.518,0.31 -0.715,0.567 -0.197,0.256 -0.296,0.598 -0.296,1.024 0,0.395 0.099,0.74 0.296,1.036 0.197,0.295 0.473,0.522 0.828,0.679 C 0.315,6.686 0.726,6.765 1.193,6.765 1.856,6.765 2.4,6.599 2.824,6.268 3.247,5.936 3.482,5.48 3.528,4.902 H 2.287 C 2.267,5.151 2.148,5.365 1.932,5.543 1.715,5.721 1.429,5.809 1.074,5.809 0.752,5.809 0.489,5.727 0.286,5.562 0.083,5.398 -0.02,5.162 -0.02,4.853 -0.02,4.643 0.044,4.47 0.173,4.335 0.301,4.201 0.463,4.095 0.661,4.016 0.857,3.937 1.126,3.851 1.469,3.759 1.922,3.635 2.292,3.51 2.577,3.385 2.863,3.26 3.106,3.067 3.306,2.808 3.507,2.549 3.607,2.202 3.607,1.769 3.607,1.42 3.514,1.092 3.326,0.783 3.139,0.474 2.866,0.227 2.508,0.039 2.15,-0.148 1.728,-0.242 1.242,-0.242 0.782,-0.242 0.368,-0.161 0,0"
         style="fill:#000000;fill-opacity:1;fill-rule:nonzero;stroke:none"
         id="path24" />
    </g>
    <g
       id="g26"
       transform="matrix(0.5210116,0,0,-0.5210116,99.297162,54.076262)">
      <path
         d="M 0,0 C 0.312,0.531 0.736,0.947 1.271,1.246 1.807,1.545 2.393,1.694 3.031,1.694 3.76,1.694 4.409,1.516 4.977,1.157 5.545,0.799 5.958,0.292 6.214,-0.365 H 4.864 C 4.686,-0.004 4.44,0.266 4.125,0.443 3.809,0.62 3.444,0.709 3.031,0.709 2.577,0.709 2.173,0.607 1.818,0.403 1.464,0.2 1.186,-0.093 0.986,-0.474 c -0.201,-0.38 -0.3,-0.824 -0.3,-1.33 0,-0.506 0.099,-0.949 0.3,-1.331 0.2,-0.381 0.478,-0.675 0.832,-0.882 0.355,-0.206 0.759,-0.309 1.213,-0.309 0.413,0 0.778,0.088 1.094,0.265 0.315,0.177 0.561,0.447 0.739,0.809 h 1.35 C 5.958,-3.909 5.545,-4.415 4.977,-4.771 4.409,-5.125 3.76,-5.302 3.031,-5.302 2.387,-5.302 1.799,-5.153 1.267,-4.854 0.735,-4.555 0.312,-4.14 0,-3.607 c -0.312,0.532 -0.468,1.133 -0.468,1.803 0,0.67 0.156,1.271 0.468,1.804"
         style="fill:#000000;fill-opacity:1;fill-rule:nonzero;stroke:none"
         id="path28" />
    </g>
    <g
       id="g30"
       transform="matrix(0.5210116,0,0,-0.5210116,104.05952,54.913712)">
      <path
         d="m 0,0 h 1.241 c 0.421,0 0.738,0.105 0.951,0.315 0.214,0.211 0.321,0.494 0.321,0.848 0,0.356 -0.106,0.633 -0.316,0.833 -0.21,0.2 -0.529,0.301 -0.956,0.301 H 0 Z m 2.434,-3.636 -1.577,2.74 H 0 v -2.74 H -1.124 V 3.213 H 1.241 C 1.767,3.213 2.212,3.121 2.577,2.938 2.941,2.753 3.214,2.507 3.395,2.198 3.575,1.89 3.666,1.545 3.666,1.163 3.666,0.717 3.536,0.312 3.276,-0.054 3.017,-0.418 2.618,-0.666 2.079,-0.798 l 1.695,-2.838 z"
         style="fill:#000000;fill-opacity:1;fill-rule:nonzero;stroke:none"
         id="path32" />
    </g>
    <path
       d="m 107.56097,56.808072 h -0.58561 v -3.56841 h 0.58561 z"
       style="fill:#000000;fill-opacity:1;fill-rule:nonzero;stroke:none;stroke-width:0.521013"
       id="path34" />
    <g
       id="g36"
       transform="matrix(0.5210116,0,0,-0.5210116,110.43076,56.186772)">
      <path
         d="m 0,0 c 0.217,0.184 0.325,0.44 0.325,0.769 0,0.335 -0.115,0.601 -0.345,0.797 -0.23,0.198 -0.535,0.296 -0.916,0.296 h -1.478 v -2.137 h 1.518 c 0.38,0 0.679,0.091 0.896,0.275 m -2.414,2.779 h 1.389 c 0.368,0 0.655,0.083 0.863,0.251 0.206,0.168 0.31,0.409 0.31,0.725 0,0.308 -0.104,0.55 -0.31,0.724 C -0.37,4.652 -0.657,4.74 -1.025,4.74 H -2.414 Z M 1.064,1.744 C 1.321,1.423 1.449,1.058 1.449,0.65 1.449,0.302 1.358,-0.012 1.178,-0.291 0.997,-0.57 0.736,-0.79 0.395,-0.951 0.053,-1.112 -0.345,-1.192 -0.798,-1.192 h -2.739 v 6.848 h 2.611 c 0.467,0 0.867,-0.078 1.202,-0.236 C 0.611,5.263 0.864,5.051 1.035,4.784 1.206,4.519 1.292,4.221 1.292,3.893 1.292,3.498 1.186,3.17 0.976,2.907 0.766,2.645 0.483,2.45 0.128,2.326 0.496,2.26 0.808,2.066 1.064,1.744"
         style="fill:#000000;fill-opacity:1;fill-rule:nonzero;stroke:none"
         id="path38" />
    </g>
    <g
       id="g40"
       transform="matrix(0.5210116,0,0,-0.5210116,114.06586,55.601102)">
      <path
         d="M 0,0 -1.113,3.183 -2.237,0 Z m 0.315,-0.917 h -2.867 l -0.493,-1.399 h -1.173 l 2.454,6.858 h 1.301 L 1.991,-2.316 H 0.808 Z"
         style="fill:#000000;fill-opacity:1;fill-rule:nonzero;stroke:none"
         id="path42" />
    </g>
    <g
       id="g44"
       transform="matrix(0.5210116,0,0,-0.5210116,118.84629,56.807972)">
      <path
         d="M 0,0 H -1.124 L -4.503,5.114 V 0 h -1.124 v 6.858 h 1.124 L -1.124,1.754 V 6.858 H 0 Z"
         style="fill:#000000;fill-opacity:1;fill-rule:nonzero;stroke:none"
         id="path46" />
    </g>
    <path
       d="m 120.4581,56.808072 h -0.58562 v -3.56841 h 0.58562 z"
       style="fill:#000000;fill-opacity:1;fill-rule:nonzero;stroke:none;stroke-width:0.521013"
       id="path48" />
    <g
       id="g50"
       transform="matrix(0.5210116,0,0,-0.5210116,123.47204,55.601102)">
      <path
         d="M 0,0 -1.114,3.183 -2.237,0 Z m 0.315,-0.917 h -2.868 l -0.492,-1.399 h -1.173 l 2.454,6.858 h 1.301 L 1.991,-2.316 H 0.808 Z"
         style="fill:#000000;fill-opacity:1;fill-rule:nonzero;stroke:none"
         id="path52" />
    </g>
    <g
       id="g54"
       transform="matrix(0.5210116,0,0,-0.5210116,55.885797,43.125072)">
      <path
         d="m 0,0 c -0.689,0.108 -1.51,0.162 -2.439,0.162 -0.735,0 -1.441,-0.078 -2.099,-0.233 -0.658,-0.155 -1.277,-0.38 -1.837,-0.671 -0.562,-0.292 -1.074,-0.652 -1.523,-1.07 -0.45,-0.418 -0.836,-0.894 -1.149,-1.411 -0.313,-0.518 -0.557,-1.09 -0.725,-1.701 -0.167,-0.611 -0.252,-1.265 -0.252,-1.947 0,-0.632 0.085,-1.238 0.253,-1.8 0.167,-0.562 0.41,-1.092 0.721,-1.573 0.309,-0.48 0.688,-0.919 1.127,-1.304 0.437,-0.385 0.928,-0.715 1.462,-0.982 0.531,-0.265 1.115,-0.474 1.734,-0.62 0.621,-0.145 1.276,-0.219 1.948,-0.219 0.259,0 0.56,0.014 0.896,0.041 0.339,0.029 0.694,0.075 1.055,0.138 0.364,0.064 0.738,0.148 1.11,0.252 0.375,0.105 0.732,0.237 1.062,0.397 l 0.074,0.037 -0.231,0.694 -0.09,-0.029 c -0.344,-0.113 -0.641,-0.203 -0.908,-0.28 -0.266,-0.075 -0.524,-0.136 -0.77,-0.181 -0.244,-0.046 -0.49,-0.078 -0.731,-0.096 -0.243,-0.019 -0.513,-0.027 -0.804,-0.027 -0.458,0 -0.93,0.054 -1.403,0.164 -0.473,0.108 -0.937,0.274 -1.379,0.495 -0.443,0.221 -0.864,0.5 -1.252,0.831 -0.386,0.329 -0.729,0.724 -1.019,1.17 -0.288,0.446 -0.52,0.956 -0.688,1.516 -0.169,0.56 -0.255,1.191 -0.255,1.874 0,0.912 0.162,1.729 0.48,2.43 0.318,0.7 0.749,1.298 1.281,1.777 0.533,0.479 1.155,0.847 1.849,1.093 0.695,0.248 1.43,0.373 2.183,0.373 0.697,0 1.263,-0.084 1.684,-0.251 0.416,-0.166 0.74,-0.381 0.963,-0.637 0.221,-0.257 0.371,-0.546 0.444,-0.858 0.075,-0.322 0.113,-0.638 0.113,-0.941 V -3.63 h 0.743 l 0.282,3.244 -0.077,0.02 C 1.306,-0.231 0.69,-0.108 0,0"
         style="fill:#000000;fill-opacity:1;fill-rule:nonzero;stroke:none"
         id="path56" />
    </g>
    <g
       id="g58"
       transform="matrix(0.5210116,0,0,-0.5210116,59.739981,48.089202)">
      <path
         d="m 0,0 c -0.054,-0.348 -0.132,-0.688 -0.231,-1.014 -0.11,-0.361 -0.258,-0.687 -0.439,-0.966 -0.179,-0.277 -0.405,-0.501 -0.67,-0.667 -0.262,-0.166 -0.583,-0.249 -0.955,-0.249 -0.104,0 -0.217,0.014 -0.337,0.043 -0.116,0.028 -0.228,0.082 -0.334,0.16 -0.103,0.077 -0.191,0.182 -0.262,0.313 -0.069,0.131 -0.104,0.307 -0.104,0.523 0,0.257 0.055,0.482 0.163,0.666 0.108,0.188 0.256,0.35 0.438,0.483 0.184,0.134 0.398,0.247 0.637,0.333 0.243,0.086 0.495,0.157 0.749,0.208 0.255,0.051 0.513,0.089 0.767,0.113 C -0.369,-0.034 -0.176,-0.016 0,0 M 2.926,-1.868 C 2.875,-1.924 2.81,-2.004 2.728,-2.107 2.651,-2.204 2.562,-2.3 2.462,-2.391 2.362,-2.482 2.256,-2.562 2.146,-2.629 2.042,-2.69 1.944,-2.721 1.844,-2.721 c -0.158,0 -0.27,0.084 -0.351,0.266 -0.09,0.203 -0.135,0.494 -0.135,0.865 0,0.22 0.015,0.508 0.042,0.854 0.028,0.346 0.059,0.713 0.096,1.1 0.038,0.387 0.069,0.78 0.098,1.177 0.027,0.4 0.041,0.77 0.041,1.098 0,0.794 -0.218,1.374 -0.648,1.723 C 0.563,4.706 -0.029,4.88 -0.772,4.88 -1.16,4.88 -1.573,4.825 -2.002,4.716 -2.431,4.608 -2.834,4.45 -3.2,4.247 -3.568,4.042 -3.877,3.792 -4.121,3.501 c -0.25,-0.298 -0.377,-0.635 -0.377,-1 0,-0.153 0.022,-0.286 0.067,-0.395 0.044,-0.111 0.106,-0.204 0.183,-0.273 0.078,-0.072 0.166,-0.124 0.264,-0.155 0.215,-0.07 0.459,-0.058 0.689,0.024 0.134,0.049 0.241,0.12 0.319,0.213 l 0.033,0.039 -0.015,0.048 c -0.029,0.101 -0.051,0.197 -0.066,0.288 -0.014,0.088 -0.021,0.178 -0.021,0.266 0,0.227 0.039,0.443 0.117,0.642 0.078,0.199 0.191,0.375 0.331,0.522 0.141,0.147 0.313,0.265 0.511,0.353 0.196,0.086 0.414,0.13 0.646,0.13 0.333,0 0.605,-0.057 0.809,-0.169 0.202,-0.11 0.363,-0.262 0.477,-0.449 C -0.038,3.393 0.042,3.168 0.083,2.919 0.125,2.661 0.146,2.387 0.146,2.104 0.146,1.878 0.142,1.637 0.133,1.38 0.125,1.15 0.107,0.91 0.082,0.665 -0.115,0.652 -0.36,0.63 -0.648,0.601 -0.979,0.566 -1.333,0.511 -1.703,0.437 -2.073,0.364 -2.449,0.264 -2.82,0.14 -3.194,0.015 -3.538,-0.146 -3.841,-0.34 c -0.306,-0.196 -0.56,-0.434 -0.754,-0.707 -0.198,-0.28 -0.299,-0.614 -0.299,-0.995 0,-0.165 0.027,-0.351 0.082,-0.55 0.055,-0.204 0.163,-0.395 0.32,-0.568 0.158,-0.173 0.377,-0.318 0.653,-0.43 0.274,-0.111 0.631,-0.168 1.058,-0.168 0.357,0 0.686,0.046 0.977,0.138 0.289,0.091 0.551,0.214 0.78,0.366 0.227,0.151 0.429,0.327 0.599,0.524 0.105,0.12 0.203,0.245 0.292,0.371 0.017,-0.115 0.042,-0.227 0.076,-0.337 0.061,-0.2 0.15,-0.379 0.263,-0.534 0.115,-0.16 0.264,-0.288 0.442,-0.383 0.179,-0.096 0.393,-0.145 0.634,-0.145 0.154,0 0.313,0.02 0.474,0.058 0.163,0.039 0.334,0.116 0.509,0.229 0.169,0.11 0.351,0.263 0.54,0.455 0.186,0.189 0.39,0.439 0.609,0.745 L 3.465,-2.2 2.987,-1.799 Z"
         style="fill:#000000;fill-opacity:1;fill-rule:nonzero;stroke:none"
         id="path60" />
    </g>
    <g
       id="g62"
       transform="matrix(0.5210116,0,0,-0.5210116,66.050106,49.603902)">
      <path
         d="M 0,0 C -0.126,0.027 -0.228,0.078 -0.303,0.154 -0.38,0.23 -0.436,0.339 -0.472,0.475 -0.509,0.62 -0.529,0.813 -0.529,1.05 c 0,0.279 0.014,0.587 0.042,0.918 0.027,0.341 0.058,0.694 0.091,1.058 0.035,0.367 0.065,0.737 0.093,1.113 0.028,0.379 0.042,0.744 0.042,1.085 0,0.539 -0.079,0.982 -0.235,1.316 -0.157,0.335 -0.35,0.599 -0.574,0.784 -0.225,0.186 -0.469,0.312 -0.724,0.374 -0.248,0.059 -0.474,0.09 -0.673,0.09 -0.608,0 -1.214,-0.149 -1.801,-0.443 -0.528,-0.264 -1.106,-0.652 -1.721,-1.156 0.027,0.191 0.061,0.394 0.101,0.607 0.058,0.309 0.115,0.602 0.17,0.878 L -5.687,7.83 -5.839,7.784 C -6.164,7.684 -6.442,7.607 -6.689,7.55 -6.937,7.493 -7.178,7.447 -7.405,7.414 -7.63,7.38 -7.861,7.356 -8.092,7.341 -8.326,7.326 -8.581,7.312 -8.856,7.3 L -8.946,7.295 V 6.677 h 0.269 c 0.351,0 0.623,-0.053 0.81,-0.158 C -7.678,6.413 -7.543,6.278 -7.452,6.105 -7.36,5.93 -7.304,5.73 -7.288,5.511 -7.27,5.278 -7.26,5.042 -7.26,4.809 -7.26,3.821 -7.3,2.843 -7.38,1.901 -7.459,0.955 -7.571,0.025 -7.71,-0.861 l -0.023,-0.144 0.141,0.037 c 0.434,0.115 0.9,0.196 1.384,0.238 0.486,0.042 1.066,0.063 1.724,0.063 h 0.094 v 0.623 h -0.555 c -0.253,0 -0.454,0.023 -0.598,0.069 -0.131,0.042 -0.226,0.121 -0.291,0.241 -0.069,0.129 -0.115,0.311 -0.136,0.544 -0.022,0.239 -0.032,0.553 -0.032,0.959 0,0.261 0.006,0.543 0.019,0.839 0.012,0.304 0.025,0.617 0.041,0.939 0.016,0.322 0.033,0.646 0.056,0.975 0.02,0.314 0.039,0.613 0.057,0.897 0.14,0.126 0.303,0.262 0.485,0.402 0.198,0.151 0.408,0.29 0.625,0.412 0.219,0.122 0.448,0.225 0.68,0.306 0.229,0.079 0.457,0.119 0.679,0.119 0.391,0 0.7,-0.069 0.917,-0.206 0.216,-0.137 0.379,-0.32 0.485,-0.545 0.109,-0.233 0.177,-0.5 0.204,-0.793 0.026,-0.306 0.041,-0.619 0.041,-0.931 0,-0.325 -0.016,-0.71 -0.046,-1.145 C -1.79,2.605 -1.832,2.155 -1.883,1.701 -1.936,1.244 -1.99,0.791 -2.049,0.344 c -0.058,-0.448 -0.116,-0.85 -0.17,-1.205 l -0.023,-0.146 0.143,0.04 c 0.231,0.066 0.468,0.116 0.701,0.15 0.23,0.033 0.472,0.058 0.721,0.077 0.244,0.018 0.508,0.032 0.784,0.041 0.277,0.01 0.578,0.02 0.904,0.032 l 0.091,0.004 v 0.619 H 0.51 C 0.308,-0.044 0.136,-0.029 0,0"
         style="fill:#000000;fill-opacity:1;fill-rule:nonzero;stroke:none"
         id="path64" />
    </g>
    <g
       id="g66"
       transform="matrix(0.5210116,0,0,-0.5210116,69.151012,49.660362)">
      <path
         d="m 0,0 c -0.476,0 -0.89,0.105 -1.231,0.313 -0.345,0.21 -0.631,0.489 -0.853,0.829 -0.222,0.343 -0.389,0.735 -0.497,1.166 -0.107,0.432 -0.162,0.875 -0.162,1.315 0,0.464 0.061,0.917 0.18,1.344 0.119,0.427 0.295,0.81 0.523,1.138 0.227,0.326 0.512,0.589 0.848,0.785 0.332,0.193 0.721,0.292 1.155,0.292 0.468,0 0.877,-0.118 1.214,-0.348 C 1.52,6.6 1.805,6.297 2.027,5.935 2.251,5.569 2.418,5.164 2.525,4.73 2.633,4.293 2.688,3.871 2.688,3.476 2.688,2.939 2.626,2.448 2.503,2.016 2.381,1.587 2.204,1.22 1.974,0.923 1.744,0.628 1.462,0.398 1.134,0.239 0.806,0.081 0.424,0 0,0 M 3.358,6.801 C 3.049,7.139 2.643,7.409 2.152,7.604 1.663,7.798 1.065,7.896 0.374,7.896 -0.357,7.896 -1.02,7.758 -1.595,7.486 -2.168,7.215 -2.662,6.853 -3.063,6.409 -3.463,5.966 -3.774,5.454 -3.986,4.886 -4.198,4.319 -4.305,3.732 -4.305,3.139 -4.305,2.642 -4.244,2.156 -4.123,1.696 -4,1.23 -3.785,0.812 -3.486,0.453 c 0.301,-0.36 0.707,-0.653 1.207,-0.87 0.499,-0.216 1.131,-0.325 1.878,-0.325 0.649,0 1.264,0.131 1.829,0.39 C 1.99,-0.093 2.487,0.265 2.905,0.711 3.324,1.157 3.656,1.686 3.893,2.284 4.13,2.882 4.25,3.526 4.25,4.199 4.25,4.697 4.179,5.175 4.038,5.619 3.896,6.067 3.667,6.465 3.358,6.801"
         style="fill:#000000;fill-opacity:1;fill-rule:nonzero;stroke:none"
         id="path68" />
    </g>
    <g
       id="g70"
       transform="matrix(0.5210116,0,0,-0.5210116,78.875691,43.143662)">
      <path
         d="M 0,0 C -0.487,-0.015 -1.046,-0.027 -1.677,-0.037 -2.309,-0.046 -3.003,-0.052 -3.76,-0.055 -4.517,-0.059 -5.312,-0.06 -6.146,-0.06 c -0.386,0 -0.829,0.005 -1.328,0.014 -0.494,0.009 -1.098,0.042 -1.792,0.096 l -0.09,0.008 -0.402,-3.293 h 0.726 l 0.018,0.073 c 0.119,0.511 0.256,0.926 0.407,1.233 0.147,0.3 0.319,0.531 0.512,0.687 0.192,0.155 0.415,0.259 0.663,0.308 0.258,0.051 0.558,0.076 0.893,0.076 0.171,0 0.398,-0.003 0.684,-0.009 0.259,-0.006 0.544,-0.014 0.856,-0.024 l -0.385,-11.337 -0.227,-0.013 c -0.1,-0.006 -0.204,-0.016 -0.31,-0.029 -0.103,-0.011 -0.216,-0.023 -0.339,-0.036 -0.122,-0.012 -0.262,-0.024 -0.422,-0.037 l -0.088,-0.006 v -0.728 l 0.106,0.012 c 0.454,0.048 0.873,0.082 1.245,0.1 0.735,0.036 1.347,0.035 1.817,0.005 0.232,-0.015 0.429,-0.029 0.582,-0.041 0.19,-0.024 0.353,-0.046 0.489,-0.064 l 0.107,-0.015 v 0.726 l -0.479,0.067 c -0.139,0.016 -0.262,0.046 -0.365,0.086 -0.094,0.037 -0.176,0.097 -0.241,0.179 -0.068,0.083 -0.12,0.202 -0.158,0.353 -0.037,0.158 -0.057,0.37 -0.057,0.632 0,0.085 0.006,0.284 0.015,0.595 0.009,0.313 0.02,0.713 0.032,1.197 0.012,0.485 0.029,1.043 0.051,1.675 0.021,0.633 0.043,1.311 0.064,2.035 0.021,0.724 0.046,1.482 0.074,2.274 0.026,0.76 0.054,1.529 0.084,2.306 l 1.71,-0.087 c 0.443,-0.024 0.797,-0.085 1.054,-0.183 0.251,-0.095 0.446,-0.214 0.577,-0.354 0.129,-0.137 0.213,-0.294 0.252,-0.467 0.042,-0.183 0.062,-0.374 0.062,-0.569 0,-0.066 -0.002,-0.152 -0.008,-0.257 -0.006,-0.11 -0.01,-0.199 -0.01,-0.268 V -3.235 H 0.986 L 1.28,0.081 1.166,0.069 C 0.872,0.038 0.479,0.015 0,0"
         style="fill:#000000;fill-opacity:1;fill-rule:nonzero;stroke:none"
         id="path72" />
    </g>
    <g
       id="g74"
       transform="matrix(0.5210116,0,0,-0.5210116,82.145511,48.089202)">
      <path
         d="m 0,0 c -0.054,-0.348 -0.132,-0.688 -0.231,-1.014 -0.11,-0.361 -0.259,-0.687 -0.439,-0.966 -0.18,-0.277 -0.405,-0.501 -0.67,-0.667 -0.262,-0.166 -0.583,-0.249 -0.956,-0.249 -0.103,0 -0.216,0.014 -0.336,0.043 -0.116,0.028 -0.228,0.082 -0.334,0.16 -0.104,0.077 -0.192,0.182 -0.262,0.313 -0.069,0.131 -0.104,0.307 -0.104,0.523 0,0.257 0.055,0.482 0.163,0.666 0.108,0.188 0.255,0.35 0.438,0.483 0.184,0.134 0.398,0.247 0.637,0.333 0.242,0.086 0.494,0.157 0.749,0.208 0.255,0.051 0.512,0.089 0.767,0.113 C -0.369,-0.034 -0.176,-0.016 0,0 M 2.926,-1.868 C 2.875,-1.924 2.81,-2.004 2.727,-2.107 2.651,-2.204 2.562,-2.3 2.462,-2.391 2.362,-2.482 2.255,-2.562 2.145,-2.629 2.042,-2.69 1.944,-2.721 1.844,-2.721 c -0.159,0 -0.271,0.084 -0.351,0.266 -0.09,0.203 -0.135,0.494 -0.135,0.865 0,0.22 0.014,0.508 0.041,0.854 0.029,0.346 0.059,0.713 0.097,1.1 0.038,0.387 0.069,0.78 0.097,1.177 0.028,0.4 0.042,0.77 0.042,1.098 0,0.794 -0.218,1.374 -0.648,1.723 C 0.562,4.706 -0.029,4.88 -0.772,4.88 -1.16,4.88 -1.574,4.825 -2.002,4.716 -2.431,4.608 -2.834,4.45 -3.201,4.247 -3.568,4.042 -3.877,3.792 -4.121,3.501 c -0.251,-0.298 -0.377,-0.635 -0.377,-1 0,-0.153 0.022,-0.286 0.066,-0.395 0.045,-0.111 0.107,-0.204 0.184,-0.273 0.077,-0.072 0.166,-0.124 0.264,-0.155 0.216,-0.07 0.459,-0.058 0.689,0.024 0.133,0.049 0.241,0.12 0.319,0.213 l 0.032,0.039 -0.014,0.048 c -0.029,0.101 -0.052,0.197 -0.066,0.288 -0.015,0.088 -0.022,0.178 -0.022,0.266 0,0.227 0.04,0.443 0.118,0.642 0.078,0.199 0.19,0.375 0.331,0.522 0.141,0.147 0.313,0.265 0.511,0.353 0.196,0.086 0.414,0.13 0.646,0.13 0.332,0 0.605,-0.057 0.809,-0.169 0.202,-0.11 0.363,-0.262 0.477,-0.449 C -0.038,3.393 0.042,3.168 0.083,2.919 0.125,2.661 0.146,2.387 0.146,2.104 0.146,1.878 0.141,1.637 0.132,1.38 0.125,1.15 0.106,0.91 0.082,0.665 -0.116,0.652 -0.361,0.63 -0.649,0.601 -0.979,0.566 -1.334,0.511 -1.703,0.437 -2.073,0.364 -2.449,0.264 -2.82,0.14 -3.195,0.015 -3.539,-0.146 -3.841,-0.34 c -0.307,-0.196 -0.56,-0.434 -0.754,-0.707 -0.198,-0.28 -0.299,-0.614 -0.299,-0.995 0,-0.165 0.027,-0.351 0.081,-0.55 0.056,-0.204 0.164,-0.395 0.321,-0.568 0.158,-0.173 0.377,-0.318 0.652,-0.43 0.275,-0.111 0.631,-0.168 1.058,-0.168 0.357,0 0.687,0.046 0.978,0.138 0.289,0.091 0.551,0.214 0.78,0.366 0.227,0.151 0.428,0.327 0.599,0.524 0.105,0.12 0.203,0.245 0.292,0.371 0.017,-0.115 0.042,-0.227 0.076,-0.337 0.06,-0.2 0.149,-0.379 0.263,-0.534 0.114,-0.16 0.263,-0.288 0.442,-0.383 0.179,-0.096 0.393,-0.145 0.634,-0.145 0.154,0 0.313,0.02 0.474,0.058 0.162,0.039 0.334,0.116 0.508,0.229 0.17,0.11 0.351,0.263 0.541,0.455 0.186,0.189 0.39,0.439 0.609,0.745 L 3.465,-2.2 2.986,-1.799 Z"
         style="fill:#000000;fill-opacity:1;fill-rule:nonzero;stroke:none"
         id="path76" />
    </g>
    <g
       id="g78"
       transform="matrix(0.5210116,0,0,-0.5210116,90.835306,49.601862)">
      <path
         d="m 0,0 c -0.125,0.029 -0.224,0.082 -0.301,0.159 -0.077,0.076 -0.133,0.185 -0.169,0.32 -0.037,0.146 -0.056,0.336 -0.056,0.567 0,0.269 0.013,0.579 0.041,0.918 0.028,0.341 0.058,0.694 0.092,1.059 0.034,0.366 0.065,0.737 0.092,1.112 0.028,0.379 0.042,0.744 0.042,1.085 0,0.539 -0.072,0.981 -0.211,1.313 -0.139,0.334 -0.314,0.597 -0.521,0.784 -0.206,0.187 -0.434,0.314 -0.675,0.376 -0.233,0.06 -0.452,0.091 -0.65,0.091 -0.296,0 -0.577,-0.034 -0.835,-0.1 C -3.408,7.618 -3.667,7.517 -3.923,7.381 -4.174,7.248 -4.434,7.077 -4.696,6.875 -4.918,6.703 -5.159,6.503 -5.413,6.279 -5.487,6.553 -5.587,6.783 -5.712,6.964 -5.86,7.181 -6.031,7.351 -6.218,7.47 -6.406,7.588 -6.601,7.672 -6.801,7.717 -6.998,7.761 -7.185,7.784 -7.356,7.784 -7.659,7.784 -7.95,7.746 -8.22,7.67 -8.49,7.595 -8.763,7.481 -9.028,7.334 -9.293,7.188 -9.567,7.004 -9.843,6.787 c -0.218,-0.171 -0.45,-0.368 -0.693,-0.585 0.027,0.186 0.06,0.383 0.099,0.59 0.058,0.31 0.115,0.603 0.169,0.878 l 0.033,0.156 -0.153,-0.046 c -0.325,-0.1 -0.604,-0.176 -0.85,-0.234 -0.248,-0.057 -0.489,-0.103 -0.716,-0.136 -0.225,-0.034 -0.455,-0.058 -0.684,-0.073 -0.229,-0.015 -0.483,-0.029 -0.758,-0.041 l -0.09,-0.004 V 6.673 h 0.26 c 0.345,0 0.614,-0.053 0.802,-0.159 0.186,-0.104 0.325,-0.241 0.413,-0.406 0.093,-0.169 0.149,-0.367 0.17,-0.587 0.021,-0.232 0.032,-0.469 0.032,-0.702 0,-0.99 -0.04,-1.971 -0.12,-2.915 -0.079,-0.948 -0.191,-1.88 -0.33,-2.769 l -0.023,-0.144 0.14,0.037 c 0.436,0.116 0.894,0.196 1.361,0.238 0.472,0.042 1.001,0.063 1.573,0.063 h 0.269 v 0.623 h -0.574 c -0.253,0 -0.451,0.024 -0.592,0.069 -0.127,0.041 -0.219,0.12 -0.282,0.24 -0.067,0.129 -0.11,0.312 -0.127,0.544 -0.019,0.245 -0.028,0.568 -0.028,0.96 0,0.257 0.005,0.535 0.014,0.835 0.009,0.3 0.022,0.61 0.037,0.929 0.015,0.319 0.032,0.64 0.05,0.962 0.018,0.308 0.038,0.603 0.061,0.885 l 0.469,0.413 c 0.175,0.154 0.36,0.297 0.549,0.426 0.185,0.127 0.384,0.234 0.59,0.318 0.199,0.08 0.402,0.121 0.605,0.121 0.291,0 0.531,-0.068 0.713,-0.202 0.186,-0.138 0.334,-0.322 0.44,-0.549 0.108,-0.231 0.183,-0.499 0.222,-0.796 0.039,-0.304 0.059,-0.616 0.059,-0.928 0,-0.335 -0.016,-0.721 -0.046,-1.145 C -6.809,2.601 -6.851,2.151 -6.902,1.697 -6.953,1.251 -7.011,0.795 -7.073,0.341 -7.134,-0.107 -7.193,-0.51 -7.248,-0.865 l -0.022,-0.146 0.143,0.04 c 0.232,0.066 0.468,0.117 0.701,0.15 0.229,0.033 0.474,0.058 0.725,0.077 0.247,0.018 0.512,0.032 0.789,0.041 0.276,0.01 0.576,0.02 0.894,0.032 l 0.092,0.004 v 0.619 h -0.602 c -0.194,0 -0.361,0.017 -0.493,0.048 -0.124,0.029 -0.226,0.083 -0.301,0.159 -0.077,0.076 -0.134,0.185 -0.169,0.32 -0.038,0.146 -0.057,0.336 -0.057,0.567 0,0.269 0.014,0.579 0.042,0.918 0.027,0.341 0.057,0.694 0.091,1.059 0.034,0.366 0.065,0.737 0.093,1.112 0.027,0.379 0.041,0.744 0.041,1.085 v 0.235 c 0.139,0.126 0.288,0.258 0.447,0.398 0.168,0.147 0.347,0.281 0.531,0.397 0.183,0.115 0.377,0.213 0.574,0.292 0.191,0.074 0.388,0.112 0.583,0.112 0.291,0 0.529,-0.068 0.708,-0.202 C -2.255,6.315 -2.11,6.13 -2.007,5.904 -1.9,5.669 -1.826,5.401 -1.784,5.105 -1.742,4.804 -1.72,4.492 -1.72,4.179 -1.72,3.854 -1.736,3.469 -1.766,3.034 -1.796,2.601 -1.837,2.15 -1.885,1.696 -1.934,1.249 -1.989,0.792 -2.051,0.341 -2.113,-0.107 -2.171,-0.51 -2.226,-0.865 l -0.022,-0.146 0.142,0.04 c 0.231,0.066 0.468,0.117 0.701,0.15 0.23,0.033 0.474,0.058 0.726,0.077 0.246,0.018 0.512,0.032 0.788,0.041 0.277,0.01 0.576,0.02 0.895,0.032 l 0.091,0.004 v 0.619 H 0.494 C 0.299,-0.048 0.132,-0.031 0,0"
         style="fill:#000000;fill-opacity:1;fill-rule:nonzero;stroke:none"
         id="path80" />
    </g>
    <g
       id="g82"
       transform="matrix(0.5210116,0,0,-0.5210116,95.141519,47.688742)">
      <path
         d="M 0,0 C 0,-0.57 -0.067,-1.093 -0.199,-1.554 -0.332,-2.013 -0.512,-2.408 -0.734,-2.729 -0.956,-3.047 -1.217,-3.295 -1.51,-3.465 -1.801,-3.634 -2.111,-3.72 -2.431,-3.72 c -0.465,0 -0.899,0.074 -1.288,0.22 -0.375,0.141 -0.697,0.316 -0.957,0.523 0,0.245 0.004,0.546 0.009,0.907 0.007,0.383 0.016,0.793 0.028,1.229 0.012,0.436 0.028,0.878 0.046,1.325 0.018,0.434 0.039,0.836 0.062,1.207 0.116,0.12 0.27,0.252 0.454,0.395 0.197,0.152 0.415,0.296 0.648,0.43 0.23,0.132 0.475,0.244 0.726,0.334 0.246,0.088 0.483,0.132 0.705,0.132 0.667,0 1.154,-0.249 1.488,-0.763 C -0.172,1.7 0,0.953 0,0 M 0.85,3.05 C 0.611,3.38 0.308,3.643 -0.054,3.83 -0.415,4.017 -0.841,4.112 -1.321,4.112 -1.538,4.112 -1.768,4.082 -2.005,4.021 -2.243,3.962 -2.505,3.867 -2.782,3.739 -3.059,3.611 -3.355,3.443 -3.664,3.24 -3.924,3.067 -4.205,2.86 -4.5,2.622 c 0.022,0.447 0.046,0.899 0.073,1.357 0.031,0.532 0.063,1.05 0.097,1.557 0.033,0.506 0.069,0.994 0.106,1.464 0.037,0.469 0.072,0.902 0.106,1.298 0.033,0.396 0.064,0.746 0.091,1.05 0.028,0.303 0.051,0.541 0.069,0.713 l 0.015,0.135 -0.132,-0.033 C -4.406,10.08 -4.714,10.009 -4.988,9.952 -5.249,9.897 -5.504,9.852 -5.748,9.814 -5.99,9.778 -6.228,9.749 -6.456,9.728 -6.683,9.707 -6.935,9.689 -7.208,9.677 L -7.298,9.673 V 9.055 h 0.436 c 0.267,0 0.487,-0.023 0.653,-0.066 0.155,-0.041 0.273,-0.116 0.358,-0.229 0.089,-0.116 0.149,-0.281 0.18,-0.491 0.033,-0.222 0.05,-0.515 0.05,-0.871 0,-0.49 -0.009,-1.02 -0.027,-1.618 C -5.667,5.204 -5.692,4.603 -5.722,3.981 -5.753,3.357 -5.788,2.72 -5.828,2.07 -5.868,1.419 -5.911,0.771 -5.957,0.126 -6.003,-0.518 -6.051,-1.15 -6.1,-1.771 -6.149,-2.392 -6.195,-2.98 -6.238,-3.54 l -0.004,-0.051 0.04,-0.031 c 0.178,-0.14 0.397,-0.267 0.652,-0.376 0.251,-0.109 0.522,-0.203 0.803,-0.281 0.283,-0.077 0.575,-0.139 0.867,-0.182 0.297,-0.044 0.578,-0.065 0.838,-0.065 0.55,0 1.106,0.118 1.652,0.352 0.547,0.236 1.044,0.572 1.479,1.002 0.435,0.429 0.793,0.957 1.064,1.567 0.271,0.613 0.409,1.305 0.409,2.057 0,0.508 -0.06,0.99 -0.177,1.433 -0.12,0.446 -0.3,0.837 -0.535,1.165"
         style="fill:#000000;fill-opacity:1;fill-rule:nonzero;stroke:none"
         id="path84" />
    </g>
    <g
       id="g86"
       transform="matrix(0.5210116,0,0,-0.5210116,100.95689,49.557092)">
      <path
         d="m 0,0 c -0.181,0.087 -0.314,0.206 -0.407,0.363 -0.094,0.161 -0.155,0.357 -0.181,0.58 -0.027,0.237 -0.04,0.497 -0.04,0.772 0,0.343 0.005,0.705 0.018,1.076 0.013,0.407 0.032,0.784 0.055,1.153 0.025,0.389 0.052,0.771 0.083,1.145 0.031,0.374 0.062,0.724 0.096,1.049 0.034,0.324 0.068,0.612 0.101,0.863 0.035,0.258 0.066,0.448 0.096,0.582 L -0.145,7.739 -0.298,7.694 C -0.752,7.561 -1.238,7.454 -1.742,7.375 -2.249,7.295 -2.834,7.24 -3.482,7.21 L -3.573,7.206 V 6.587 h 0.233 c 0.337,0 0.602,-0.037 0.79,-0.109 0.184,-0.071 0.319,-0.169 0.414,-0.302 0.094,-0.134 0.155,-0.304 0.181,-0.506 0.027,-0.215 0.041,-0.467 0.041,-0.748 0,-0.61 -0.016,-1.209 -0.047,-1.783 C -1.991,2.575 -2.024,2.014 -2.06,1.456 -2.199,1.33 -2.364,1.194 -2.55,1.054 -2.747,0.904 -2.96,0.763 -3.185,0.632 -3.406,0.503 -3.634,0.396 -3.861,0.312 -4.082,0.23 -4.294,0.188 -4.492,0.188 c -0.37,0 -0.671,0.061 -0.895,0.179 -0.223,0.117 -0.399,0.279 -0.521,0.481 -0.125,0.206 -0.21,0.454 -0.255,0.735 -0.045,0.287 -0.067,0.604 -0.067,0.943 0,0.876 0.061,1.743 0.183,2.576 0.123,0.841 0.249,1.67 0.377,2.486 L -5.646,7.734 -5.79,7.694 C -6.262,7.561 -6.77,7.45 -7.298,7.365 -7.826,7.28 -8.371,7.228 -8.917,7.21 L -9.009,7.207 v -0.62 h 0.269 c 0.503,0 0.851,-0.085 1.039,-0.253 C -7.518,6.17 -7.424,5.887 -7.424,5.493 -7.424,5.261 -7.436,4.987 -7.457,4.68 -7.479,4.373 -7.501,4.052 -7.526,3.717 -7.55,3.382 -7.573,3.044 -7.595,2.703 -7.616,2.358 -7.627,2.032 -7.627,1.734 c 0,-0.455 0.052,-0.854 0.157,-1.184 0.103,-0.334 0.254,-0.615 0.446,-0.836 0.194,-0.223 0.431,-0.389 0.706,-0.496 0.681,-0.265 1.586,-0.199 2.606,0.241 0.557,0.24 1.169,0.643 1.818,1.196 C -1.902,0.597 -1.91,0.535 -1.918,0.471 -1.94,0.314 -1.963,0.153 -1.987,-0.012 -2.011,-0.177 -2.04,-0.34 -2.07,-0.501 -2.101,-0.664 -2.128,-0.813 -2.153,-0.948 l -0.028,-0.156 0.151,0.048 c 0.185,0.06 0.379,0.107 0.576,0.14 0.197,0.032 0.418,0.059 0.655,0.077 0.239,0.019 0.501,0.033 0.789,0.046 0.288,0.012 0.614,0.024 0.976,0.036 l 0.092,0.004 v 0.619 H 0.77 C 0.44,-0.134 0.182,-0.089 0,0"
         style="fill:#000000;fill-opacity:1;fill-rule:nonzero;stroke:none"
         id="path88" />
    </g>
    <g
       id="g90"
       transform="matrix(0.5210116,0,0,-0.5210116,106.36109,44.512302)">
      <path
         d="M 0,0 C 0.161,0 0.307,0.031 0.433,0.093 0.56,0.155 0.667,0.239 0.751,0.345 0.834,0.448 0.9,0.57 0.946,0.705 0.992,0.84 1.016,0.982 1.016,1.127 1.016,1.465 0.92,1.73 0.729,1.914 0.54,2.097 0.313,2.189 0.056,2.189 -0.106,2.189 -0.253,2.158 -0.381,2.097 -0.509,2.037 -0.621,1.953 -0.712,1.848 -0.803,1.744 -0.873,1.621 -0.919,1.485 -0.965,1.35 -0.989,1.204 -0.989,1.053 -0.989,0.701 -0.891,0.434 -0.699,0.26 -0.51,0.087 -0.275,0 0,0"
         style="fill:#000000;fill-opacity:1;fill-rule:nonzero;stroke:none"
         id="path92" />
    </g>
    <g
       id="g94"
       transform="matrix(0.5210116,0,0,-0.5210116,106.79967,49.592672)">
      <path
         d="m 0,0 c -0.133,0.04 -0.231,0.116 -0.299,0.232 -0.073,0.126 -0.121,0.312 -0.144,0.552 -0.025,0.25 -0.036,0.577 -0.036,1 0,0.458 0.008,0.932 0.027,1.41 0.018,0.491 0.048,0.989 0.087,1.48 0.039,0.481 0.086,0.987 0.142,1.504 0.056,0.506 0.122,1.004 0.194,1.479 L -0.007,7.8 -0.147,7.763 C -0.605,7.641 -1.094,7.533 -1.6,7.442 -2.105,7.352 -2.672,7.296 -3.283,7.278 L -3.321,7.277 C -3.353,7.352 -3.387,7.425 -3.445,7.49 -3.518,7.571 -3.617,7.638 -3.741,7.689 -3.964,7.782 -4.267,7.813 -4.75,7.67 -4.96,7.607 -5.201,7.502 -5.463,7.358 -5.724,7.216 -6.01,7.029 -6.313,6.803 -6.553,6.624 -6.8,6.412 -7.051,6.169 c 0.008,0.048 0.015,0.097 0.022,0.147 0.025,0.156 0.051,0.314 0.079,0.474 0.027,0.159 0.054,0.313 0.082,0.464 0.028,0.149 0.053,0.282 0.078,0.397 L -6.755,7.811 -6.91,7.762 C -7.237,7.66 -7.529,7.58 -7.778,7.524 -8.025,7.47 -8.261,7.429 -8.48,7.402 -8.7,7.375 -8.925,7.353 -9.153,7.337 -9.38,7.322 -9.642,7.302 -9.938,7.278 L -10.024,7.271 V 6.655 h 0.297 c 0.307,0 0.556,-0.035 0.741,-0.104 0.181,-0.068 0.314,-0.165 0.407,-0.298 0.096,-0.134 0.16,-0.305 0.191,-0.508 0.034,-0.214 0.05,-0.468 0.05,-0.755 0,-0.948 -0.044,-1.926 -0.13,-2.907 -0.085,-0.982 -0.203,-1.979 -0.351,-2.966 l -0.021,-0.142 0.139,0.036 c 0.437,0.115 0.886,0.195 1.334,0.237 0.45,0.042 0.971,0.064 1.544,0.064 h 0.27 v 0.623 h -0.509 c -0.261,0 -0.468,0.022 -0.614,0.065 -0.134,0.039 -0.231,0.115 -0.3,0.232 -0.072,0.125 -0.12,0.31 -0.144,0.551 -0.025,0.249 -0.036,0.575 -0.036,0.998 0,0.633 0.023,1.249 0.069,1.833 0.044,0.574 0.086,1.173 0.122,1.778 0.14,0.137 0.296,0.266 0.464,0.383 0.176,0.122 0.357,0.23 0.536,0.319 0.178,0.089 0.36,0.159 0.54,0.21 0.383,0.107 0.756,0.099 1.078,-0.029 0.169,-0.067 0.327,-0.186 0.47,-0.351 l 0.068,-0.08 0.073,0.076 c 0.126,0.134 0.241,0.289 0.34,0.463 0.051,0.089 0.088,0.179 0.114,0.272 h 0.195 c 0.312,0 0.564,-0.035 0.75,-0.104 0.178,-0.067 0.314,-0.167 0.407,-0.298 0.096,-0.136 0.16,-0.306 0.191,-0.508 0.033,-0.212 0.05,-0.466 0.05,-0.755 0,-0.939 -0.039,-1.916 -0.116,-2.904 -0.076,-0.975 -0.19,-1.975 -0.338,-2.969 l -0.021,-0.142 0.14,0.036 c 0.437,0.115 0.89,0.195 1.347,0.237 0.46,0.042 0.985,0.064 1.558,0.064 h 0.243 v 0.623 H 0.614 C 0.354,-0.065 0.147,-0.043 0,0"
         style="fill:#000000;fill-opacity:1;fill-rule:nonzero;stroke:none"
         id="path96" />
    </g>
    <g
       id="g98"
       transform="matrix(0.5210116,0,0,-0.5210116,112.13801,49.603902)">
      <path
         d="M 0,0 C -0.126,0.027 -0.228,0.078 -0.303,0.154 -0.38,0.23 -0.436,0.339 -0.472,0.475 -0.51,0.62 -0.529,0.813 -0.529,1.05 c 0,0.279 0.014,0.587 0.042,0.918 0.027,0.341 0.058,0.694 0.091,1.058 0.035,0.367 0.065,0.737 0.093,1.113 0.028,0.379 0.041,0.744 0.041,1.085 0,0.539 -0.079,0.982 -0.234,1.316 -0.157,0.335 -0.351,0.599 -0.574,0.784 -0.225,0.186 -0.469,0.312 -0.724,0.374 -0.248,0.059 -0.474,0.09 -0.673,0.09 -0.608,0 -1.214,-0.149 -1.802,-0.443 -0.527,-0.264 -1.105,-0.652 -1.72,-1.156 0.027,0.191 0.061,0.394 0.101,0.607 0.058,0.309 0.115,0.602 0.17,0.878 L -5.687,7.83 -5.839,7.784 C -6.164,7.684 -6.442,7.607 -6.689,7.55 -6.937,7.493 -7.178,7.447 -7.405,7.414 -7.63,7.38 -7.861,7.356 -8.092,7.341 -8.327,7.326 -8.581,7.312 -8.856,7.3 L -8.946,7.295 V 6.677 h 0.269 c 0.35,0 0.623,-0.053 0.81,-0.158 C -7.679,6.413 -7.543,6.278 -7.452,6.105 -7.36,5.93 -7.305,5.73 -7.288,5.511 -7.27,5.278 -7.26,5.042 -7.26,4.809 -7.26,3.821 -7.3,2.843 -7.38,1.901 -7.459,0.955 -7.571,0.025 -7.71,-0.861 l -0.023,-0.144 0.14,0.037 c 0.435,0.115 0.901,0.196 1.385,0.238 0.486,0.042 1.066,0.063 1.723,0.063 h 0.095 v 0.623 h -0.555 c -0.254,0 -0.454,0.023 -0.598,0.069 -0.131,0.042 -0.226,0.121 -0.291,0.241 -0.069,0.129 -0.115,0.311 -0.136,0.544 -0.022,0.239 -0.032,0.553 -0.032,0.959 0,0.261 0.006,0.543 0.019,0.839 0.012,0.304 0.025,0.617 0.041,0.939 0.016,0.322 0.033,0.646 0.055,0.975 0.02,0.314 0.04,0.613 0.057,0.897 0.141,0.126 0.304,0.262 0.486,0.402 0.198,0.151 0.407,0.29 0.625,0.412 0.219,0.122 0.448,0.225 0.68,0.306 0.229,0.079 0.457,0.119 0.679,0.119 0.391,0 0.7,-0.069 0.917,-0.206 0.216,-0.137 0.379,-0.32 0.485,-0.545 0.109,-0.233 0.177,-0.5 0.204,-0.793 0.026,-0.306 0.04,-0.619 0.04,-0.931 0,-0.325 -0.015,-0.71 -0.046,-1.145 C -1.79,2.605 -1.832,2.155 -1.883,1.701 -1.936,1.244 -1.991,0.791 -2.049,0.344 c -0.058,-0.448 -0.116,-0.85 -0.17,-1.205 l -0.023,-0.146 0.142,0.04 c 0.232,0.066 0.469,0.116 0.702,0.15 0.23,0.033 0.472,0.058 0.721,0.077 0.244,0.018 0.508,0.032 0.784,0.041 0.276,0.01 0.578,0.02 0.904,0.032 l 0.091,0.004 v 0.619 H 0.509 C 0.308,-0.044 0.136,-0.029 0,0"
         style="fill:#000000;fill-opacity:1;fill-rule:nonzero;stroke:none"
         id="path100" />
    </g>
    <g
       id="g102"
       transform="matrix(0.5210116,0,0,-0.5210116,114.07706,44.512302)">
      <path
         d="M 0,0 C 0.161,0 0.307,0.031 0.433,0.093 0.56,0.155 0.667,0.239 0.752,0.345 0.834,0.448 0.9,0.57 0.946,0.705 0.992,0.84 1.016,0.982 1.016,1.127 1.016,1.465 0.92,1.73 0.729,1.914 0.54,2.097 0.313,2.189 0.056,2.189 -0.106,2.189 -0.253,2.158 -0.381,2.097 -0.509,2.037 -0.621,1.953 -0.712,1.848 -0.803,1.744 -0.872,1.621 -0.919,1.485 -0.965,1.35 -0.988,1.204 -0.988,1.053 -0.988,0.701 -0.891,0.434 -0.699,0.26 -0.51,0.087 -0.274,0 0,0"
         style="fill:#000000;fill-opacity:1;fill-rule:nonzero;stroke:none"
         id="path104" />
    </g>
    <g
       id="g106"
       transform="matrix(0.5210116,0,0,-0.5210116,114.51591,49.592672)">
      <path
         d="m 0,0 c -0.133,0.04 -0.232,0.116 -0.299,0.232 -0.073,0.126 -0.121,0.312 -0.145,0.552 -0.024,0.25 -0.036,0.577 -0.036,1 0,0.458 0.009,0.932 0.027,1.41 0.019,0.491 0.049,0.989 0.088,1.48 0.038,0.481 0.086,0.987 0.142,1.504 0.056,0.506 0.121,1.004 0.194,1.479 L -0.008,7.8 -0.147,7.763 C -0.605,7.641 -1.094,7.533 -1.601,7.442 -2.105,7.352 -2.672,7.296 -3.284,7.278 L -3.375,7.275 v -0.62 h 0.288 c 0.311,0 0.564,-0.035 0.75,-0.104 0.177,-0.067 0.314,-0.167 0.406,-0.298 0.097,-0.136 0.161,-0.306 0.192,-0.508 0.032,-0.212 0.05,-0.466 0.05,-0.755 0,-0.939 -0.04,-1.916 -0.117,-2.904 -0.075,-0.975 -0.189,-1.975 -0.337,-2.969 l -0.021,-0.142 0.139,0.036 c 0.437,0.115 0.89,0.195 1.348,0.237 0.46,0.042 0.984,0.064 1.557,0.064 h 0.243 v 0.623 H 0.614 C 0.354,-0.065 0.147,-0.043 0,0"
         style="fill:#000000;fill-opacity:1;fill-rule:nonzero;stroke:none"
         id="path108" />
    </g>
    <g
       id="g110"
       transform="matrix(0.5210116,0,0,-0.5210116,120.10047,47.783432)">
      <path
         d="m 0,0 c 0.288,-0.333 0.589,-0.667 0.897,-0.994 0.284,-0.301 0.569,-0.602 0.857,-0.9 -0.407,-0.451 -0.818,-0.78 -1.225,-0.976 -0.424,-0.205 -0.826,-0.309 -1.197,-0.309 -0.403,0 -0.772,0.068 -1.097,0.2 -0.325,0.132 -0.61,0.313 -0.846,0.536 -0.235,0.223 -0.418,0.489 -0.543,0.79 -0.127,0.302 -0.192,0.631 -0.192,0.978 0,0.278 0.029,0.544 0.086,0.792 0.055,0.242 0.154,0.48 0.291,0.706 0.139,0.227 0.329,0.456 0.565,0.679 0.219,0.207 0.494,0.422 0.82,0.639 C -1.35,1.759 -1.103,1.396 -0.852,1.061 -0.576,0.692 -0.29,0.335 0,0 m -1.226,4.835 c -0.083,0.194 -0.149,0.389 -0.196,0.58 -0.047,0.192 -0.072,0.387 -0.072,0.581 0,0.285 0.034,0.568 0.099,0.844 0.065,0.27 0.165,0.514 0.297,0.722 0.13,0.205 0.297,0.372 0.495,0.496 0.196,0.121 0.435,0.183 0.71,0.183 C 0.33,8.241 0.523,8.197 0.684,8.11 0.846,8.022 0.98,7.904 1.086,7.76 1.191,7.614 1.27,7.441 1.319,7.248 1.369,7.052 1.395,6.844 1.395,6.631 1.395,6.35 1.341,6.079 1.237,5.824 1.132,5.569 0.983,5.315 0.796,5.073 0.609,4.831 0.384,4.593 0.126,4.367 -0.112,4.158 -0.372,3.958 -0.644,3.771 -0.744,3.933 -0.841,4.096 -0.937,4.26 -1.045,4.448 -1.143,4.641 -1.226,4.835 m 9.59,-7.487 C 8.107,-2.835 7.866,-2.954 7.646,-3.006 7.147,-3.125 6.585,-3.13 5.95,-2.872 5.595,-2.729 5.241,-2.549 4.898,-2.34 4.555,-2.132 4.231,-1.905 3.932,-1.666 3.66,-1.446 3.43,-1.245 3.247,-1.067 L 5.174,1.982 C 5.458,2.424 5.771,2.778 6.104,3.032 6.521,3.351 7.01,3.455 7.546,3.377 7.663,3.36 7.784,3.328 7.906,3.281 L 7.974,3.255 8.017,3.314 c 0.087,0.121 0.145,0.249 0.171,0.382 0.026,0.127 0.04,0.246 0.04,0.355 0,0.089 -0.016,0.182 -0.046,0.278 C 8.15,4.426 8.098,4.518 8.025,4.603 7.952,4.687 7.854,4.755 7.736,4.806 7.498,4.909 7.158,4.909 6.75,4.807 6.54,4.755 6.303,4.631 6.048,4.44 5.795,4.253 5.514,3.974 5.212,3.61 4.911,3.249 4.578,2.753 4.223,2.136 L 2.67,-0.598 C 2.118,-0.083 1.595,0.495 1.115,1.119 0.623,1.758 0.161,2.424 -0.26,3.101 -0.082,3.247 0.095,3.386 0.27,3.52 0.468,3.671 0.665,3.823 0.859,3.977 1.052,4.129 1.249,4.293 1.443,4.464 1.634,4.633 1.828,4.82 2.018,5.019 2.355,5.378 2.58,5.72 2.686,6.034 2.792,6.347 2.847,6.663 2.847,6.972 2.847,7.283 2.792,7.573 2.683,7.833 2.574,8.093 2.422,8.32 2.23,8.509 2.039,8.699 1.81,8.847 1.551,8.949 1.293,9.051 1.008,9.103 0.704,9.103 0.335,9.103 -0.023,9.054 -0.36,8.957 -0.703,8.858 -1.042,8.664 -1.371,8.378 -1.819,7.973 -2.164,7.51 -2.394,7.002 -2.626,6.495 -2.743,5.952 -2.743,5.388 c 0,-0.207 0.019,-0.428 0.057,-0.656 0.037,-0.227 0.09,-0.458 0.158,-0.685 0.068,-0.226 0.153,-0.45 0.253,-0.666 0.086,-0.188 0.184,-0.366 0.29,-0.533 C -2.096,2.764 -2.206,2.685 -2.316,2.609 L -2.717,2.338 C -2.85,2.248 -2.981,2.155 -3.111,2.06 -3.244,1.96 -3.376,1.855 -3.502,1.747 -3.789,1.504 -4.024,1.254 -4.205,1.001 -4.382,0.752 -4.522,0.5 -4.621,0.253 -4.718,0.008 -4.784,-0.236 -4.82,-0.473 -4.854,-0.708 -4.871,-0.94 -4.871,-1.164 c 0,-0.484 0.09,-0.928 0.266,-1.319 0.176,-0.391 0.423,-0.728 0.733,-1.004 0.309,-0.275 0.678,-0.489 1.095,-0.636 0.671,-0.237 1.449,-0.303 2.299,-0.114 0.323,0.072 0.65,0.191 0.971,0.353 0.32,0.162 0.64,0.372 0.953,0.624 0.289,0.236 0.568,0.523 0.83,0.856 0.249,-0.203 0.516,-0.414 0.795,-0.626 0.314,-0.241 0.643,-0.458 0.981,-0.649 0.341,-0.192 0.696,-0.352 1.054,-0.476 0.364,-0.126 0.736,-0.19 1.107,-0.19 0.229,0 0.461,0.034 0.692,0.101 0.229,0.065 0.454,0.154 0.67,0.265 0.214,0.108 0.421,0.238 0.616,0.386 0.193,0.146 0.372,0.302 0.534,0.464 l 0.056,0.058 -0.34,0.472 z"
         style="fill:#000000;fill-opacity:1;fill-rule:nonzero;stroke:none"
         id="path112" />
    </g>
    <g
       id="g114"
       transform="matrix(0.5210116,0,0,-0.5210116,130.6011,47.188112)">
      <path
         d="m 0,0 h -3.502 l 1.878,5.468 h 0.128 z M 3.062,-3.756 C 2.797,-3.307 2.549,-2.705 2.325,-1.967 L -0.817,8.195 -1.691,7.943 -1.707,7.896 C -1.928,7.222 -2.17,6.5 -2.43,5.751 -2.68,5.027 -2.948,4.281 -3.226,3.535 -3.503,2.793 -3.784,2.054 -4.068,1.317 -4.349,0.593 -4.637,-0.125 -4.925,-0.817 -5.214,-1.513 -5.496,-2.175 -5.762,-2.786 -6.022,-3.381 -6.279,-3.945 -6.525,-4.464 -6.608,-4.47 -6.707,-4.478 -6.822,-4.487 L -7.249,-4.524 C -7.408,-4.543 -7.576,-4.562 -7.753,-4.58 l -0.082,-0.008 -0.026,-0.724 0.107,0.009 c 0.435,0.037 0.831,0.068 1.187,0.092 0.703,0.049 1.368,0.049 1.971,0 0.303,-0.024 0.62,-0.055 0.951,-0.092 l 0.102,-0.011 0.024,0.721 -0.627,0.096 c -0.233,0.033 -0.396,0.103 -0.485,0.21 -0.09,0.108 -0.135,0.246 -0.135,0.422 0,0.185 0.041,0.407 0.12,0.661 0.081,0.256 0.178,0.536 0.29,0.833 l 0.486,1.359 c 0.397,0.04 0.784,0.072 1.154,0.095 0.391,0.024 0.758,0.042 1.098,0.055 0.34,0.012 0.644,0.02 0.913,0.023 0.271,0.003 0.489,0.005 0.655,0.005 h 0.287 l 1.01,-3.637 -1.269,-0.117 -0.025,-0.726 0.108,0.011 c 0.343,0.036 0.713,0.064 1.1,0.082 0.743,0.037 1.549,0.039 2.299,0 0.365,-0.018 0.706,-0.046 1.011,-0.082 l 0.102,-0.011 0.026,0.72 -0.589,0.097 c -0.375,0.061 -0.694,0.311 -0.948,0.741"
         style="fill:#000000;fill-opacity:1;fill-rule:nonzero;stroke:none"
         id="path116" />
    </g>
    <g
       id="g118"
       transform="matrix(0.5210116,0,0,-0.5210116,135.75703,45.720742)">
      <path
         d="m 0,0 c -0.216,0.115 -0.466,0.201 -0.74,0.254 -0.271,0.054 -0.555,0.08 -0.843,0.08 -0.188,0 -0.396,-0.014 -0.62,-0.042 C -2.428,0.265 -2.656,0.217 -2.881,0.151 -3.106,0.086 -3.33,-0.007 -3.544,-0.124 -3.762,-0.242 -3.957,-0.393 -4.122,-0.571 -4.289,-0.75 -4.424,-0.966 -4.523,-1.212 c -0.099,-0.246 -0.149,-0.539 -0.149,-0.87 0,-0.286 0.039,-0.537 0.116,-0.747 0.077,-0.21 0.189,-0.397 0.331,-0.555 0.141,-0.157 0.313,-0.3 0.513,-0.428 0.191,-0.121 0.412,-0.246 0.658,-0.372 l 0.323,-0.167 c 0.21,-0.104 0.433,-0.214 0.674,-0.327 0.235,-0.112 0.455,-0.241 0.653,-0.384 0.196,-0.139 0.36,-0.305 0.489,-0.492 0.123,-0.18 0.186,-0.394 0.186,-0.637 0,-0.249 -0.042,-0.467 -0.125,-0.647 -0.083,-0.18 -0.193,-0.328 -0.329,-0.441 -0.138,-0.115 -0.295,-0.202 -0.467,-0.26 -0.174,-0.058 -0.353,-0.087 -0.532,-0.087 -0.486,0 -0.881,0.152 -1.172,0.454 -0.291,0.304 -0.438,0.727 -0.438,1.257 v 0.273 l -0.099,-0.003 c -0.357,-0.013 -0.659,-0.125 -0.896,-0.332 -0.242,-0.211 -0.364,-0.501 -0.364,-0.859 0,-0.233 0.064,-0.446 0.191,-0.634 0.125,-0.184 0.3,-0.34 0.52,-0.463 0.215,-0.12 0.478,-0.213 0.778,-0.277 0.299,-0.062 0.629,-0.094 0.982,-0.094 0.591,0 1.104,0.072 1.524,0.212 0.422,0.142 0.77,0.333 1.036,0.568 0.267,0.235 0.465,0.503 0.587,0.799 0.12,0.293 0.182,0.594 0.182,0.893 0,0.332 -0.064,0.628 -0.19,0.881 -0.124,0.247 -0.288,0.47 -0.489,0.662 -0.197,0.187 -0.419,0.354 -0.662,0.497 -0.238,0.139 -0.471,0.27 -0.7,0.394 -0.234,0.122 -0.474,0.24 -0.714,0.351 -0.231,0.107 -0.448,0.228 -0.641,0.359 -0.186,0.128 -0.34,0.28 -0.459,0.449 -0.113,0.164 -0.171,0.373 -0.171,0.621 0,0.164 0.034,0.323 0.101,0.472 0.068,0.149 0.166,0.28 0.292,0.389 0.127,0.111 0.285,0.201 0.469,0.268 0.183,0.066 0.394,0.1 0.627,0.1 0.408,0 0.709,-0.111 0.893,-0.331 0.189,-0.223 0.285,-0.527 0.285,-0.901 0,-0.088 -0.008,-0.182 -0.023,-0.276 -0.015,-0.101 -0.031,-0.203 -0.05,-0.307 l -0.02,-0.111 h 0.114 c 0.232,0 0.44,0.031 0.619,0.093 0.18,0.063 0.33,0.149 0.448,0.255 0.118,0.107 0.209,0.231 0.271,0.369 0.061,0.139 0.093,0.284 0.093,0.432 0,0.271 -0.07,0.508 -0.206,0.702 C 0.402,-0.274 0.222,-0.119 0,0"
         style="fill:#000000;fill-opacity:1;fill-rule:nonzero;stroke:none"
         id="path120" />
    </g>
    <g
       id="g122"
       transform="matrix(0.5210116,0,0,-0.5210116,139.00626,49.660362)">
      <path
         d="m 0,0 c -0.476,0 -0.89,0.105 -1.231,0.313 -0.345,0.21 -0.632,0.489 -0.853,0.829 -0.222,0.343 -0.39,0.735 -0.497,1.166 -0.107,0.432 -0.162,0.875 -0.162,1.315 0,0.464 0.061,0.917 0.18,1.344 0.118,0.427 0.294,0.81 0.523,1.138 0.227,0.326 0.512,0.589 0.848,0.785 0.332,0.193 0.721,0.292 1.155,0.292 0.468,0 0.876,-0.118 1.214,-0.348 C 1.52,6.6 1.805,6.297 2.027,5.935 2.251,5.569 2.418,5.164 2.525,4.73 2.633,4.293 2.688,3.871 2.688,3.476 2.688,2.939 2.625,2.448 2.503,2.016 2.381,1.587 2.204,1.22 1.973,0.923 1.744,0.628 1.461,0.398 1.134,0.239 0.806,0.081 0.424,0 0,0 M 3.358,6.801 C 3.048,7.139 2.643,7.409 2.152,7.604 1.663,7.798 1.064,7.896 0.374,7.896 -0.357,7.896 -1.02,7.758 -1.595,7.486 -2.168,7.215 -2.663,6.853 -3.063,6.409 -3.463,5.966 -3.774,5.454 -3.986,4.886 -4.198,4.319 -4.306,3.732 -4.306,3.139 -4.306,2.642 -4.244,2.156 -4.123,1.696 -4,1.23 -3.785,0.812 -3.486,0.453 c 0.301,-0.36 0.707,-0.653 1.207,-0.87 0.499,-0.216 1.13,-0.325 1.878,-0.325 0.649,0 1.264,0.131 1.829,0.39 C 1.99,-0.093 2.486,0.265 2.905,0.711 3.324,1.157 3.656,1.686 3.893,2.284 4.13,2.882 4.25,3.526 4.25,4.199 4.25,4.697 4.179,5.175 4.038,5.619 3.896,6.067 3.667,6.465 3.358,6.801"
         style="fill:#000000;fill-opacity:1;fill-rule:nonzero;stroke:none"
         id="path124" />
    </g>
    <g
       id="g126"
       transform="matrix(0.5210116,0,0,-0.5210116,142.96038,46.370452)">
      <path
         d="m 0,0 c 0.248,0.274 0.53,0.48 0.836,0.612 0.31,0.133 0.624,0.2 0.935,0.2 0.359,0 0.667,-0.054 0.915,-0.159 C 2.934,0.548 3.14,0.413 3.3,0.25 3.459,0.087 3.58,-0.094 3.658,-0.29 3.739,-0.489 3.789,-0.681 3.806,-0.862 l 0.008,-0.09 0.09,0.004 c 0.153,0.006 0.302,0.036 0.445,0.089 0.143,0.052 0.269,0.12 0.375,0.202 0.109,0.084 0.198,0.189 0.264,0.312 0.067,0.123 0.1,0.262 0.1,0.413 0,0.203 -0.066,0.401 -0.197,0.589 C 4.762,0.841 4.58,1.002 4.348,1.136 4.12,1.269 3.845,1.377 3.529,1.459 3.215,1.541 2.862,1.582 2.481,1.582 1.749,1.582 1.081,1.449 0.493,1.187 -0.094,0.925 -0.601,0.569 -1.015,0.128 c -0.413,-0.44 -0.735,-0.961 -0.958,-1.546 -0.221,-0.587 -0.334,-1.209 -0.334,-1.85 0,-0.522 0.075,-1.019 0.222,-1.475 0.148,-0.46 0.371,-0.864 0.66,-1.202 0.291,-0.341 0.655,-0.615 1.081,-0.813 0.427,-0.198 0.923,-0.299 1.476,-0.299 0.607,0 1.241,0.136 1.884,0.404 0.642,0.266 1.309,0.696 1.984,1.278 L 5.067,-5.317 4.688,-4.811 4.612,-4.869 C 4.347,-5.073 4.091,-5.238 3.852,-5.357 3.61,-5.478 3.379,-5.571 3.164,-5.637 2.949,-5.702 2.744,-5.746 2.552,-5.767 2.359,-5.788 2.179,-5.799 2.017,-5.799 c -0.43,0 -0.826,0.07 -1.177,0.206 -0.347,0.135 -0.651,0.341 -0.902,0.612 -0.252,0.271 -0.448,0.609 -0.585,1.007 -0.138,0.399 -0.207,0.872 -0.207,1.407 0,0.583 0.08,1.092 0.239,1.515 C -0.456,-0.63 -0.249,-0.275 0,0"
         style="fill:#000000;fill-opacity:1;fill-rule:nonzero;stroke:none"
         id="path128" />
    </g>
    <g
       id="g130"
       transform="matrix(0.5210116,0,0,-0.5210116,147.61692,49.592672)">
      <path
         d="m 0,0 c -0.133,0.04 -0.232,0.116 -0.299,0.232 -0.073,0.126 -0.121,0.312 -0.145,0.552 -0.024,0.25 -0.036,0.577 -0.036,1 0,0.458 0.009,0.932 0.027,1.41 0.019,0.491 0.049,0.989 0.088,1.48 0.038,0.481 0.086,0.987 0.142,1.504 0.056,0.506 0.121,1.004 0.194,1.479 L -0.007,7.8 -0.147,7.763 C -0.605,7.641 -1.094,7.533 -1.6,7.442 -2.105,7.352 -2.672,7.296 -3.284,7.278 L -3.375,7.275 v -0.62 h 0.288 c 0.312,0 0.564,-0.035 0.75,-0.104 0.178,-0.067 0.314,-0.167 0.406,-0.298 0.097,-0.136 0.161,-0.306 0.192,-0.508 0.033,-0.212 0.05,-0.466 0.05,-0.755 0,-0.939 -0.04,-1.916 -0.117,-2.904 -0.075,-0.975 -0.189,-1.975 -0.337,-2.969 l -0.021,-0.142 0.14,0.036 c 0.436,0.115 0.889,0.195 1.347,0.237 0.46,0.042 0.984,0.064 1.557,0.064 h 0.244 v 0.623 H 0.614 C 0.354,-0.065 0.147,-0.043 0,0"
         style="fill:#000000;fill-opacity:1;fill-rule:nonzero;stroke:none"
         id="path132" />
    </g>
    <g
       id="g134"
       transform="matrix(0.5210116,0,0,-0.5210116,147.17833,44.512302)">
      <path
         d="M 0,0 C 0.161,0 0.306,0.031 0.433,0.093 0.56,0.155 0.666,0.239 0.751,0.345 0.834,0.448 0.9,0.57 0.946,0.705 0.992,0.84 1.016,0.982 1.016,1.127 1.016,1.465 0.919,1.73 0.729,1.914 0.54,2.097 0.313,2.189 0.055,2.189 -0.107,2.189 -0.253,2.158 -0.382,2.097 -0.51,2.037 -0.621,1.953 -0.712,1.848 -0.803,1.744 -0.873,1.621 -0.919,1.485 -0.965,1.35 -0.989,1.204 -0.989,1.053 -0.989,0.701 -0.891,0.434 -0.699,0.26 -0.51,0.087 -0.275,0 0,0"
         style="fill:#000000;fill-opacity:1;fill-rule:nonzero;stroke:none"
         id="path136" />
    </g>
    <g
       id="g138"
       transform="matrix(0.5210116,0,0,-0.5210116,151.01135,48.089202)">
      <path
         d="m 0,0 c -0.054,-0.348 -0.132,-0.688 -0.231,-1.014 -0.11,-0.361 -0.259,-0.687 -0.439,-0.966 -0.18,-0.277 -0.405,-0.501 -0.67,-0.667 -0.262,-0.166 -0.583,-0.249 -0.956,-0.249 -0.103,0 -0.216,0.014 -0.336,0.043 -0.116,0.028 -0.228,0.082 -0.334,0.16 -0.103,0.077 -0.192,0.182 -0.262,0.313 -0.069,0.131 -0.104,0.307 -0.104,0.523 0,0.257 0.055,0.482 0.163,0.666 0.108,0.188 0.256,0.35 0.438,0.483 0.184,0.134 0.398,0.247 0.637,0.333 0.242,0.086 0.494,0.157 0.749,0.208 0.255,0.051 0.512,0.089 0.767,0.113 C -0.369,-0.034 -0.176,-0.016 0,0 M 2.926,-1.868 C 2.875,-1.924 2.81,-2.004 2.727,-2.107 2.651,-2.204 2.562,-2.3 2.462,-2.391 2.362,-2.482 2.255,-2.562 2.145,-2.629 2.042,-2.69 1.944,-2.721 1.844,-2.721 c -0.158,0 -0.27,0.084 -0.351,0.266 -0.09,0.203 -0.135,0.494 -0.135,0.865 0,0.22 0.014,0.508 0.041,0.854 0.029,0.346 0.06,0.713 0.097,1.1 0.038,0.387 0.069,0.78 0.098,1.177 0.027,0.4 0.041,0.77 0.041,1.098 0,0.794 -0.218,1.374 -0.648,1.723 C 0.562,4.706 -0.029,4.88 -0.772,4.88 -1.16,4.88 -1.574,4.825 -2.002,4.716 -2.431,4.608 -2.834,4.45 -3.201,4.247 -3.568,4.042 -3.877,3.792 -4.121,3.501 c -0.251,-0.298 -0.377,-0.635 -0.377,-1 0,-0.153 0.022,-0.286 0.067,-0.395 0.044,-0.111 0.106,-0.204 0.183,-0.273 0.077,-0.072 0.166,-0.124 0.264,-0.155 0.215,-0.07 0.459,-0.058 0.689,0.024 0.134,0.049 0.241,0.12 0.319,0.213 l 0.032,0.039 -0.014,0.048 c -0.029,0.101 -0.052,0.197 -0.066,0.288 -0.015,0.088 -0.022,0.178 -0.022,0.266 0,0.227 0.04,0.443 0.118,0.642 0.078,0.199 0.19,0.375 0.331,0.522 0.141,0.147 0.313,0.265 0.511,0.353 0.196,0.086 0.414,0.13 0.646,0.13 0.332,0 0.605,-0.057 0.809,-0.169 0.202,-0.11 0.363,-0.262 0.477,-0.449 C -0.038,3.393 0.042,3.168 0.083,2.919 0.125,2.661 0.146,2.387 0.146,2.104 0.146,1.878 0.142,1.637 0.132,1.38 0.125,1.15 0.106,0.91 0.082,0.665 -0.116,0.652 -0.361,0.63 -0.649,0.601 -0.979,0.566 -1.334,0.511 -1.703,0.437 -2.073,0.364 -2.449,0.264 -2.82,0.14 -3.195,0.015 -3.538,-0.146 -3.841,-0.34 c -0.307,-0.196 -0.56,-0.434 -0.754,-0.707 -0.198,-0.28 -0.299,-0.614 -0.299,-0.995 0,-0.165 0.027,-0.351 0.082,-0.55 0.055,-0.204 0.163,-0.395 0.32,-0.568 0.158,-0.173 0.377,-0.318 0.652,-0.43 0.275,-0.111 0.631,-0.168 1.059,-0.168 0.357,0 0.686,0.046 0.977,0.138 0.289,0.091 0.551,0.214 0.78,0.366 0.227,0.151 0.428,0.327 0.599,0.524 0.105,0.12 0.203,0.245 0.292,0.371 0.017,-0.115 0.042,-0.227 0.076,-0.337 0.06,-0.2 0.149,-0.379 0.263,-0.534 0.115,-0.16 0.263,-0.288 0.442,-0.383 0.179,-0.096 0.393,-0.145 0.634,-0.145 0.154,0 0.313,0.02 0.474,0.058 0.162,0.039 0.334,0.116 0.509,0.229 0.169,0.11 0.35,0.263 0.54,0.455 0.186,0.189 0.39,0.439 0.609,0.745 L 3.465,-2.2 2.986,-1.799 Z"
         style="fill:#000000;fill-opacity:1;fill-rule:nonzero;stroke:none"
         id="path140" />
    </g>
    <g
       id="g142"
       transform="matrix(0.5210116,0,0,-0.5210116,156.20214,46.249622)">
      <path
         d="m 0,0 c -0.047,-0.915 -0.099,-1.805 -0.154,-2.646 -0.054,-0.813 -0.109,-1.581 -0.163,-2.299 -0.169,-0.147 -0.349,-0.292 -0.532,-0.432 -0.191,-0.145 -0.387,-0.274 -0.584,-0.384 -0.196,-0.111 -0.4,-0.199 -0.604,-0.265 -0.44,-0.141 -0.915,-0.131 -1.378,0.054 -0.249,0.097 -0.476,0.262 -0.673,0.485 -0.2,0.226 -0.366,0.527 -0.494,0.895 -0.127,0.369 -0.192,0.833 -0.192,1.378 0,0.597 0.076,1.141 0.226,1.616 0.149,0.476 0.355,0.886 0.61,1.22 0.256,0.332 0.558,0.589 0.895,0.766 0.338,0.176 0.704,0.266 1.086,0.266 0.22,0 0.424,-0.019 0.608,-0.054 0.184,-0.036 0.357,-0.084 0.515,-0.143 0.156,-0.059 0.308,-0.131 0.45,-0.214 C -0.256,0.168 -0.13,0.089 0,0 m 1.767,-6.352 c -0.179,0.084 -0.31,0.203 -0.399,0.365 -0.092,0.166 -0.15,0.371 -0.174,0.612 -0.023,0.249 -0.035,0.542 -0.035,0.872 0,0.557 0.01,1.19 0.032,1.881 0.02,0.686 0.049,1.423 0.086,2.191 0.036,0.758 0.077,1.524 0.122,2.298 0.046,0.774 0.093,1.506 0.142,2.196 0.046,0.664 0.096,1.296 0.149,1.877 0.054,0.581 0.1,1.025 0.142,1.357 L 1.848,7.433 1.715,7.401 C 1.435,7.333 1.168,7.272 0.916,7.217 0.662,7.162 0.41,7.114 0.165,7.075 -0.083,7.035 -0.338,7.001 -0.595,6.975 -0.851,6.947 -1.128,6.927 -1.417,6.915 L -1.508,6.911 V 6.292 h 0.435 c 0.266,0 0.487,-0.022 0.653,-0.065 C -0.264,6.186 -0.147,6.11 -0.062,5.998 0.027,5.883 0.087,5.718 0.119,5.507 0.152,5.284 0.168,4.991 0.168,4.636 0.168,4.385 0.165,4.111 0.159,3.814 0.152,3.516 0.145,3.208 0.136,2.889 0.126,2.57 0.115,2.248 0.099,1.923 0.086,1.639 0.073,1.362 0.062,1.092 -0.209,1.165 -0.479,1.225 -0.739,1.27 -1.322,1.373 -2.083,1.408 -2.832,1.189 -3.195,1.083 -3.549,0.928 -3.886,0.729 -4.223,0.528 -4.544,0.281 -4.838,-0.008 c -0.297,-0.29 -0.559,-0.625 -0.78,-0.996 -0.221,-0.37 -0.398,-0.781 -0.526,-1.221 -0.127,-0.439 -0.192,-0.918 -0.192,-1.421 0,-0.592 0.073,-1.12 0.22,-1.569 0.148,-0.452 0.357,-0.836 0.622,-1.143 0.267,-0.308 0.586,-0.543 0.947,-0.697 0.361,-0.155 0.761,-0.234 1.189,-0.234 0.53,0 1.088,0.163 1.659,0.482 0.507,0.284 1.045,0.666 1.603,1.136 -0.008,-0.066 -0.016,-0.134 -0.026,-0.207 -0.021,-0.168 -0.045,-0.339 -0.072,-0.513 -0.028,-0.175 -0.056,-0.342 -0.083,-0.501 -0.028,-0.157 -0.053,-0.292 -0.077,-0.401 l -0.036,-0.163 0.158,0.052 c 0.183,0.06 0.375,0.107 0.57,0.14 0.197,0.032 0.416,0.058 0.652,0.077 0.238,0.019 0.5,0.033 0.788,0.046 0.287,0.012 0.613,0.024 0.974,0.036 l 0.092,0.004 v 0.619 H 2.538 c -0.328,0 -0.587,0.044 -0.771,0.13"
         style="fill:#000000;fill-opacity:1;fill-rule:nonzero;stroke:none"
         id="path144" />
    </g>
    <g
       id="g146"
       transform="matrix(0.5210116,0,0,-0.5210116,160.17768,49.660362)">
      <path
         d="m 0,0 c -0.476,0 -0.89,0.105 -1.231,0.313 -0.345,0.21 -0.631,0.489 -0.853,0.829 -0.222,0.343 -0.389,0.735 -0.497,1.166 -0.107,0.432 -0.162,0.875 -0.162,1.315 0,0.464 0.061,0.917 0.18,1.344 0.119,0.427 0.295,0.81 0.523,1.138 0.227,0.326 0.512,0.589 0.848,0.785 0.332,0.193 0.721,0.292 1.155,0.292 0.468,0 0.877,-0.118 1.214,-0.348 C 1.52,6.6 1.805,6.297 2.027,5.935 2.251,5.569 2.418,5.164 2.525,4.73 2.633,4.293 2.688,3.871 2.688,3.476 2.688,2.939 2.626,2.448 2.503,2.016 2.381,1.587 2.204,1.22 1.974,0.923 1.744,0.628 1.462,0.398 1.134,0.239 0.806,0.081 0.424,0 0,0 M 3.358,6.801 C 3.049,7.139 2.643,7.409 2.152,7.604 1.663,7.798 1.065,7.896 0.374,7.896 -0.357,7.896 -1.02,7.758 -1.595,7.486 -2.168,7.215 -2.662,6.853 -3.063,6.409 -3.463,5.966 -3.774,5.454 -3.986,4.886 -4.198,4.319 -4.305,3.732 -4.305,3.139 -4.305,2.642 -4.244,2.156 -4.123,1.696 -4,1.23 -3.785,0.812 -3.486,0.453 c 0.301,-0.36 0.707,-0.653 1.207,-0.87 0.499,-0.216 1.131,-0.325 1.878,-0.325 0.649,0 1.264,0.131 1.829,0.39 C 1.99,-0.093 2.487,0.265 2.905,0.711 3.324,1.157 3.656,1.686 3.893,2.284 4.13,2.882 4.25,3.526 4.25,4.199 4.25,4.697 4.179,5.175 4.038,5.619 3.896,6.067 3.667,6.465 3.358,6.801"
         style="fill:#000000;fill-opacity:1;fill-rule:nonzero;stroke:none"
         id="path148" />
    </g>
    <g
       id="g150"
       transform="matrix(0.5210116,0,0,-0.5210116,165.16365,46.868832)">
      <path
         d="m 0,0 -0.02,-0.111 h 0.113 c 0.233,0 0.441,0.03 0.619,0.092 0.18,0.063 0.33,0.149 0.448,0.256 0.118,0.106 0.209,0.23 0.271,0.369 0.062,0.138 0.093,0.284 0.093,0.432 0,0.271 -0.07,0.507 -0.206,0.701 C 1.185,1.929 1.005,2.085 0.783,2.204 0.566,2.318 0.317,2.404 0.042,2.458 -0.229,2.511 -0.513,2.538 -0.801,2.538 -0.988,2.538 -1.197,2.524 -1.42,2.496 -1.646,2.468 -1.874,2.42 -2.099,2.355 -2.324,2.29 -2.547,2.197 -2.762,2.08 -2.98,1.961 -3.174,1.811 -3.34,1.632 -3.506,1.453 -3.641,1.237 -3.74,0.991 -3.84,0.745 -3.89,0.453 -3.89,0.122 c 0,-0.286 0.039,-0.538 0.116,-0.747 0.078,-0.21 0.19,-0.397 0.332,-0.556 0.14,-0.156 0.313,-0.299 0.512,-0.427 0.192,-0.121 0.412,-0.246 0.658,-0.372 l 0.324,-0.167 c 0.209,-0.104 0.433,-0.214 0.674,-0.328 0.234,-0.111 0.454,-0.24 0.652,-0.383 0.196,-0.14 0.361,-0.306 0.489,-0.493 0.124,-0.179 0.186,-0.394 0.186,-0.637 0,-0.249 -0.042,-0.467 -0.124,-0.646 -0.083,-0.18 -0.194,-0.328 -0.33,-0.442 -0.138,-0.114 -0.294,-0.202 -0.466,-0.259 -0.174,-0.058 -0.353,-0.087 -0.532,-0.087 -0.487,0 -0.882,0.152 -1.172,0.454 -0.291,0.303 -0.439,0.726 -0.439,1.257 v 0.273 l -0.098,-0.003 c -0.358,-0.014 -0.66,-0.125 -0.897,-0.332 -0.242,-0.212 -0.364,-0.501 -0.364,-0.859 0,-0.234 0.064,-0.447 0.191,-0.634 0.125,-0.185 0.301,-0.34 0.52,-0.463 0.216,-0.12 0.478,-0.214 0.779,-0.277 0.298,-0.063 0.629,-0.094 0.982,-0.094 0.591,0 1.103,0.071 1.523,0.212 0.422,0.141 0.771,0.333 1.037,0.567 0.267,0.236 0.464,0.504 0.586,0.8 0.121,0.293 0.182,0.593 0.182,0.893 0,0.332 -0.063,0.628 -0.189,0.88 -0.124,0.248 -0.288,0.471 -0.49,0.663 -0.196,0.187 -0.419,0.354 -0.662,0.497 -0.237,0.138 -0.47,0.269 -0.699,0.393 -0.235,0.123 -0.474,0.241 -0.714,0.352 -0.232,0.106 -0.448,0.227 -0.641,0.359 -0.186,0.128 -0.341,0.279 -0.459,0.449 -0.114,0.163 -0.172,0.373 -0.172,0.621 0,0.164 0.034,0.322 0.102,0.471 0.067,0.15 0.165,0.281 0.291,0.39 0.127,0.111 0.285,0.2 0.469,0.267 0.184,0.067 0.395,0.1 0.628,0.1 0.407,0 0.708,-0.111 0.893,-0.33 C -0.024,1.26 0.072,0.957 0.072,0.583 0.072,0.494 0.064,0.401 0.049,0.307 0.035,0.206 0.019,0.104 0,0"
         style="fill:#000000;fill-opacity:1;fill-rule:nonzero;stroke:none"
         id="path152" />
    </g>
    <g
       id="g154"
       transform="matrix(0.5210116,0,0,-0.5210116,96.807089,39.620722)">
      <path
         d="m 0,0 v 1.648 h -97.965 v -34.71 h 83.321 v 1.649 H -96.449 V 0 Z M 37.854,1.648 V 0 H 140.602 V -31.413 H 58.79 v -1.649 h 83.329 v 34.71 z"
         style="fill:#000000;fill-opacity:1;fill-rule:nonzero;stroke:none"
         id="path156" />
    </g>
    <g
       id="g158"
       transform="matrix(0.5210116,0,0,-0.5210116,100.02376,39.944792)">
      <path
         d="m 0,0 c -0.37,0 -0.67,0.3 -0.67,0.67 0,0.371 0.3,0.671 0.67,0.671 0.371,0 0.671,-0.3 0.671,-0.671 C 0.671,0.3 0.371,0 0,0 m 21.599,27.728 1.193,2.47 C 15.995,28.22 12.397,20.826 12.397,20.826 l 0.511,2.727 C 7.625,18.611 7.541,13.158 7.541,13.158 L 7.029,14.606 C 4.13,3.715 3.516,3.043 -1.045,1.849 L -2.087,-2.093 C 3.461,1.286 4.757,3.674 5.961,6.461 11.862,25.973 27.648,27.728 27.648,27.728 10.778,22.274 8.137,8.301 8.137,8.301 c 4.112,0.154 8.435,2.301 8.435,2.301 -2.386,-0.341 -4.005,1.023 -4.005,1.023 7.754,-1.023 11.247,3.663 11.247,3.663 -3.067,-0.085 -3.323,0.767 -3.323,0.767 7.327,-0.085 9.287,6.646 9.287,6.646 -1.448,-0.512 -2.726,0.255 -2.726,0.255 2.555,0.256 4.175,2.3 5.027,3.749 2.3,2.641 5.879,3.919 5.879,3.919 -12.525,3.408 -16.359,-2.896 -16.359,-2.896"
         style="fill:#000000;fill-opacity:1;fill-rule:nonzero;stroke:none"
         id="path160" />
    </g>
    <g
       id="g162"
       transform="matrix(0.5210116,0,0,-0.5210116,100.27786,40.697342)">
      <path
         d="m 0,0 c 1.421,1.212 1.842,1.59 3.484,2.503 1.646,0.91 3.378,1.681 5.178,2.289 1.803,0.59 3.673,1.044 5.592,1.221 0.478,0.055 0.961,0.079 1.443,0.103 l 0.726,0.018 0.691,0.006 c 0.919,0.014 1.83,0.027 2.727,0.079 1.788,0.102 3.542,0.303 5.083,0.972 0.766,0.336 1.477,0.784 2.1,1.355 0.625,0.562 1.16,1.263 1.628,2.008 0.92,1.495 1.502,3.213 1.812,5.001 0.3,1.792 0.354,3.646 0.262,5.508 0.432,-1.812 0.654,-3.697 0.553,-5.6 C 31.173,13.566 30.72,11.639 29.805,9.898 29.344,9.039 28.808,8.201 28.108,7.457 27.417,6.718 26.59,6.077 25.677,5.619 23.849,4.678 21.84,4.368 19.936,4.285 18.978,4.245 18.031,4.254 17.093,4.289 l -0.701,0.024 -0.667,0.016 c -0.446,-10e-4 -0.892,0 -1.339,-0.03 C 12.599,4.206 10.81,3.913 9.047,3.474 5.519,2.588 3.249,1.815 0,0"
         style="fill:#000000;fill-opacity:1;fill-rule:nonzero;stroke:none"
         id="path164" />
    </g>
    <g
       id="g166"
       transform="matrix(0.5210116,0,0,-0.5210116,106.89101,20.408905)">
      <path
         d="m 0,0 c -10.648,0 -19.313,-8.666 -19.313,-19.313 0,-5.398 2.226,-10.283 5.808,-13.789 1.176,0.388 1.893,0.911 2.618,2.478 -2.969,2.853 -4.821,6.868 -4.821,11.311 0,8.661 7.047,15.708 15.708,15.708 2.775,0 5.385,-0.721 7.646,-1.987 0.433,0.171 0.875,0.324 1.334,0.46 l 3.074,0.892 C 8.746,-1.586 4.556,0 0,0"
         style="fill:#000000;fill-opacity:1;fill-rule:nonzero;stroke:none"
         id="path168" />
    </g>
    <g
       id="g170"
       transform="matrix(0.5210116,0,0,-0.5210116,120.81712,52.131092)">
      <path
         d="M 0,0 -1.186,-1.409 H -1.798 L -0.943,0 Z"
         style="fill:#000000;fill-opacity:1;fill-rule:nonzero;stroke:none"
         id="path172" />
    </g>
  </g>
</svg>
