<?xml version="1.0" encoding="UTF-8" standalone="no"?>
<!-- Created with Inkscape (http://www.inkscape.org/) -->

<svg
   width="93.716438mm"
   height="84.149773mm"
   viewBox="0 0 93.716438 84.149773"
   version="1.1"
   id="svg341"
   xml:space="preserve"
   xmlns="http://www.w3.org/2000/svg"
   xmlns:svg="http://www.w3.org/2000/svg"><defs
     id="defs338"><clipPath
       clipPathUnits="userSpaceOnUse"
       id="clipPath476"><path
         d="M 0,283.465 H 283.465 V 0 H 0 Z"
         id="path474" /></clipPath></defs><g
     id="layer1"
     transform="translate(-70.579027,-106.42511)"><g
       id="g472"
       clip-path="url(#clipPath476)"
       transform="matrix(0.35277777,0,0,-0.35277777,67.437259,198.5)"><g
         id="g520"
         style="opacity:0.1"><g
           id="g478"
           transform="translate(45.8567,35.0759)"><path
             d="m 0,0 c -2.231,0 -4.041,1.81 -4.041,4.041 0,2.231 1.81,4.041 4.041,4.041 2.231,0 4.041,-1.81 4.041,-4.041 C 4.041,1.81 2.231,0 0,0 m 130.137,167.065 7.186,14.888 c -40.949,-11.922 -62.63,-56.47 -62.63,-56.47 l 3.08,16.428 C 45.945,112.136 45.432,79.28 45.432,79.28 l -3.08,8.728 C 24.885,22.387 21.186,18.335 -6.299,11.144 l -6.279,-23.755 C 20.855,7.75 28.663,22.136 35.916,38.933 71.473,156.493 166.585,167.065 166.585,167.065 64.939,134.21 49.025,50.02 49.025,50.02 c 24.776,0.925 50.824,13.86 50.824,13.86 -14.374,-2.054 -24.128,6.16 -24.128,6.16 46.716,-6.16 67.763,22.075 67.763,22.075 -18.481,-0.513 -20.021,4.62 -20.021,4.62 44.149,-0.513 55.956,40.042 55.956,40.042 -8.727,-3.08 -16.428,1.54 -16.428,1.54 15.402,1.54 25.155,13.861 30.289,22.588 13.861,15.914 35.422,23.615 35.422,23.615 -75.464,20.534 -98.565,-17.455 -98.565,-17.455"
             style="fill:#282828;fill-opacity:1;fill-rule:nonzero;stroke:none"
             id="path480" /></g><g
           id="g482"
           transform="translate(48.7952,26.3747)"><path
             d="m 0,0 c 8.564,7.303 11.098,9.583 20.994,15.081 9.917,5.48 20.349,10.13 31.194,13.792 10.868,3.558 22.133,6.289 33.698,7.359 2.881,0.332 5.788,0.473 8.694,0.616 l 4.37,0.113 4.167,0.034 c 5.536,0.084 11.028,0.163 16.428,0.479 10.777,0.611 21.344,1.823 30.627,5.853 4.62,2.026 8.902,4.722 12.654,8.168 3.768,3.382 6.986,7.608 9.808,12.096 5.544,9.011 9.053,19.359 10.918,30.133 1.811,10.793 2.136,21.968 1.578,33.186 2.601,-10.919 3.944,-22.275 3.333,-33.741 -0.639,-11.431 -3.366,-23.039 -8.88,-33.529 -2.775,-5.18 -6.007,-10.228 -10.224,-14.709 -4.168,-4.452 -9.148,-8.318 -14.646,-11.076 -11.016,-5.668 -23.12,-7.538 -34.594,-8.037 -5.775,-0.242 -11.479,-0.187 -17.129,0.02 l -4.224,0.152 -4.022,0.091 C 92.062,26.078 89.369,26.084 86.68,25.902 75.914,25.339 65.13,23.578 54.512,20.931 33.254,15.595 19.575,10.935 0,0"
             style="fill:#282828;fill-opacity:1;fill-rule:nonzero;stroke:none"
             id="path484" /></g><g
           id="g486"
           transform="translate(125.2718,260.9997)"><path
             d="m 0,0 c -64.156,0 -116.366,-52.21 -116.366,-116.366 0,-32.527 13.413,-61.957 34.997,-83.08 7.086,2.335 11.403,5.484 15.774,14.932 -17.892,17.187 -29.051,41.377 -29.051,68.148 0,52.182 42.463,94.646 94.646,94.646 16.725,0 32.445,-4.344 46.074,-11.973 2.607,1.031 5.268,1.954 8.036,2.769 l 18.517,5.376 C 52.699,-9.557 27.449,0 0,0"
             style="fill:#282828;fill-opacity:1;fill-rule:nonzero;stroke:none"
             id="path488" /></g></g></g></g></svg>
