<?xml version="1.0" encoding="UTF-8" standalone="no"?>
<!-- Created with Inkscape (http://www.inkscape.org/) -->

<svg
   width="26.832991mm"
   height="26.833008mm"
   viewBox="0 0 26.832991 26.833008"
   version="1.1"
   id="svg5"
   sodipodi:docname="logo maria circular sin fondo_gris.svg"
   inkscape:version="1.2.2 (b0a8486541, 2022-12-01)"
   xmlns:inkscape="http://www.inkscape.org/namespaces/inkscape"
   xmlns:sodipodi="http://sodipodi.sourceforge.net/DTD/sodipodi-0.dtd"
   xmlns="http://www.w3.org/2000/svg"
   xmlns:svg="http://www.w3.org/2000/svg">
  <sodipodi:namedview
     id="namedview19"
     pagecolor="#ffffff"
     bordercolor="#000000"
     borderopacity="0.25"
     inkscape:showpageshadow="2"
     inkscape:pageopacity="0.0"
     inkscape:pagecheckerboard="0"
     inkscape:deskcolor="#d1d1d1"
     inkscape:document-units="mm"
     showgrid="false"
     inkscape:zoom="7.3065327"
     inkscape:cx="45.575653"
     inkscape:cy="55.019257"
     inkscape:window-width="1920"
     inkscape:window-height="991"
     inkscape:window-x="0"
     inkscape:window-y="0"
     inkscape:window-maximized="1"
     inkscape:current-layer="svg5" />
  <defs
     id="defs2">
    <rect
       x="119.67484"
       y="106.041"
       width="574.89368"
       height="118.15997"
       id="rect2180" />
    <rect
       x="119.67484"
       y="106.041"
       width="574.89368"
       height="118.15997"
       id="rect2182" />
    <rect
       x="119.67484"
       y="106.041"
       width="574.89368"
       height="118.15997"
       id="rect2184" />
  </defs>
  <g
     id="layer1"
     transform="translate(-13.108534,-201.34696)"
     style="opacity:0.2">
    <path
       id="path2983"
       style="fill:none;fill-opacity:1;fill-rule:evenodd;stroke:#000000;stroke-width:1.235"
       d="m 39.324025,214.76346 a 12.798997,12.798997 0 0 1 -12.79899,12.79901 12.798997,12.798997 0 0 1 -12.799,-12.79901 12.798997,12.798997 0 0 1 12.799,-12.79899 12.798997,12.798997 0 0 1 12.79899,12.79899 z" />
    <path
       id="path2985"
       style="fill:none;fill-opacity:1;fill-rule:evenodd;stroke:#000000;stroke-width:0.107"
       d="m 37.998885,214.76346 a 11.473854,11.473854 0 0 1 -11.47385,11.47386 11.473854,11.473854 0 0 1 -11.473857,-11.47386 11.473854,11.473854 0 0 1 11.473857,-11.47386 11.473854,11.473854 0 0 1 11.47385,11.47386 z" />
    <g
       aria-label=" VS"
       transform="matrix(0.32644049,0,0,0.32644049,-106.64209,163.07814)"
       id="g2969"
       style="font-size:37.3333px;font-family:'Gold Lines Trial';-inkscape-font-specification:'Gold Lines Trial';text-align:center;white-space:pre;shape-inside:url(#rect2180);display:inline;fill:#1f1c24;fill-opacity:1;fill-rule:evenodd;stroke-width:7.22268">
      <path
         d="m 409.97805,157.9849 v 0.0747 h -3.22933 l -10.32266,28.48531 h -0.056 l -9.89332,-28.48531 h -2.61333 v -0.0747 h 10.82665 v 0.0747 h -4.10666 l 7.59733,23.37065 8.45599,-23.37065 h -4.85333 v -0.0747 z"
         style="font-family:'Bodoni Moda SC';-inkscape-font-specification:'Bodoni Moda SC';fill:#1f1c24;fill-opacity:1"
         id="path2965" />
      <path
         d="m 421.02872,186.54487 q -2.52,0 -4.23733,-0.784 -1.69866,-0.784 -2.8,-2.128 l -2.03466,2.72533 h -0.0747 v -7.65332 h 0.0747 q 0.31733,1.66133 0.97067,3.08 0.65333,1.39999 1.69866,2.44533 1.064,1.04533 2.55733,1.624 1.512,0.57866 3.54667,0.57866 1.97866,0 3.47199,-0.70933 1.49333,-0.70933 2.33333,-2.09067 0.84,-1.39999 0.84,-3.43466 0,-1.64267 -0.82133,-2.78133 -0.82133,-1.13867 -2.16533,-1.97867 -1.344,-0.84 -2.968,-1.56799 -1.60533,-0.728 -3.22933,-1.512 -1.60533,-0.784 -2.94933,-1.81067 -1.344,-1.04533 -2.16533,-2.50133 -0.82133,-1.456 -0.82133,-3.528 0,-2.05333 1.064,-3.60266 1.08266,-1.568 2.83733,-2.42666 1.75466,-0.87734 3.82666,-0.87734 1.904,0 3.43466,0.59734 1.53067,0.59733 2.61333,1.86666 l 2.016,-2.464 h 0.0747 v 7.65333 h -0.0747 q -0.37333,-2.59466 -1.43733,-4.256 -1.04533,-1.66133 -2.65066,-2.44533 -1.60534,-0.80266 -3.60267,-0.80266 -2.688,0 -4.08799,1.34399 -1.4,1.32534 -1.4,3.54667 0,1.47466 0.80266,2.52 0.80267,1.02666 2.10933,1.82933 1.30667,0.784 2.87467,1.512 1.58666,0.70933 3.15466,1.54933 1.58667,0.82133 2.89333,1.94133 1.30667,1.12 2.10934,2.70666 0.80266,1.568 0.80266,3.808 0,2.42667 -1.04533,4.23733 -1.04533,1.792 -2.98667,2.8 -1.92266,0.98933 -4.55466,0.98933 z"
         style="font-family:'Bodoni Moda SC';-inkscape-font-specification:'Bodoni Moda SC';fill:#1f1c24;fill-opacity:1"
         id="path2967" />
    </g>
    <g
       aria-label="del"
       transform="matrix(0.07295556,0,0,0.07295556,-6.34917,205.29397)"
       id="g2981"
       style="font-size:37.3333px;font-family:'Gold Lines Trial';-inkscape-font-specification:'Gold Lines Trial';text-align:center;white-space:pre;shape-inside:url(#rect2184);display:inline;fill:#1f1c24;fill-opacity:1;fill-rule:evenodd;stroke-width:7.22268">
      <path
         d="m 377.89011,139.31825 v -0.0747 h 9.51999 q 1.94134,0 3.17334,-1.21333 1.25066,-1.232 1.84799,-3.36 0.59734,-2.14667 0.59734,-4.872 0,-2.65066 -0.59734,-4.77866 -0.59733,-2.14666 -1.84799,-3.39733 -1.232,-1.26933 -3.17334,-1.26933 h -9.51999 v -0.0747 h 9.51999 q 2.94934,0 5.17067,1.04533 2.22133,1.02667 3.47199,3.136 1.25067,2.10933 1.25067,5.33866 0,3.32267 -1.4,5.432 -1.4,2.09066 -3.65866,3.09866 -2.25867,0.98934 -4.83467,0.98934 z m 3.00533,0 v -19.03999 h 3.54667 v 19.03999 z"
         style="font-family:'Bodoni Moda SC';-inkscape-font-specification:'Bodoni Moda SC';fill:#1f1c24;fill-opacity:1"
         id="path2975" />
      <path
         d="m 412.14343,132.28092 q 0,-0.97067 -0.65333,-1.66133 -0.65334,-0.69067 -1.568,-1.064 -0.91467,-0.37334 -1.69867,-0.37334 h -2.05333 v -0.0747 h 2.05333 q 0.784,0 1.69867,-0.336 0.91466,-0.336 1.568,-0.98933 0.65333,-0.672 0.65333,-1.64267 h 0.0747 v 6.14133 z m 5.20799,0.504 h 0.0747 v 6.53333 h -16.48265 v -0.0747 h 2.44533 V 120.3529 h -2.44533 v -0.0747 h 16.31465 v 5.78666 h -0.0747 q 0,-1.99733 -0.83999,-3.24799 -0.82134,-1.26934 -2.072,-1.86667 -1.232,-0.59733 -2.48267,-0.59733 h -4.85333 v 18.89065 h 4.27467 q 1.62399,0 3.02399,-0.616 1.4,-0.616 2.25867,-2.03467 0.85866,-1.41866 0.85866,-3.80799 z"
         style="font-family:'Bodoni Moda SC';-inkscape-font-specification:'Bodoni Moda SC';fill:#1f1c24;fill-opacity:1"
         id="path2977" />
      <path
         d="m 421.06607,139.31825 v -0.0747 h 2.44533 V 120.3529 h -2.44533 v -0.0747 h 8.41866 v 0.0747 h -2.42667 v 18.89065 h 2.98667 q 2.20266,0 3.64,-0.48533 1.45599,-0.504 2.27733,-1.38134 0.84,-0.896 1.176,-2.05333 0.35466,-1.176 0.35466,-2.53866 h 0.0747 v 6.53333 z"
         style="font-family:'Bodoni Moda SC';-inkscape-font-specification:'Bodoni Moda SC';fill:#1f1c24;fill-opacity:1"
         id="path2979" />
    </g>
    <g
       aria-label=" M"
       transform="matrix(0.32644049,0,0,0.32644049,-106.77005,153.50222)"
       id="g2973"
       style="font-size:37.3333px;font-family:'Gold Lines Trial';-inkscape-font-specification:'Gold Lines Trial';text-align:center;white-space:pre;shape-inside:url(#rect2182);display:inline;fill:#1f1c24;fill-opacity:1;fill-rule:evenodd;stroke-width:7.22268">
      <path
         d="m 405.67541,186.3582 -10.37866,-28.3733 h 3.56533 l 8.58666,23.18398 8.23199,-23.18398 h 0.0747 l -10.02399,28.3733 z m -10.34133,-28.3733 v 27.92531 h 2.89333 v 0.0747 h -5.67466 v -0.0747 h 2.70666 v -27.85065 h -2.87466 v -0.0747 z m 26.54398,0 v 0.0747 h -2.61333 v 27.85065 h 2.61333 v 0.0747 h -9.16533 v -0.0747 h 3.00533 V 157.9849 Z"
         style="font-family:'Bodoni Moda SC';-inkscape-font-specification:'Bodoni Moda SC';fill:#1f1c24;fill-opacity:1"
         id="path2971" />
    </g>
  </g>
</svg>
