<?xml version="1.0" encoding="UTF-8" standalone="no"?>
<!-- Created with Inkscape (http://www.inkscape.org/) -->

<svg
   width="174.26685mm"
   height="47.610828mm"
   viewBox="0 0 174.26684 47.610829"
   version="1.1"
   id="svg470"
   xmlns="http://www.w3.org/2000/svg"
   xmlns:svg="http://www.w3.org/2000/svg">
  <defs
     id="defs467" />
  <g
     id="layer1"
     transform="translate(-11.169269,-29.651173)">
    <path
       d="m 75.802242,77.186199 c -2.487634,-0.473727 -4.821202,-1.564431 -8.496318,-3.971163 -2.877365,-1.884302 -5.241696,-3.191239 -5.773159,-3.191239 -0.189865,0 -0.427825,0.382761 -0.528802,0.850592 -1.397582,6.474964 -11.03771,7.681036 -16.159152,2.021657 -1.796127,-1.984781 -2.684264,-3.627604 -3.333503,-6.166105 -0.869538,-3.399853 -0.574197,-6.316584 0.942708,-9.310055 0.632436,-1.248052 2.72708,-4.138935 2.72708,-3.763721 0,0.09219 0.382765,-0.1193 0.850587,-0.470047 1.469324,-1.101613 2.877195,-1.676978 4.959663,-2.026898 1.757421,-0.295288 2.272419,-0.282835 4.024347,0.09733 1.736781,0.376895 4.521342,1.619615 4.246009,1.894952 -0.05133,0.05134 -0.561113,-0.01513 -1.132853,-0.147684 -3.901324,-0.904521 -8.766691,0.493272 -11.599548,3.332471 -3.786096,3.794574 -4.46745,9.039358 -1.819674,14.007095 1.783048,3.345353 4.913823,5.243708 8.715624,5.284759 2.765108,0.02987 4.200737,-0.525439 5.716178,-2.210975 1.015185,-1.129125 1.960703,-3.262736 1.603979,-3.619462 -0.06167,-0.06163 -0.732845,-0.21287 -1.491521,-0.336033 -1.491724,-0.242141 -2.539045,-0.108142 -3.669452,0.469492 -0.395851,0.202276 -0.719728,0.299245 -0.719728,0.215482 0,-0.08378 0.535424,-0.389141 1.189833,-0.678613 0.873059,-0.386205 1.656946,-0.510762 2.94434,-0.467871 l 1.75451,0.05845 -0.08256,-0.741298 c -0.105577,-0.947907 -0.706781,-2.138261 -1.583054,-3.13439 l -0.68985,-0.784207 0.754367,0.653349 c 0.775396,0.671562 1.986581,2.928306 1.991129,3.709971 0.0017,0.305349 0.431219,0.564057 1.407287,0.847814 0.772603,0.224601 3.203497,1.29845 5.401987,2.386325 4.528569,2.240878 6.664988,2.862793 9.085087,2.644679 3.051892,-0.27504 5.759169,-2.037067 6.289692,-4.093633 l 0.236304,-0.916016 0.437601,0.837585 c 0.558666,1.069288 0.545105,1.784324 -0.05855,3.088206 -0.618293,1.335446 -1.667847,2.315748 -3.208943,2.9972 -1.228258,0.543119 -3.720883,0.862553 -4.931609,0.631986 z M 117.3461,77.081992 c -2.28034,-0.571517 -4.00997,-1.921097 -4.75842,-3.71286 -0.50818,-1.216538 -0.50752,-1.553085 0.005,-2.764874 l 0.41186,-0.973033 0.35372,1.014221 c 1.02709,2.944984 5.10539,4.6523 9.16589,3.83718 0.89425,-0.179515 3.52768,-1.250228 6.14498,-2.498459 2.51904,-1.201384 5.07174,-2.312741 5.67263,-2.469704 0.93072,-0.24309 1.11961,-0.410657 1.27511,-1.131181 0.28014,-1.297977 1.0276,-2.5971 1.99216,-3.462459 l 0.87457,-0.784614 -0.82129,0.915471 c -0.99282,1.106679 -1.60225,2.268238 -1.71334,3.265653 l -0.0826,0.741297 1.75451,-0.05845 c 1.28738,-0.04293 2.07128,0.0817 2.94434,0.467871 0.6544,0.289472 1.18984,0.594849 1.18984,0.678613 0,0.08378 -0.3239,-0.01325 -0.71974,-0.215482 -1.13041,-0.57764 -2.17773,-0.711633 -3.66945,-0.469492 -0.75868,0.12316 -1.42986,0.274368 -1.49152,0.336033 -0.0616,0.06163 0.0138,0.608412 0.16783,1.215013 0.36103,1.422326 1.97593,3.24957 3.55663,4.024304 1.7167,0.841381 5.02419,0.835496 7.19346,-0.01277 2.92565,-1.144091 5.40763,-4.182007 6.3394,-7.759351 1.36513,-5.241084 -1.16848,-10.764805 -5.99432,-13.068711 -2.76809,-1.321509 -6.10472,-1.781624 -8.64645,-1.192332 -0.57173,0.132559 -1.08152,0.199012 -1.13284,0.147683 -0.27534,-0.275327 2.50923,-1.518047 4.246,-1.894952 3.15741,-0.685172 6.43561,0.01889 8.98401,1.929554 0.46783,0.350751 0.8506,0.562266 0.8506,0.470046 0,-0.366064 2.17023,2.605774 2.75913,3.778273 2.51893,5.015086 1.55798,11.183938 -2.4098,15.46961 -3.81262,4.118097 -10.31938,4.84417 -14.05083,1.567913 -1.10594,-0.971034 -1.69278,-1.971377 -2.10941,-3.595772 l -0.28481,-1.110516 -1.70119,0.85889 c -0.93563,0.47239 -2.87891,1.635443 -4.31835,2.584568 -2.97918,1.964343 -4.34681,2.692089 -6.36229,3.385511 -1.7338,0.596523 -4.29347,0.818662 -5.61544,0.487339 z M 16.338914,64.843961 c -3.047858,-1.107214 -5.182793,-3.66974 -5.169584,-6.204946 0.0037,-0.719733 0.175132,-1.603038 0.380849,-1.9629 0.373814,-0.653913 0.374036,-0.653715 0.383303,0.340148 0.01171,1.252019 0.480556,2.150486 1.754309,3.361603 1.774588,1.687324 3.551182,2.350507 6.296786,2.350507 3.425202,0 5.303914,-1.019969 10.932823,-5.935524 4.063106,-3.548191 6.018445,-4.406667 9.677745,-4.248913 1.516387,0.06539 2.689115,0.26236 3.277356,0.550516 0.503809,0.246789 0.680469,0.37463 0.392579,0.284071 -1.079956,-0.339693 -3.450222,-0.500226 -4.799395,-0.325053 -2.531923,0.328743 -4.04186,1.317908 -8.155707,5.342812 -2.08721,2.042081 -4.494966,4.200481 -5.350568,4.796449 -2.843522,1.980624 -6.830183,2.664887 -9.620496,1.65123 z m 157.212536,-0.14346 c -2.3473,-0.872947 -3.78555,-1.971011 -8.11038,-6.191959 -4.25033,-4.148233 -5.73155,-5.123332 -8.28657,-5.455072 -1.34918,-0.175173 -3.71944,-0.01465 -4.79939,0.325053 -0.2879,0.09051 -0.11121,-0.03304 0.39257,-0.274684 0.56362,-0.270322 1.82218,-0.483518 3.27149,-0.554196 3.7697,-0.183818 5.45205,0.592922 10.33791,4.773037 3.59337,3.074307 4.48599,3.726717 6.19336,4.526573 1.36007,0.637178 1.82835,0.71555 4.27541,0.71555 2.49326,0 2.86938,-0.06588 4.05666,-0.710416 1.7053,-0.925789 2.29263,-1.427706 3.11623,-2.663027 0.44687,-0.670265 0.68227,-1.385429 0.68917,-2.093757 l 0.01,-1.075787 0.41075,0.75847 c 0.28444,0.525202 0.37753,1.217952 0.30268,2.252529 -0.18448,2.550578 -2.37809,4.987341 -5.29655,5.883653 -1.88884,0.580091 -4.66926,0.488612 -6.56381,-0.215967 z M 81.560069,62.846114 c -2.764612,-0.613328 -5.12768,-1.528582 -8.37502,-3.243801 -5.002709,-2.642373 -6.078951,-3.145349 -7.612991,-3.557815 -0.881814,-0.237096 -1.162628,-0.387312 -0.744095,-0.398034 1.10439,-0.02829 3.277507,0.723938 6.797111,2.352851 9.67503,4.477708 16.556038,4.513972 21.171499,0.111567 2.053101,-1.958329 2.729381,-3.501897 2.749955,-6.276573 0.01266,-1.710392 -0.09071,-2.27346 -0.564522,-3.075205 -0.761823,-1.289024 -0.439184,-1.242493 0.907292,0.130867 1.307035,1.333141 1.897356,2.867093 1.897356,4.930315 0,4.171292 -3.188062,7.746456 -8.033021,9.008406 -1.790941,0.466485 -6.12783,0.475704 -8.193564,0.01741 z m 25.194271,-0.03047 c -4.75004,-1.279242 -7.920803,-4.874665 -7.920803,-8.98162 0,-2.098059 0.615553,-3.713116 1.899843,-4.98469 0.59531,-0.58941 1.16212,-1.071653 1.2596,-1.071653 0.0974,0 -0.073,0.500533 -0.37881,1.112309 -0.84865,1.697681 -0.77264,4.5843 0.17154,6.514141 1.38716,2.835223 4.5285,5.112403 7.93686,5.753477 3.34403,0.628967 8.91098,-0.331195 13.31999,-2.297369 4.9924,-2.226345 6.99008,-2.98348 8.16699,-3.095346 0.69019,-0.06558 1.01935,-0.05905 0.73146,0.01465 -1.64298,0.42036 -3.91546,1.370917 -5.72403,2.394328 -4.75804,2.692425 -7.68311,3.906459 -11.2394,4.664869 -2.2303,0.475626 -6.41507,0.463884 -8.22324,-0.02305 z M 71.539027,56.823167 C 69.922055,56.252521 67.701678,55.046766 63.370581,52.387399 60.124582,50.3943 55.175297,49.431705 52.247868,50.224133 c -1.94188,0.525638 -2.020456,0.317397 -0.09391,-0.248906 2.175868,-0.639581 5.700376,-0.584948 8.295875,0.128602 1.128553,0.310256 3.601798,1.318669 5.496104,2.240917 1.894305,0.922248 4.209622,1.931908 5.145151,2.243696 3.643497,1.214272 7.689009,0.231249 9.564195,-2.324017 0.506201,-0.689791 0.904155,-1.554745 0.920358,-2.000408 l 0.02859,-0.785157 0.486595,1.055677 c 0.374828,0.81319 0.435514,1.282177 0.264199,2.041755 -0.896668,3.975712 -5.955678,5.962124 -10.815943,4.246875 z m 46.988273,0.14615 c -3.18715,-1.101031 -5.1679,-4.374666 -3.98468,-6.585541 0.3147,-0.588005 0.32549,-0.58201 0.64982,0.361415 0.86863,2.526689 3.23931,4.091574 6.51708,4.301922 2.48355,0.159386 4.02056,-0.295654 8.6715,-2.567245 2.02091,-0.987058 4.61193,-2.05238 5.75782,-2.367392 2.62787,-0.722425 6.13971,-0.780302 8.32739,-0.137249 1.92635,0.566243 1.84794,0.774396 -0.0939,0.249322 -2.95581,-0.799254 -7.84784,0.152026 -11.12271,2.16285 -6.77303,4.158759 -8.85848,5.064784 -11.64649,5.059827 -0.9558,-0.002 -2.30349,-0.211099 -3.07582,-0.477909 z M 63.452368,55.450478 c 0.188927,-0.07558 0.414661,-0.06627 0.50163,0.02067 0.08697,0.08695 -0.06761,0.148831 -0.343508,0.137465 -0.304889,-0.01257 -0.366904,-0.07458 -0.158122,-0.15812 z m 69.355582,0 c 0.18894,-0.07558 0.41466,-0.06627 0.50164,0.02067 0.0869,0.08695 -0.0675,0.148831 -0.34351,0.137465 -0.30489,-0.01257 -0.36692,-0.07458 -0.15813,-0.15812 z"
       style="fill:#999999;stroke:none;stroke-width:0.261719"
       id="path460" />
    <g
       aria-label="Servicios Notariales"
       id="text342"
       style="font-size:8.19091px;font-family:'Gold Lines Trial';-inkscape-font-specification:'Gold Lines Trial';text-align:center;text-anchor:middle;fill-rule:evenodd;stroke:#000000;stroke-width:0.36085">
      <path
         d="m 62.71152,67.201638 c -1.335119,0.02457 -2.375364,0.974718 -2.293455,2.121446 0.05734,0.860045 0.901,1.457982 2.064109,1.457982 1.482555,0 2.506419,-0.565173 3.038828,-1.654564 1.367882,-2.7931 -3.210837,-3.169882 -2.137828,-5.520674 0.475073,0.229346 1.040246,0.384973 1.646373,0.44231 1.245019,0.114672 2.268882,-0.368591 2.383555,-1.138537 0.09829,-0.638891 -0.565173,-1.113964 -1.556273,-1.113964 -1.154918,0 -2.277073,0.606128 -2.801291,1.474364 C 62.465792,62.90141 62.129965,62.401765 62.17911,61.82021 L 62.0972,61.80383 c -0.06553,0.6307 0.294873,1.179491 0.892809,1.580846 -0.0082,0.02457 -0.02457,0.04095 -0.03276,0.06553 -1.253209,2.60471 3.350082,3.006064 2.121446,5.586201 -0.417737,0.909191 -1.548082,1.589037 -2.612901,1.589037 -0.941954,0 -1.670945,-0.556982 -1.744664,-1.359692 -0.0901,-1.056627 0.786328,-1.924863 2.006773,-1.9822 z m 2.326218,-3.309128 c -0.606127,-0.07372 -1.146727,-0.212963 -1.589037,-0.417736 0.458691,-0.843664 1.572655,-1.523509 2.51461,-1.523509 0.671655,0 1.138536,0.434118 1.056627,0.974718 -0.0901,0.647082 -0.999291,1.089391 -1.9822,0.966527 z"
         style="stroke-width:0.360852"
         id="path238" />
      <path
         d="m 70.76319,65.244011 c -0.204773,0.212963 -0.155628,0.573363 0.491454,0.491454 l -0.999291,2.088682 c -0.466882,0.98291 -1.220446,1.785619 -2.096873,1.785619 -0.851855,0 -1.130346,-0.974719 -0.606127,-2.203355 0.483263,-1.138537 1.318736,-2.014964 1.810191,-2.014964 0.327636,0 0.131054,0.647082 -0.229346,1.318736 -0.434118,0.794519 -1.048436,1.449792 -1.752854,1.597228 l 0.0082,0.04095 c 1.032055,-0.139246 1.908483,-0.901001 2.383555,-1.875719 0.294873,-0.6307 0.131055,-1.204064 -0.532409,-1.204064 -0.794518,0 -1.6218,0.753564 -2.195164,1.990391 -0.688036,1.507128 -0.229345,2.563755 1.097582,2.563755 0.958337,0 1.70371,-0.819091 2.24431,-1.933054 l 1.056627,-2.170592 c 0.597937,-0.04095 0.876427,-0.172009 1.048437,0 0.286681,0.245728 0.04095,0.966528 -0.810901,2.440892 -0.548791,0.933763 -0.262109,1.662754 0.548791,1.662754 0.835473,0 1.466173,-0.761754 1.957628,-2.244309 l -0.08191,-0.0082 c -0.499646,1.449791 -1.204064,2.039537 -1.7119,2.039537 -0.565173,0 -0.532409,-0.7208 -0.1802,-1.34331 0.892809,-1.5317 1.146727,-2.490036 0.761754,-2.850436 -0.311254,-0.294873 -1.040245,0.0082 -1.605418,0.147436 C 71.205499,65.391447 71.04168,65.23582 70.76319,65.244011 Z"
         style="stroke-width:0.360852"
         id="path240" />
      <path
         d="m 75.497535,65.203056 c -0.172009,0 -0.425927,0.114673 -0.606127,0.262109 l 0.01638,0.04915 c 0.07372,-0.05734 0.172009,-0.09829 0.237536,-0.09829 0.262109,0 0.303064,0.327636 0.1802,0.761754 -0.327636,1.204064 -1.695518,3.644955 -0.8109,3.644955 1.376073,0 2.866819,-1.695518 3.489328,-3.841537 0.147436,0.07372 0.344018,0.114673 0.5406,0.114673 0.278491,0 0.556982,-0.08191 0.704418,-0.245727 l -0.03276,-0.05734 c -0.139246,0.106481 -0.376782,0.155627 -0.62251,0.155627 -0.196582,0 -0.401354,-0.03276 -0.556982,-0.0901 0.05734,-0.196582 0.09829,-0.409546 0.139246,-0.614318 -0.05734,-0.03276 -0.139246,-0.04915 -0.221155,-0.04915 -0.221154,0 -0.499645,0.09829 -0.6307,0.262109 0.09829,0.114673 0.196582,0.237537 0.352209,0.384973 -0.196581,1.343309 -1.875718,3.751437 -2.752146,3.751437 -0.565172,0 0.614319,-2.047728 0.941955,-3.350082 0.147437,-0.597937 0.09829,-1.040246 -0.368591,-1.040246 z"
         style="stroke-width:0.360852"
         id="path242" />
      <path
         d="m 80.281028,64.383965 0.106481,0.04914 c 0.221155,-0.3604 0.827282,-0.966527 1.171301,-1.236827 l -0.05734,-0.0901 c -0.663463,-0.03276 -1.236827,0.573364 -1.220445,1.277782 z m -0.376782,1.703709 c 0.155627,-0.319445 0.303063,-0.589745 0.409545,-0.688036 l -0.01638,-0.05734 c -0.319445,0.02457 -0.753563,0.2703 -0.909191,0.62251 l -1.073009,2.195164 c -0.491454,0.9911 -0.237536,1.662754 0.638891,1.662754 0.737182,0 1.367882,-0.761754 1.867528,-2.244309 l -0.08191,-0.0082 c -0.507837,1.449791 -1.212255,2.039537 -1.736473,2.039537 -0.548791,0 -0.475073,-0.696228 -0.155628,-1.34331 z"
         style="stroke-width:0.360852"
         id="path244" />
      <path
         d="m 81.960171,69.609766 c -0.851855,0 -1.113964,-0.974719 -0.589746,-2.203355 0.491455,-1.138537 1.285973,-2.014964 1.785619,-2.014964 0.3604,0 0.188391,0.778136 -0.237537,1.744664 l 0.05734,0.04095 c 0.172009,-0.09829 0.417736,-0.221154 0.597936,-0.335827 0.376782,-0.974718 0.1802,-1.572655 -0.532409,-1.572655 -0.794518,0 -1.613609,0.753564 -2.186973,1.990391 -0.655273,1.457982 -0.196582,2.563755 1.0812,2.563755 0.982909,0 1.859337,-0.925572 2.293455,-2.244309 l -0.08191,-0.0082 c -0.393164,1.138537 -1.269591,2.039537 -2.186973,2.039537 z"
         style="stroke-width:0.360852"
         id="path246" />
      <path
         d="m 85.785327,64.383965 0.106482,0.04914 c 0.221154,-0.3604 0.827282,-0.966527 1.1713,-1.236827 l -0.05734,-0.0901 c -0.663463,-0.03276 -1.236827,0.573364 -1.220445,1.277782 z m -0.376782,1.703709 c 0.155627,-0.319445 0.303064,-0.589745 0.409545,-0.688036 l -0.01638,-0.05734 c -0.319446,0.02457 -0.753564,0.2703 -0.909191,0.62251 l -1.07301,2.195164 c -0.491454,0.9911 -0.237536,1.662754 0.638891,1.662754 0.737182,0 1.367882,-0.761754 1.867528,-2.244309 l -0.08191,-0.0082 c -0.507837,1.449791 -1.212255,2.039537 -1.736473,2.039537 -0.548791,0 -0.475073,-0.696228 -0.155628,-1.34331 z"
         style="stroke-width:0.360852"
         id="path248" />
      <path
         d="m 86.874724,69.839111 c 1.474364,0 2.678428,-2.006773 2.678428,-3.374655 0.556982,0.05734 1.204064,-0.08191 1.761046,-0.434118 -0.245727,0.409545 -0.2703,0.958336 -0.0082,1.539891 0.491455,1.097582 0.188391,1.974009 -0.688037,1.974009 -0.483263,0 -0.688036,-0.3604 -0.475072,-0.892809 l -0.05734,-0.0082 c -0.319445,0.696228 -0.06553,1.179491 0.696228,1.179491 0.122863,0 0.229345,-0.0082 0.352209,-0.03276 1.228636,-0.1802 2.047727,-0.843664 2.391746,-2.178782 l -0.08191,-0.04095 c -0.303064,1.105773 -0.950146,1.728282 -1.810192,1.998582 0.53241,-0.409545 0.606128,-1.269591 0.139246,-2.3426 -0.376782,-0.876428 0.122863,-1.752855 1.073009,-1.88391 l -0.0082,-0.04915 c -0.589745,0 -1.056627,0.188391 -1.3515,0.499646 -0.565173,0.3604 -1.326928,0.491454 -1.957628,0.401354 -0.07372,-0.532409 -0.376781,-0.892809 -0.884618,-0.892809 -0.909191,0 -1.793809,0.876427 -2.318028,2.023155 -0.614318,1.343309 -0.417736,2.514609 0.548791,2.514609 z m 1.548082,-4.3248 c 0.0901,-0.03276 0.17201,-0.04915 0.253919,-0.04915 0.335827,0 0.4505,0.262109 0.4505,0.6307 -0.327637,-0.114673 -0.589746,-0.311254 -0.704419,-0.581554 z m -1.572654,4.177364 c -0.745373,0 -0.434119,-1.220446 -0.01638,-2.219737 0.335827,-0.819091 0.950145,-1.629991 1.490746,-1.908482 0.09829,0.401355 0.384972,0.663464 0.778136,0.802709 -0.05734,0.425928 -0.221155,0.933764 -0.409545,1.384264 -0.417737,1.007482 -1.25321,1.941246 -1.842955,1.941246 z"
         style="stroke-width:0.360852"
         id="path250" />
      <path
         d="m 103.76439,61.885737 c -0.62251,-0.07372 -3.808777,-0.475073 -4.308422,1.064819 -0.155627,0.458691 -0.0082,0.941954 0.425927,1.457982 l 0.08191,-0.02457 c -0.286682,-0.466882 -0.368591,-0.950146 -0.196582,-1.359691 0.540597,-1.285973 2.907777,-1.146728 3.784197,-1.056628 -0.62251,0.53241 -1.12215,1.302355 -1.42522,2.023155 l -1.42521,3.259983 c -1.007485,2.309836 -2.22793,3.325509 -3.669531,2.997873 -1.122154,-0.245728 -1.662754,-1.146728 -1.457982,-2.33441 0.204773,-1.195873 1.023864,-1.867527 1.834764,-2.080491 0.884619,-0.237536 1.752855,0.06553 1.826573,0.892809 l 0.106482,-0.04095 c -0.0901,-0.827282 -1.015673,-1.1713 -1.941246,-0.958337 -0.876427,0.196582 -1.777427,0.901 -1.990391,2.277073 -0.188391,1.228637 0.425928,2.170592 1.564464,2.42451 1.6218,0.368591 2.956919,-0.704419 4.038117,-3.219028 l 1.37607,-3.219028 c 0.34402,-0.802709 0.86005,-1.433409 1.23683,-1.924864 -0.34402,0.753564 -0.71261,1.826573 -0.54879,3.186264 l 0.25392,1.97401 c 0.19658,1.539891 0.0737,2.080491 -0.23754,2.457273 -0.0737,0.08191 -0.14743,0.163818 -0.22115,0.237536 l 0.0819,0.0901 c 0.58155,-0.491454 1.11396,-1.2614 1.47436,-2.080491 l 1.41703,-3.251791 c 1.01567,-2.326219 2.26069,-3.407419 3.70229,-3.087973 l 0.041,-0.0901 c -1.61361,-0.36859 -2.96511,0.688037 -4.04631,3.227219 l -1.38426,3.202646 c -0.11467,0.278491 -0.24573,0.5406 -0.38497,0.786327 0.12286,-0.4505 0.15562,-1.032054 0.0573,-1.785618 l -0.25392,-1.90849 c -0.20478,-1.629991 0.0491,-2.506419 0.18839,-3.137119 z"
         style="stroke-width:0.360852"
         id="path252" />
      <path
         d="m 106.4592,69.839111 c 1.4416,0 2.65385,-1.957627 2.67842,-3.300937 0.49965,-0.06553 1.07301,-0.376782 1.56447,-0.925573 l -0.0246,-0.04095 c -0.44231,0.466882 -1.02386,0.696227 -1.54808,0.712609 -0.0491,-0.589745 -0.3604,-0.982909 -0.901,-0.982909 -0.90919,0 -1.79381,0.876427 -2.31803,2.023155 -0.61431,1.343309 -0.41773,2.514609 0.5488,2.514609 z m 1.4416,-4.267464 c 0.12286,-0.06553 0.24572,-0.106482 0.3604,-0.106482 0.37678,0 0.48326,0.327637 0.4423,0.778137 -0.37678,-0.0901 -0.67165,-0.311255 -0.8027,-0.671655 z m -1.46618,4.120028 c -0.74537,0 -0.43412,-1.220446 -0.0164,-2.219737 0.31126,-0.769945 0.87643,-1.5317 1.38426,-1.851146 0.0983,0.516028 0.43412,0.827282 0.86005,0.909191 -0.0737,0.384973 -0.22115,0.827282 -0.38497,1.220446 -0.40955,1.007482 -1.25321,1.941246 -1.84296,1.941246 z"
         style="stroke-width:0.360852"
         id="path254" />
      <path
         d="m 111.93892,64.736174 c 0.17201,-0.3604 0.30307,-0.597936 0.40136,-0.688036 l -0.0246,-0.06553 c -0.34401,0.02457 -0.74537,0.303064 -0.90919,0.62251 l -0.40954,0.835472 c -0.31126,-0.0082 -0.62251,-0.02457 -0.90919,-0.04914 l -0.0491,0.147436 c 0.27849,0.02457 0.57337,0.04095 0.88462,0.04915 l -1.13035,2.293455 c -0.60612,1.220445 -0.3522,1.941245 0.68804,1.941245 1.06482,0 1.87572,-0.761754 2.37536,-2.244309 l -0.0819,-0.0082 c -0.42593,1.220446 -1.31874,2.039537 -2.19517,2.039537 -0.80271,0 -0.70442,-0.696228 -0.25392,-1.61361 l 1.18769,-2.408127 c 0.4505,0 0.8928,-0.0082 1.2532,-0.02457 l 0.041,-0.163818 c -0.33583,0.02457 -0.76995,0.04095 -1.22045,0.04095 z"
         style="stroke-width:0.360852"
         id="path256" />
      <path
         d="m 117.38588,65.244011 c -0.20477,0.212963 -0.15563,0.573363 0.49145,0.491454 l -1.02386,2.15421 c -0.55698,1.179491 -1.08939,1.720091 -1.57265,1.720091 -0.5488,0 -0.47508,-0.696228 -0.16382,-1.34331 l 1.07301,-2.178782 c 0.1802,-0.352209 0.31125,-0.597936 0.40954,-0.688036 l -0.0164,-0.05734 c -0.35221,0.02457 -0.76175,0.303064 -0.92557,0.62251 l -0.11467,0.229345 c 0.0246,-0.524218 -0.15563,-0.925573 -0.55699,-0.925573 -0.75356,0 -1.61361,0.8109 -2.12144,1.990391 -0.68804,1.638183 -0.59794,2.563755 0.0655,2.563755 0.42593,0 0.98291,-0.507836 1.52351,-1.326927 -0.28668,0.802709 0,1.326927 0.77814,1.326927 0.67166,0 1.1713,-0.696227 1.76105,-1.900291 l 1.07301,-2.203355 c 0.59793,-0.04095 0.87642,-0.172009 1.04843,0 0.28668,0.245728 0.041,0.966528 -0.8109,2.440892 -0.54879,0.933763 -0.26211,1.662754 0.54879,1.662754 0.83548,0 1.46618,-0.761754 1.95763,-2.244309 l -0.0819,-0.0082 c -0.49964,1.449791 -1.20406,2.039537 -1.7119,2.039537 -0.56517,0 -0.53241,-0.7208 -0.1802,-1.34331 0.89281,-1.5317 1.14673,-2.490036 0.76176,-2.850436 -0.31126,-0.294873 -1.04025,0.0082 -1.60542,0.147436 -0.16382,-0.172009 -0.32764,-0.327636 -0.60613,-0.319445 z m -1.8921,1.064818 -0.49965,1.015673 c -0.68803,1.228636 -1.41702,2.055918 -1.77742,2.055918 -0.37679,0 -0.35221,-0.761754 0.15562,-1.974009 0.4505,-1.056628 1.13854,-1.79381 1.64638,-1.79381 0.28668,0 0.38497,0.245728 0.47507,0.696228 z"
         style="stroke-width:0.360852"
         id="path258" />
      <path
         d="m 122.38233,64.383965 0.10648,0.04914 c 0.22116,-0.3604 0.82729,-0.966527 1.1713,-1.236827 l -0.0573,-0.0901 c -0.66347,-0.03276 -1.23683,0.573364 -1.22045,1.277782 z m -0.37678,1.703709 c 0.15563,-0.319445 0.30306,-0.589745 0.40955,-0.688036 l -0.0164,-0.05734 c -0.31944,0.02457 -0.75356,0.2703 -0.90919,0.62251 l -1.07301,2.195164 c -0.49145,0.9911 -0.23753,1.662754 0.6389,1.662754 0.73718,0 1.36788,-0.761754 1.86752,-2.244309 l -0.0819,-0.0082 c -0.50783,1.449791 -1.21225,2.039537 -1.73647,2.039537 -0.54879,0 -0.47507,-0.696228 -0.15563,-1.34331 z"
         style="stroke-width:0.360852"
         id="path260" />
      <path
         d="m 126.28121,66.087674 c 0.1802,-0.352209 0.31126,-0.597936 0.40955,-0.688036 l -0.0164,-0.05734 c -0.35221,0.02457 -0.76176,0.303064 -0.92558,0.62251 l -0.11467,0.229345 c 0.0246,-0.524218 -0.15563,-0.925573 -0.55698,-0.925573 -0.75357,0 -1.61361,0.8109 -2.12145,1.990391 -0.68803,1.638183 -0.59793,2.563755 0.0655,2.563755 0.42593,0 0.98291,-0.507836 1.52351,-1.326927 -0.28668,0.802709 0,1.326927 0.77814,1.326927 0.72899,0 1.36788,-0.761754 1.85933,-2.244309 l -0.0819,-0.0082 c -0.49964,1.449791 -1.20406,2.039537 -1.72828,2.039537 -0.54879,0 -0.47507,-0.696228 -0.16382,-1.34331 z m -0.69622,0.221155 -0.49965,1.015673 c -0.68804,1.228636 -1.41703,2.055918 -1.77743,2.055918 -0.37678,0 -0.35221,-0.761754 0.15563,-1.974009 0.4505,-1.056628 1.13854,-1.79381 1.64637,-1.79381 0.28668,0 0.38498,0.245728 0.47508,0.696228 z"
         style="stroke-width:0.360852"
         id="path262" />
      <path
         d="m 127.70644,67.611184 1.21225,-2.465464 c 0.7208,-1.466173 1.33512,-2.473655 1.8921,-2.891392 l -0.041,-0.06553 c -0.95834,0.409545 -1.69552,1.425218 -2.38356,2.7931 l -1.2614,2.51461 c -0.82728,1.654564 -0.5406,2.326218 0.29487,2.326218 0.89281,0 1.58904,-0.761754 2.08869,-2.244309 l -0.0819,-0.0082 c -0.50784,1.449791 -1.29417,2.039537 -1.86753,2.039537 -0.6307,0 -0.50784,-0.696228 0.14744,-1.998582 z"
         style="stroke-width:0.360852"
         id="path264" />
      <path
         d="m 133.44827,69.822729 c 0.0164,0 0.0409,0 0.0573,0 0.0983,0 0.19658,-0.01638 0.29487,-0.03276 1.22864,-0.1802 2.04773,-0.843664 2.39175,-2.178782 l -0.0819,-0.04095 c -0.30306,1.105773 -0.95014,1.728282 -1.81019,1.998582 0.53241,-0.409545 0.60613,-1.269591 0.13925,-2.3426 -0.37679,-0.876428 0.12286,-1.752855 1.073,-1.88391 l -0.008,-0.04915 c -0.48326,0 -0.88461,0.131055 -1.17949,0.352209 -0.61432,0.401355 -0.99929,1.089391 -1.3515,1.785619 -0.56517,1.089391 -1.05663,2.178782 -2.30983,2.178782 -0.85186,0 -1.13035,-0.974719 -0.60613,-2.203355 0.48326,-1.138537 1.31873,-2.014964 1.81019,-2.014964 0.32764,0 0.13105,0.647082 -0.22935,1.318736 -0.43411,0.794519 -1.04843,1.449792 -1.75285,1.597228 l 0.008,0.04095 c 1.03205,-0.139246 1.90848,-0.901001 2.38356,-1.875719 0.29487,-0.6307 0.13105,-1.204064 -0.53241,-1.204064 -0.79452,0 -1.6218,0.753564 -2.19517,1.990391 -0.68803,1.507128 -0.22934,2.563755 1.09758,2.563755 1.30236,0 1.8102,-1.187682 2.41632,-2.350791 0.25392,-0.483264 0.51603,-0.958336 0.86005,-1.343309 -0.19658,0.401354 -0.19658,0.901 0.0491,1.4416 0.48327,1.097582 0.18839,1.974009 -0.68803,1.974009 -0.48327,0 -0.68804,-0.3604 -0.47508,-0.892809 l -0.0573,-0.0082 c -0.31945,0.696228 -0.0655,1.179491 0.69623,1.179491 z"
         style="stroke-width:0.360852"
         id="path266" />
    </g>
    <g
       aria-label="María Irupé Leyes"
       id="text342-3"
       style="font-size:39.8954px;font-family:'Gold Lines Trial';-inkscape-font-specification:'Gold Lines Trial';text-align:center;text-anchor:middle;fill-rule:evenodd;stroke:#000000;stroke-width:0.589211">
      <path
         d="m 63.833217,29.945783 c -3.790064,0 -6.901905,1.436235 -9.774374,3.949645 -5.98431,3.431004 -13.404854,10.811654 -17.793349,16.436905 2.074561,-5.02682 3.071946,-9.495105 3.351214,-15.279938 0.718117,0 1.316548,0 1.795293,-0.0399 1.835189,-0.119686 1.47613,-0.758012 -0.07979,-0.718117 -0.797908,0 -1.595816,0.239372 -2.353828,0.598431 h -0.51864 c -9.215838,-0.478745 -13.285169,3.271423 -13.325064,6.662532 0,2.313933 1.875083,4.42839 5.345983,4.867239 -3.311318,5.784833 -7.02159,11.44998 -12.367574,11.410085 -3.191632,-0.0399 -6.024206,-2.074561 -6.064101,-5.505566 0,-3.909749 3.510795,-6.024205 7.181172,-5.744937 l 0.0399,-0.119687 c -3.790063,-0.319163 -7.340754,1.875084 -7.340754,5.90452 0,3.750167 3.151737,5.665147 6.582741,5.625251 6.303473,0 10.293013,-5.744938 13.564436,-11.529771 0.279268,0 0.558536,-0.0399 0.877699,-0.07979 l -0.03989,-0.159582 -0.758013,0.119686 c 2.672992,-4.787448 4.827344,-9.574896 7.300859,-11.210608 -0.319164,6.064101 -3.151737,12.128202 -5.984311,18.192303 0.598431,-0.51864 1.156967,-0.398954 1.635712,-0.398954 3.790063,-5.46567 11.729248,-14.322449 18.311989,-18.47157 -2.553306,2.393724 -4.907134,5.625251 -7.380649,9.495105 -3.191632,4.94703 -5.90452,9.89406 -9.255733,14.761298 0.678221,-0.678221 1.236757,-0.917594 1.954874,-0.398954 3.191632,-4.787448 5.864624,-9.574896 8.93657,-14.362344 4.587971,-7.061486 10.053641,-13.843704 16.157638,-13.843704 4.308703,0 6.383264,2.872469 6.383264,5.744938 h 0.119686 c 0,-2.95226 -2.074561,-5.90452 -6.50295,-5.90452 z M 30.560452,46.302898 c -3.391109,-0.43885 -5.306088,-2.473515 -5.266193,-4.747553 0,-3.311318 4.029436,-6.981695 13.165483,-6.542846 h 0.279267 C 35.78675,36.688106 33.313235,41.51545 30.560452,46.302898 Z M 41.731164,34.533754 c 0.877699,0 0.917595,0.239373 -0.359058,0.359059 -0.398954,0 -0.917594,0.0399 -1.516025,0.0399 0.51864,-0.239372 1.316548,-0.398954 1.875083,-0.398954 z"
         style="font-family:'The Dellgado';-inkscape-font-specification:'The Dellgado';stroke-width:0.589213"
         id="path269" />
      <path
         d="m 57.050973,48.098191 c -0.837803,1.156966 -3.510795,5.146506 -4.94703,5.106611 -0.239372,0 -0.319163,-0.119686 -0.319163,-0.319163 0.0399,-1.156967 4.508181,-7.699813 5.306089,-8.896675 -0.718118,0.638327 -1.236758,0.917595 -1.954875,0.359059 -0.359059,0.558536 -0.917594,1.396339 -1.516025,2.393724 0.359058,-1.077176 0.598431,-2.633096 -0.478745,-2.633096 -3.231528,0 -7.181172,5.585356 -7.061486,8.098766 0.0399,0.718117 0.398954,1.156967 1.196862,1.156967 1.436234,0 3.630481,-2.473515 4.94703,-4.228913 -0.638327,1.236758 -1.117072,2.353829 -1.117072,3.071946 0,0.638326 0.279268,1.156967 0.95749,1.156967 1.595816,0 4.189017,-3.949645 5.106611,-5.186402 z m -9.654687,5.106611 c -0.199477,0 -0.319163,-0.119686 -0.319163,-0.398954 0,-1.715502 4.468285,-8.537616 6.143892,-8.537616 1.117071,0 0.319163,2.473515 -0.0399,3.191632 -0.119686,0.199477 -0.239372,0.359059 -0.359058,0.558536 -0.837804,1.276653 -3.90975,5.186402 -5.425775,5.186402 z"
         style="font-family:'The Dellgado';-inkscape-font-specification:'The Dellgado';stroke-width:0.589213"
         id="path271" />
      <path
         d="m 63.154941,48.098191 c -0.837804,1.156966 -3.510796,5.146506 -4.94703,5.106611 -0.239372,0 -0.319163,-0.119686 -0.319163,-0.319163 0.07979,-2.313933 4.189017,-5.744938 4.189017,-7.540231 0.0399,-1.117071 -1.196862,-1.795293 -1.954875,-2.353829 0.07979,-0.279267 0.159582,-0.51864 0.159582,-0.718117 0,-0.239372 -0.159582,-0.478745 -0.43885,-0.478745 -0.239372,0.0399 -0.398954,0.279268 -0.398954,0.518641 0,0.359058 0.199477,0.598431 0.43885,0.877698 -0.678222,1.675607 -2.51341,4.548076 -3.271423,5.505566 l 0.119686,0.07979 c 0.758013,-0.997385 2.553306,-3.790064 3.271423,-5.505566 0.438849,0.398954 0.95749,0.758013 0.95749,1.356444 -0.0399,1.47613 -3.750168,4.707657 -3.790063,7.580126 0,0.638326 0.319163,1.156967 0.997385,1.156967 1.595816,0 4.189017,-3.949645 5.106611,-5.186402 z"
         style="font-family:'The Dellgado';-inkscape-font-specification:'The Dellgado';stroke-width:0.589213"
         id="path273" />
      <path
         d="m 62.436816,53.204802 c -0.239373,0 -0.319163,-0.119686 -0.279268,-0.319163 0.0399,-1.156967 4.468285,-7.699813 5.266193,-8.896675 -0.678222,0.638327 -1.236758,0.917595 -1.914979,0.359059 -1.077176,1.595816 -4.069331,6.064101 -4.069331,7.859394 0,0.638326 0.279268,1.156967 0.957489,1.156967 1.595816,0 4.189017,-3.949645 5.106612,-5.186402 l -0.119686,-0.07979 c -0.837804,1.156966 -3.4709,5.146506 -4.94703,5.10661 z m 3.670377,-9.654687 h 0.478744 l 1.516026,-1.914979 h -1.396339 z"
         style="font-family:'The Dellgado';-inkscape-font-specification:'The Dellgado';stroke-width:0.589213"
         id="path275" />
      <path
         d="m 76.719407,48.098191 c -0.837803,1.156966 -3.510795,5.146506 -4.947029,5.106611 -0.239373,0 -0.319164,-0.119686 -0.319164,-0.319163 0.0399,-1.156967 4.508181,-7.699813 5.306089,-8.896675 -0.718117,0.638327 -1.236758,0.917595 -1.954875,0.359059 -0.359059,0.558536 -0.917594,1.396339 -1.516025,2.393724 0.359058,-1.077176 0.598431,-2.633096 -0.478745,-2.633096 -3.231527,0 -7.181172,5.585356 -7.061486,8.098766 0.0399,0.718117 0.398954,1.156967 1.196862,1.156967 1.436235,0 3.630482,-2.473515 4.94703,-4.228913 -0.638327,1.236758 -1.117071,2.353829 -1.117071,3.071946 0,0.638326 0.279267,1.156967 0.957489,1.156967 1.595816,0 4.189017,-3.949645 5.106612,-5.186402 z m -9.654687,5.106611 c -0.199477,0 -0.319163,-0.119686 -0.319163,-0.398954 0,-1.715502 4.468285,-8.537616 6.143892,-8.537616 1.117071,0 0.319163,2.473515 -0.0399,3.191632 -0.119686,0.199477 -0.239372,0.359059 -0.359058,0.558536 -0.837804,1.276653 -3.909749,5.186402 -5.425775,5.186402 z"
         style="font-family:'The Dellgado';-inkscape-font-specification:'The Dellgado';stroke-width:0.589213"
         id="path277" />
      <path
         d="m 111.5481,35.052395 c 0.71811,0 1.31655,0 1.79529,-0.0399 1.83519,-0.119686 1.47613,-0.758012 -0.0399,-0.718117 -0.8378,0 -1.63571,0.239372 -2.39372,0.598431 h -0.51864 c -9.21584,-0.478745 -13.285168,3.271423 -13.325064,6.662532 0,2.313933 1.875084,4.42839 5.345984,4.867239 -3.311318,5.784833 -7.02159,11.44998 -12.367574,11.410085 -3.191632,-0.0399 -6.024206,-2.074561 -6.024206,-5.505566 -0.0399,-3.909749 3.4709,-6.024205 7.141277,-5.744937 l 0.0399,-0.119687 c -3.790063,-0.319163 -7.340753,1.875084 -7.340753,5.90452 0,3.750167 3.151736,5.665147 6.582741,5.625251 6.303473,0 10.293005,-5.744938 13.564435,-11.529771 0.27926,0 0.55853,-0.0399 0.8777,-0.07979 l -0.0399,-0.159582 -0.75801,0.119686 c 2.71288,-4.907134 4.90713,-9.774373 7.46044,-11.290398 z m -9.05626,11.250503 c -3.391108,-0.43885 -5.266192,-2.473515 -5.266192,-4.747553 0,-3.311318 4.029432,-6.981695 13.165482,-6.542846 h 0.27927 c -2.95226,1.675607 -5.42578,6.502951 -8.17856,11.290399 z m 9.29563,-11.37019 c 0.51864,-0.239372 1.31655,-0.398954 1.87508,-0.398954 0.8777,0 0.9176,0.239373 -0.35906,0.359059 -0.39895,0 -0.91759,0.0399 -1.51602,0.0399 z"
         style="font-family:'The Dellgado';-inkscape-font-specification:'The Dellgado';stroke-width:0.589213"
         id="path279" />
      <path
         d="m 111.54804,48.098191 c -0.83781,1.156966 -3.5108,5.146506 -4.94703,5.106611 -0.23937,0 -0.31917,-0.119686 -0.31917,-0.319163 0.0798,-2.313933 4.18902,-5.744938 4.18902,-7.540231 0.0399,-1.117071 -1.19686,-1.795293 -1.95487,-2.353829 0.0798,-0.279267 0.15958,-0.51864 0.15958,-0.718117 0,-0.239372 -0.15958,-0.478745 -0.43885,-0.478745 -0.23937,0.0399 -0.39895,0.279268 -0.39895,0.518641 0,0.359058 0.19947,0.598431 0.43884,0.877698 -0.67822,1.675607 -2.51341,4.548076 -3.27142,5.505566 l 0.11969,0.07979 c 0.75801,-0.997385 2.5533,-3.790064 3.27142,-5.505566 0.43885,0.398954 0.95749,0.758013 0.95749,1.356444 -0.0399,1.47613 -3.75017,4.707657 -3.79006,7.580126 0,0.638326 0.31916,1.156967 0.99738,1.156967 1.59582,0 4.18902,-3.949645 5.10661,-5.186402 z"
         style="font-family:'The Dellgado';-inkscape-font-specification:'The Dellgado';stroke-width:0.589213"
         id="path281" />
      <path
         d="m 121.20272,48.098191 c -0.83781,1.156966 -3.5108,5.146506 -4.94703,5.106611 -0.23938,0 -0.31917,-0.119686 -0.31917,-0.319163 0.0399,-1.156967 4.50818,-7.699813 5.30609,-8.896675 -0.71811,0.638327 -1.23676,0.917595 -1.95487,0.359059 -0.59843,0.917594 -1.7953,2.712887 -2.71289,4.42839 -1.11707,1.516025 -3.07195,4.468284 -5.06672,4.428389 -0.35905,-0.0399 -0.67822,-0.199477 -0.67822,-0.638326 0,-1.276653 3.98954,-7.141277 4.98693,-8.577512 -0.71812,0.638327 -1.23676,0.917595 -1.95488,0.359059 -1.03728,1.595816 -3.98954,5.904519 -3.98954,7.620022 0,0.877698 0.63833,1.396339 1.47613,1.396339 2.03467,0 3.67038,-2.154352 4.70766,-3.630482 -0.47874,0.997385 -0.79791,1.875084 -0.79791,2.473515 0,0.638326 0.27927,1.156967 0.95749,1.156967 1.59582,0 4.18902,-3.949645 5.10661,-5.186402 z"
         style="font-family:'The Dellgado';-inkscape-font-specification:'The Dellgado';stroke-width:0.589213"
         id="path283" />
      <path
         d="m 130.73774,48.098191 c -1.23676,1.715502 -3.4709,5.106611 -5.82473,5.146506 -0.43885,0 -0.8378,-0.239372 -0.8378,-0.718117 0,-1.316548 1.83519,-2.034665 3.35121,-3.391109 1.63571,-1.396339 2.27404,-2.553305 2.27404,-3.4709 -0.0399,-0.957489 -0.75801,-1.55592 -1.59582,-1.55592 -1.15696,0 -3.39111,1.635711 -4.78744,3.191632 0.91759,-1.516025 1.91497,-2.992155 2.91236,-4.468285 -0.71812,0.638326 -1.23676,0.917594 -1.95488,0.359058 -4.02943,6.103997 -7.50033,12.527156 -11.68935,18.551362 0.71812,-0.638327 1.23676,-0.917594 1.95488,-0.359059 2.87247,-4.268808 5.42577,-8.697197 8.13866,-13.045796 1.15697,-1.675607 4.10922,-4.069331 5.30609,-4.069331 0.43885,0 0.75801,0.279268 0.75801,0.797908 0,0.678222 -0.51864,1.675607 -2.07456,2.912365 -1.47613,1.196862 -3.27142,2.194247 -3.27142,3.909749 0,0.877699 0.55853,1.47613 1.43623,1.47613 2.51341,0 4.66776,-3.351214 6.02421,-5.186402 z"
         style="font-family:'The Dellgado';-inkscape-font-specification:'The Dellgado';stroke-width:0.589213"
         id="path285" />
      <path
         d="m 136.92154,48.098191 0.11969,0.07979 c -1.39634,1.914979 -3.86985,5.425774 -6.58274,5.385879 -0.79791,0 -1.43623,-0.398954 -1.43623,-1.47613 -0.0399,-2.473515 4.18901,-7.97908 6.98169,-7.97908 0.8777,0 0.91759,1.03728 0.51864,1.795293 -0.8378,1.595816 -2.87247,2.154351 -4.54807,2.792678 -1.15697,1.795293 -1.95488,3.351213 -1.95488,4.109226 0,0.319163 0.23937,0.558536 0.67822,0.558536 2.43362,0 4.90714,-3.510796 6.22368,-5.266192 z m -0.8378,-3.829959 c -0.75801,0 -2.5932,2.154352 -3.94964,4.228913 1.55592,-0.598431 3.4709,-1.196862 4.2688,-2.672992 0.35906,-0.678222 0.27927,-1.555921 -0.31916,-1.555921 z m -0.55853,-0.718117 h 0.47874 l 1.51603,-1.914979 h -1.39634 z"
         style="font-family:'The Dellgado';-inkscape-font-specification:'The Dellgado';stroke-width:0.589213"
         id="path287" />
      <path
         d="m 162.53443,56.476225 c -2.15435,2.074561 -8.25835,-0.558536 -13.48464,-2.114456 2.15435,-2.393724 4.06933,-5.744938 5.94441,-8.976466 0.47875,0.0399 0.95749,0.07979 1.43624,0.07979 7.85939,-0.0399 12.72663,-5.98431 12.64684,-9.335524 -0.0399,-1.516025 -1.07718,-2.393724 -2.47352,-2.393724 -6.14389,-0.0399 -10.17332,6.582742 -12.966,11.210608 -4.02944,-1.117071 -6.38327,-4.787448 -3.71027,-9.215838 l -0.11969,-0.03989 c -2.71289,4.468285 -0.35906,8.218453 3.75017,9.375419 -1.87509,3.231528 -3.67038,6.542846 -5.62525,8.976466 -1.43624,-0.359059 -2.79268,-0.638327 -3.90975,-0.638327 -2.91237,0 -4.22892,1.396339 -4.22892,2.672992 0,0.997385 0.83781,1.914979 2.39373,1.914979 2.35383,0.07979 4.38849,-1.077176 6.22368,-2.952259 5.10661,2.034665 11.09092,5.306088 14.20276,1.516025 z m -7.46044,-11.250503 c 2.27404,-3.829959 6.42316,-11.330294 11.60956,-11.290399 1.31655,0 2.23415,0.837804 2.23415,2.194247 0.0798,3.271423 -4.74756,9.136047 -12.48726,9.175943 -0.43885,0 -0.9176,0 -1.35645,-0.07979 z m -7.65991,9.45521 c -1.59582,1.835188 -3.31132,3.071946 -5.2263,3.151737 -1.47613,0 -2.23414,-0.797908 -2.23414,-1.715503 0,-1.117071 1.11707,-2.353828 3.35121,-2.393724 1.19686,0 2.5932,0.398954 4.10923,0.95749 z"
         style="font-family:'The Dellgado';-inkscape-font-specification:'The Dellgado';stroke-width:0.589213"
         id="path289" />
      <path
         d="m 163.73128,48.098191 c -1.31655,1.755397 -3.79006,5.266193 -6.22368,5.266193 -0.43885,0 -0.67822,-0.239373 -0.67822,-0.558536 0,-0.758013 0.79791,-2.313933 1.95487,-4.109226 1.67561,-0.638327 3.71028,-1.196862 4.54808,-2.792678 0.39895,-0.758013 0.35906,-1.795293 -0.51864,-1.795293 -2.79268,0 -7.02159,5.505565 -6.9817,7.97908 0,1.077176 0.63833,1.47613 1.43624,1.47613 2.71289,0.03989 5.1864,-3.4709 6.58274,-5.385879 z m -0.8378,-3.829959 c 0.59843,0 0.67822,0.877699 0.31916,1.555921 -0.79791,1.47613 -2.71288,2.074561 -4.26881,2.672992 1.35645,-2.074561 3.19164,-4.228913 3.94965,-4.228913 z"
         style="font-family:'The Dellgado';-inkscape-font-specification:'The Dellgado';stroke-width:0.589213"
         id="path291" />
      <path
         d="m 167.56128,52.805848 c 1.91498,-4.94703 4.22891,-8.896674 5.46567,-9.45521 l -0.0399,-0.119686 c -1.31655,0.558535 -2.95226,3.151737 -4.38849,5.744938 -1.11707,1.55592 -2.99216,4.268807 -4.90714,4.228912 -0.35906,-0.0399 -0.67822,-0.199477 -0.67822,-0.638326 0,-1.276653 3.98954,-7.141277 4.98693,-8.577512 -0.71812,0.638327 -1.23676,0.917595 -1.95488,0.359059 -1.03728,1.595816 -3.98954,5.904519 -3.98954,7.620022 0,0.877698 0.63833,1.396339 1.47613,1.396339 1.83519,0 3.39111,-1.795293 4.42839,-3.231528 -0.71812,1.276653 -1.31655,2.473515 -1.79529,3.351214 -3.55069,1.516025 -9.97385,2.672992 -9.97385,6.582741 0,1.396339 1.11707,2.473515 2.71288,2.473515 4.86724,0 6.82212,-5.106611 8.53762,-9.535001 h 0.0399 c 2.31393,-1.236757 4.02943,-2.712887 5.46567,-4.827343 l -0.11969,-0.07979 c -1.39634,2.074561 -3.03205,3.4709 -5.26619,4.707656 z m -8.65731,9.574896 c -1.43623,0 -2.5533,-0.917594 -2.5533,-2.313933 0,-3.710272 6.18379,-4.94703 9.69458,-6.383264 -2.75278,4.907134 -4.38849,8.697197 -7.14128,8.697197 z"
         style="font-family:'The Dellgado';-inkscape-font-specification:'The Dellgado';stroke-width:0.589213"
         id="path293" />
      <path
         d="m 179.01128,48.098191 c -1.31655,1.755397 -3.79006,5.266193 -6.22368,5.266193 -0.43885,0 -0.67822,-0.239373 -0.67822,-0.558536 0,-0.758013 0.79791,-2.313933 1.95487,-4.109226 1.67561,-0.638327 3.71027,-1.196862 4.54808,-2.792678 0.39895,-0.758013 0.35906,-1.795293 -0.51864,-1.795293 -2.79268,0 -7.02159,5.505565 -6.9817,7.97908 0,1.077176 0.63833,1.47613 1.43624,1.47613 2.71288,0.03989 5.1864,-3.4709 6.58274,-5.385879 z m -0.8378,-3.829959 c 0.59843,0 0.67822,0.877699 0.31916,1.555921 -0.79791,1.47613 -2.71289,2.074561 -4.26881,2.672992 1.35645,-2.074561 3.19164,-4.228913 3.94965,-4.228913 z"
         style="font-family:'The Dellgado';-inkscape-font-specification:'The Dellgado';stroke-width:0.589213"
         id="path295" />
      <path
         d="m 178.33308,50.890869 c 0,1.795293 1.43623,2.51341 2.83257,2.51341 1.67561,-0.0399 3.5108,-1.316548 3.5108,-3.391109 0,-2.274038 -2.39373,-3.869854 -2.6331,-5.625252 0.83781,-1.117071 1.39634,-1.954874 1.39634,-2.234142 0,-0.199477 -0.19948,-0.359059 -0.35906,-0.359059 -1.03728,0 -1.31655,1.835189 -1.27665,2.672992 -1.19686,1.635712 -2.79268,3.590586 -3.23153,4.228913 l 0.11969,0.07979 c 0.47874,-0.638327 1.95487,-2.513411 3.11184,-4.109227 0.19948,1.715503 1.51603,3.351214 1.51603,5.345984 0,1.99477 -1.39634,3.03205 -2.673,3.03205 -1.03728,0 -2.15435,-0.678221 -2.15435,-2.154351 -0.0399,-0.758013 0.39896,-1.635712 1.03728,-2.274038 l -0.11968,-0.119686 c -0.67823,0.718117 -1.07718,1.595816 -1.07718,2.393725 z"
         style="font-family:'The Dellgado';-inkscape-font-specification:'The Dellgado';stroke-width:0.589213"
         id="path297" />
    </g>
  </g>
</svg>
