<?xml version="1.0" encoding="UTF-8" standalone="no"?>
<!-- Created with Inkscape (http://www.inkscape.org/) -->

<svg
   width="149.99998mm"
   height="48.199936mm"
   viewBox="0 0 149.99998 48.199936"
   version="1.1"
   id="svg470"
   xmlns="http://www.w3.org/2000/svg"
   xmlns:svg="http://www.w3.org/2000/svg">
  <defs
     id="defs467" />
  <g
     id="layer1"
     transform="translate(-10.215669,-24.884712)">
    <path
       d="m 65.848278,73.019389 c -2.141222,-0.407759 -4.149834,-1.346578 -7.313177,-3.418166 -2.476681,-1.621905 -4.511772,-2.746847 -4.969227,-2.746847 -0.163425,0 -0.368249,0.32946 -0.455163,0.732144 -1.202965,5.573304 -9.500673,6.611426 -13.908936,1.740134 -1.54601,-1.708393 -2.31047,-3.122447 -2.869301,-5.307453 -0.748452,-2.926412 -0.494239,-5.436978 0.811432,-8.013598 0.544368,-1.074257 2.347325,-3.562575 2.347325,-3.239611 0,0.07935 0.329464,-0.102682 0.732141,-0.40459 1.264715,-0.948211 2.476535,-1.443453 4.269012,-1.744646 1.512694,-0.254169 1.955977,-0.243449 3.463943,0.08378 1.494929,0.324412 3.89173,1.394079 3.654737,1.631074 -0.04418,0.04419 -0.482975,-0.01303 -0.975098,-0.127118 -3.358052,-0.778564 -7.5459,0.424582 -9.984272,2.868413 -3.258869,3.266166 -3.845343,7.780596 -1.566278,12.056559 1.534753,2.8795 4.229556,4.513504 7.501943,4.548838 2.380058,0.02571 3.61577,-0.45227 4.920181,-1.903089 0.873817,-0.97189 1.687668,-2.808389 1.38062,-3.11544 -0.05308,-0.05304 -0.630794,-0.183227 -1.283822,-0.289239 -1.283996,-0.208422 -2.185474,-0.09309 -3.158468,0.404114 -0.340728,0.174109 -0.619504,0.257574 -0.619504,0.185475 0,-0.07212 0.460865,-0.334952 1.024145,-0.584114 0.751482,-0.332424 1.426211,-0.439636 2.534331,-0.402718 l 1.510187,0.05032 -0.07107,-0.638069 c -0.09088,-0.815908 -0.60836,-1.840501 -1.362609,-2.697915 l -0.593785,-0.675005 0.649318,0.562369 c 0.667419,0.578044 1.709942,2.520529 1.713857,3.193345 0.0015,0.262827 0.37117,0.48551 1.211318,0.729752 0.665015,0.193325 2.757399,1.117637 4.649742,2.054022 3.897949,1.928828 5.736865,2.464139 7.819956,2.276398 2.626906,-0.23674 4.957186,-1.753399 5.413832,-3.523581 l 0.203398,-0.788457 0.376664,0.720948 c 0.48087,0.920386 0.469197,1.535851 -0.0504,2.658162 -0.532194,1.149481 -1.435594,1.993273 -2.762086,2.579831 -1.05722,0.467486 -3.202739,0.742438 -4.244866,0.543979 z m 35.758732,-0.0897 c -1.962796,-0.491931 -3.451562,-1.653578 -4.095796,-3.195832 -0.437413,-1.047131 -0.436842,-1.336812 0.0043,-2.379856 l 0.35451,-0.837534 0.304462,0.872987 c 0.884065,2.534885 4.394434,4.004452 7.889504,3.30284 0.76972,-0.154518 3.03645,-1.07613 5.28927,-2.15054 2.16826,-1.034087 4.36548,-1.990685 4.8827,-2.125789 0.80111,-0.20924 0.96369,-0.353472 1.09755,-0.973661 0.24112,-1.117229 0.8845,-2.235445 1.71474,-2.980301 l 0.75278,-0.675353 -0.70692,0.787989 c -0.85457,0.95257 -1.37913,1.952378 -1.47475,2.8109 l -0.0711,0.638069 1.51019,-0.05032 c 1.10812,-0.03695 1.78285,0.07033 2.53433,0.402718 0.56328,0.249162 1.02415,0.512015 1.02415,0.584114 0,0.07212 -0.27878,-0.01141 -0.61951,-0.185475 -0.97299,-0.497201 -1.87447,-0.612536 -3.15847,-0.404114 -0.65303,0.106012 -1.23075,0.236161 -1.28382,0.289239 -0.053,0.05304 0.0119,0.523689 0.14447,1.045819 0.31075,1.224262 1.70077,2.797056 3.06135,3.463905 1.47765,0.724217 4.32456,0.719151 6.19175,-0.01098 2.51823,-0.984772 4.65459,-3.599648 5.45661,-6.678834 1.17503,-4.511245 -1.00576,-9.265769 -5.15959,-11.248849 -2.38262,-1.137484 -5.25461,-1.533526 -7.44239,-1.026295 -0.49212,0.1141 -0.93092,0.171299 -0.9751,0.127118 -0.23699,-0.236987 2.15981,-1.306654 3.65474,-1.631074 2.71772,-0.589759 5.53942,0.01626 7.73295,1.660857 0.40268,0.301908 0.73214,0.483969 0.73214,0.40459 0,-0.315088 1.86802,2.242911 2.37492,3.252135 2.16816,4.31672 1.34102,9.626538 -2.07423,13.315415 -3.2817,3.544637 -8.88237,4.169603 -12.0942,1.349575 -0.95194,-0.835813 -1.45705,-1.696856 -1.81567,-3.095048 l -0.24515,-0.955874 -1.46429,0.739288 c -0.80535,0.406608 -2.478,1.407702 -3.71701,2.224657 -2.56432,1.690803 -3.7415,2.317208 -5.47632,2.914068 -1.49236,0.513455 -3.69559,0.70466 -4.83347,0.419474 z M 14.665421,62.395849 c -2.623432,-0.95303 -4.46107,-3.158716 -4.4497,-5.340886 0.0032,-0.619508 0.150744,-1.379808 0.327814,-1.689558 0.321759,-0.562854 0.32195,-0.562684 0.329927,0.292781 0.01005,1.07767 0.413637,1.851023 1.510016,2.893487 1.527469,1.452359 3.056667,2.023191 5.419937,2.023191 2.948231,0 4.565324,-0.877934 9.410389,-5.108982 3.497305,-3.054093 5.180356,-3.793022 8.330086,-3.657236 1.305225,0.05628 2.314646,0.225824 2.820972,0.473854 0.433653,0.212423 0.585712,0.322462 0.337911,0.244513 -0.929568,-0.292389 -2.969766,-0.430567 -4.131061,-0.279788 -2.179345,0.282964 -3.479018,1.134384 -7.019997,4.598806 -1.796559,1.757716 -3.869028,3.615551 -4.605484,4.128528 -2.447552,1.704816 -5.879056,2.293792 -8.28081,1.42129 z M 149.98557,62.272367 c -2.02042,-0.751386 -3.2584,-1.696541 -6.98098,-5.329707 -3.65845,-3.570578 -4.93341,-4.409891 -7.13264,-4.695435 -1.16129,-0.150779 -3.20149,-0.0126 -4.13105,0.279788 -0.24781,0.07791 -0.0958,-0.02844 0.3379,-0.236433 0.48514,-0.232679 1.56844,-0.416187 2.81593,-0.477022 3.24475,-0.158221 4.69283,0.510355 8.89831,4.108375 3.09298,2.646198 3.86131,3.207758 5.33091,3.896232 1.17068,0.548448 1.57376,0.615907 3.68006,0.615907 2.14606,0 2.4698,-0.05671 3.49174,-0.611488 1.46784,-0.796869 1.97338,-1.228893 2.68229,-2.292191 0.38464,-0.576928 0.58727,-1.192503 0.5932,-1.802194 l 0.009,-0.92598 0.35356,0.65285 c 0.24483,0.452066 0.32495,1.048347 0.26054,1.938857 -0.1588,2.195401 -2.04695,4.292836 -4.559,5.064333 -1.62581,0.499312 -4.01905,0.420572 -5.64978,-0.185892 z M 70.804308,60.67621 c -2.37963,-0.52792 -4.413634,-1.315722 -7.208769,-2.792091 -4.306065,-2.274414 -5.232437,-2.707348 -6.552857,-3.062377 -0.759018,-0.204079 -1.000728,-0.333377 -0.640476,-0.342607 0.950599,-0.02435 2.821102,0.623127 5.850588,2.025209 8.32775,3.854172 14.250554,3.885386 18.223296,0.09603 1.7672,-1.685625 2.349305,-3.014246 2.367015,-5.402538 0.0109,-1.472214 -0.07808,-1.956873 -0.485911,-2.646973 -0.655736,-1.109523 -0.378026,-1.069472 0.780948,0.112644 1.125027,1.147496 1.633143,2.467841 1.633143,4.243751 0,3.590425 -2.744113,6.667736 -6.914395,7.753955 -1.541546,0.401526 -5.274509,0.409461 -7.052582,0.01498 z m 21.685885,-0.02622 c -4.088579,-1.101102 -6.817807,-4.19585 -6.817807,-7.730898 0,-1.805898 0.529836,-3.196052 1.635278,-4.290555 0.512407,-0.507332 1.000293,-0.922421 1.084202,-0.922421 0.08387,0 -0.06284,0.430831 -0.326055,0.957415 -0.730475,1.461273 -0.665043,3.945922 0.147655,5.607025 1.193984,2.440409 3.897884,4.400483 6.831618,4.952286 2.878358,0.541381 7.670086,-0.285076 11.465136,-1.977453 4.29719,-1.916319 6.01668,-2.56802 7.02971,-2.664308 0.59408,-0.05645 0.8774,-0.05083 0.6296,0.0126 -1.4142,0.361823 -3.37022,1.180013 -4.92694,2.060909 -4.09546,2.317496 -6.61321,3.362472 -9.674272,4.015271 -1.919726,0.409393 -5.521755,0.399286 -7.078125,-0.01984 z M 62.17873,55.491978 c -1.391802,-0.491181 -3.302985,-1.52903 -7.030962,-3.818071 -2.793982,-1.715553 -7.054062,-2.544104 -9.573836,-1.862024 -1.671468,0.452441 -1.739102,0.273198 -0.08084,-0.214245 1.872871,-0.550517 4.906579,-0.503493 7.140647,0.110694 0.971397,0.267051 3.100235,1.13504 4.730752,1.928861 1.630517,0.793822 3.623418,1.662884 4.428671,1.931254 3.136128,1.04518 6.618288,0.199047 8.232348,-2.00039 0.43571,-0.593735 0.778248,-1.338242 0.792195,-1.721844 l 0.02461,-0.675822 0.418835,0.90867 c 0.322632,0.699952 0.374867,1.103631 0.227408,1.757435 -0.771803,3.42208 -5.126329,5.131877 -9.309785,3.655482 z m 40.44499,0.125799 c -2.743319,-0.947709 -4.448246,-3.765479 -3.429793,-5.668482 0.270874,-0.506123 0.280163,-0.500964 0.55933,0.311087 0.747673,2.174839 2.788223,3.521808 5.609553,3.702864 2.13771,0.137191 3.46069,-0.254483 7.46396,-2.209747 1.7395,-0.849607 3.96971,-1.766579 4.95603,-2.037725 2.26192,-0.621824 5.28474,-0.671642 7.16777,-0.118136 1.6581,0.487392 1.59061,0.666558 -0.0808,0.214603 -2.5442,-0.687955 -6.75501,0.130856 -9.57383,1.861666 -5.82987,3.579637 -7.62491,4.359495 -10.02469,4.355229 -0.82269,-0.0017 -1.98272,-0.181703 -2.64749,-0.411359 z M 55.218166,54.310442 c 0.162619,-0.06505 0.356919,-0.05705 0.431776,0.01779 0.07486,0.07484 -0.0582,0.128106 -0.295673,0.118323 -0.262432,-0.01081 -0.315811,-0.0642 -0.136103,-0.136101 z m 59.697584,0 c 0.16262,-0.06505 0.35692,-0.05705 0.43178,0.01779 0.0748,0.07484 -0.0582,0.128106 -0.29568,0.118323 -0.26243,-0.01081 -0.31581,-0.0642 -0.1361,-0.136101 z"
       style="fill:#808080;stroke:none;stroke-width:0.225274"
       id="path460" />
    <g
       aria-label="Servicios Notariales"
       id="text342"
       style="font-size:6.83035px;font-family:'Gold Lines Trial';-inkscape-font-specification:'Gold Lines Trial';text-align:center;text-anchor:middle;fill-rule:evenodd;stroke:#000000;stroke-width:0.300911"
       transform="matrix(0.85142894,0,0,0.85142894,1.5177527,3.6971481)">
      <path
         d="m 68.62346,71.530341 c -1.113347,0.02049 -1.980801,0.812812 -1.912498,1.769061 0.04781,0.717186 0.751339,1.215802 1.721249,1.215802 1.236293,0 2.090087,-0.471294 2.534059,-1.379731 1.140669,-2.329149 -2.677497,-2.643345 -1.782721,-4.603656 0.39616,0.19125 0.867455,0.321027 1.372901,0.368839 1.038213,0.09562 1.892006,-0.307366 1.987631,-0.949418 0.08196,-0.532768 -0.471294,-0.928928 -1.297766,-0.928928 -0.963079,0 -1.898837,0.505446 -2.33598,1.229463 -0.491785,-0.307366 -0.771829,-0.724017 -0.730847,-1.208972 l -0.0683,-0.01366 c -0.05464,0.525937 0.245893,0.983571 0.744508,1.318258 -0.0068,0.02049 -0.02049,0.03415 -0.02732,0.05464 -1.045044,2.172051 2.793613,2.506738 1.769061,4.658298 -0.348348,0.758169 -1.290937,1.325088 -2.178882,1.325088 -0.78549,0 -1.393391,-0.464464 -1.454865,-1.133838 -0.07513,-0.881115 0.655714,-1.605132 1.673436,-1.652945 z m 1.93982,-2.759461 c -0.505446,-0.06147 -0.956249,-0.17759 -1.325088,-0.348348 0.3825,-0.703526 1.311427,-1.270445 2.096917,-1.270445 0.560089,0 0.949419,0.362008 0.881116,0.812811 -0.07513,0.539598 -0.833303,0.908437 -1.652945,0.805982 z"
         style="stroke-width:0.300912"
         id="path1124" />
      <path
         d="m 75.337699,69.897887 c -0.170759,0.177589 -0.129777,0.478125 0.409821,0.409821 l -0.833303,1.741739 c -0.38933,0.819642 -1.017722,1.489017 -1.74857,1.489017 -0.710356,0 -0.942588,-0.812812 -0.505446,-1.837364 0.402991,-0.949419 1.099687,-1.680266 1.509508,-1.680266 0.273214,0 0.109285,0.539597 -0.19125,1.099686 -0.362009,0.662544 -0.874285,1.208972 -1.461695,1.331918 l 0.0068,0.03415 c 0.860625,-0.116116 1.591472,-0.751339 1.987632,-1.56415 0.245893,-0.525937 0.109286,-1.004062 -0.443972,-1.004062 -0.662544,0 -1.35241,0.628392 -1.830534,1.659775 -0.57375,1.256785 -0.19125,2.1379 0.915267,2.1379 0.799151,0 1.420712,-0.683035 1.871516,-1.611963 l 0.881115,-1.810042 c 0.498615,-0.03415 0.730847,-0.143438 0.874284,0 0.239063,0.20491 0.03415,0.805981 -0.676204,2.035444 -0.457634,0.77866 -0.218571,1.386561 0.457633,1.386561 0.696696,0 1.222633,-0.635223 1.632454,-1.871516 l -0.0683,-0.0068 c -0.416651,1.208972 -1.004061,1.700757 -1.427543,1.700757 -0.471294,0 -0.443973,-0.601071 -0.150267,-1.120178 0.744508,-1.277275 0.956249,-2.076426 0.635222,-2.376961 -0.259553,-0.245893 -0.867454,0.0068 -1.338748,0.122946 -0.136607,-0.143437 -0.273214,-0.273214 -0.505446,-0.266384 z"
         style="stroke-width:0.300912"
         id="path1126" />
      <path
         d="m 79.285641,69.863735 c -0.143437,0 -0.355178,0.09562 -0.505445,0.218572 l 0.01366,0.04098 c 0.06147,-0.04781 0.143438,-0.08196 0.19808,-0.08196 0.218572,0 0.252723,0.273214 0.150268,0.635222 -0.273214,1.004062 -1.413882,3.039506 -0.676205,3.039506 1.147499,0 2.390623,-1.413883 2.90973,-3.203434 0.122946,0.06147 0.286874,0.09562 0.450803,0.09562 0.232232,0 0.464463,-0.0683 0.58741,-0.204911 l -0.02732,-0.04781 c -0.116116,0.08879 -0.314196,0.129776 -0.519106,0.129776 -0.163929,0 -0.334687,-0.02732 -0.464464,-0.07513 0.04781,-0.163928 0.08196,-0.341517 0.116116,-0.512276 -0.04781,-0.02732 -0.116116,-0.04098 -0.18442,-0.04098 -0.184419,0 -0.416651,0.08196 -0.525937,0.218571 0.08196,0.09562 0.163929,0.19808 0.293706,0.321027 -0.163929,1.120177 -1.564151,3.1283 -2.294998,3.1283 -0.471294,0 0.512276,-1.707587 0.78549,-2.793613 0.122947,-0.498616 0.08196,-0.867455 -0.307366,-0.867455 z"
         style="stroke-width:0.300912"
         id="path1128" />
      <path
         d="m 83.274566,69.180701 0.0888,0.04098 c 0.184419,-0.300536 0.689865,-0.805982 0.97674,-1.031383 l -0.04781,-0.07513 c -0.553258,-0.02732 -1.031383,0.478124 -1.017722,1.065535 z m -0.314196,1.420712 c 0.129777,-0.266383 0.252723,-0.491785 0.341517,-0.573749 l -0.01366,-0.04781 c -0.266384,0.02049 -0.628393,0.225402 -0.758169,0.519107 l -0.894776,1.830534 c -0.409821,0.826472 -0.19808,1.386561 0.532767,1.386561 0.614732,0 1.140669,-0.635223 1.55732,-1.871516 l -0.0683,-0.0068 c -0.423482,1.208972 -1.010892,1.700757 -1.448035,1.700757 -0.457633,0 -0.39616,-0.58058 -0.129776,-1.120178 z"
         style="stroke-width:0.300912"
         id="path1130" />
      <path
         d="m 84.674793,73.538464 c -0.710356,0 -0.928928,-0.812812 -0.491785,-1.837364 0.409821,-0.949419 1.072365,-1.680266 1.489016,-1.680266 0.300535,0 0.157098,0.648883 -0.19808,1.454864 l 0.04781,0.03415 c 0.143438,-0.08196 0.348348,-0.18442 0.498616,-0.280045 0.314196,-0.812811 0.150268,-1.311427 -0.443973,-1.311427 -0.662544,0 -1.345579,0.628392 -1.823703,1.659775 -0.546428,1.215803 -0.163929,2.1379 0.901606,2.1379 0.819642,0 1.550489,-0.77183 1.912498,-1.871516 l -0.0683,-0.0068 c -0.327856,0.949418 -1.058704,1.700757 -1.823703,1.700757 z"
         style="stroke-width:0.300912"
         id="path1132" />
      <path
         d="m 87.864566,69.180701 0.0888,0.04098 c 0.184419,-0.300536 0.689865,-0.805982 0.97674,-1.031383 l -0.04781,-0.07513 c -0.553258,-0.02732 -1.031383,0.478124 -1.017722,1.065535 z m -0.314196,1.420712 c 0.129777,-0.266383 0.252723,-0.491785 0.341518,-0.573749 l -0.01366,-0.04781 c -0.266384,0.02049 -0.628392,0.225402 -0.758169,0.519107 l -0.894776,1.830534 c -0.409821,0.826472 -0.19808,1.386561 0.532767,1.386561 0.614732,0 1.140669,-0.635223 1.55732,-1.871516 l -0.0683,-0.0068 c -0.423482,1.208972 -1.010892,1.700757 -1.448034,1.700757 -0.457634,0 -0.396161,-0.58058 -0.129777,-1.120178 z"
         style="stroke-width:0.300912"
         id="path1134" />
      <path
         d="m 88.77301,73.729714 c 1.229463,0 2.233524,-1.673436 2.233524,-2.814105 0.464464,0.04781 1.004062,-0.0683 1.468525,-0.362008 -0.20491,0.341517 -0.225401,0.799151 -0.0068,1.284106 0.409821,0.915267 0.157098,1.646114 -0.573749,1.646114 -0.402991,0 -0.57375,-0.300535 -0.396161,-0.744508 l -0.04781,-0.0068 c -0.266384,0.58058 -0.05464,0.983571 0.58058,0.983571 0.102455,0 0.19125,-0.0068 0.293705,-0.02732 1.024552,-0.150267 1.707587,-0.703526 1.994462,-1.816873 l -0.0683,-0.03415 c -0.252723,0.922097 -0.79232,1.441203 -1.509507,1.666605 0.443973,-0.341517 0.505446,-1.058704 0.116116,-1.95348 -0.314196,-0.730848 0.102455,-1.461695 0.894776,-1.570981 l -0.0068,-0.04098 c -0.491786,0 -0.881116,0.157098 -1.127008,0.416652 -0.471294,0.300535 -1.106517,0.409821 -1.632454,0.334687 -0.06147,-0.443973 -0.314196,-0.744508 -0.737678,-0.744508 -0.758168,0 -1.495846,0.730847 -1.932989,1.687096 -0.512276,1.120178 -0.348347,2.096918 0.457634,2.096918 z m 1.290936,-3.606425 c 0.07513,-0.02732 0.143437,-0.04098 0.211741,-0.04098 0.280044,0 0.375669,0.218571 0.375669,0.525937 -0.273214,-0.09562 -0.491785,-0.259554 -0.58741,-0.484955 z m -1.311427,3.483478 c -0.621562,0 -0.362009,-1.017722 -0.01366,-1.851025 0.280044,-0.683035 0.792321,-1.359239 1.243124,-1.591471 0.08196,0.334687 0.321026,0.553258 0.648883,0.669374 -0.04781,0.355178 -0.184419,0.77866 -0.341518,1.154329 -0.348347,0.840133 -1.045043,1.618793 -1.536829,1.618793 z"
         style="stroke-width:0.300912"
         id="path1136" />
      <path
         d="m 102.85719,67.097444 c -0.5191,-0.06147 -3.176109,-0.396161 -3.59276,0.887945 -0.129777,0.3825 -0.0068,0.785491 0.355178,1.215803 l 0.0683,-0.02049 c -0.239063,-0.38933 -0.307366,-0.792321 -0.163929,-1.133839 0.450803,-1.072365 2.424781,-0.956249 3.155621,-0.881115 -0.5191,0.443973 -0.93575,1.086026 -1.18848,1.687097 l -1.18848,2.718479 c -0.840134,1.926159 -1.857856,2.773122 -3.059998,2.499908 -0.935758,-0.20491 -1.386561,-0.956249 -1.215802,-1.94665 0.170759,-0.997231 0.853794,-1.557319 1.529999,-1.734909 0.737677,-0.19808 1.461694,0.05464 1.523168,0.744509 l 0.08879,-0.03415 c -0.07513,-0.689866 -0.846963,-0.97674 -1.618793,-0.799151 -0.730847,0.163928 -1.482186,0.751338 -1.659775,1.898837 -0.157098,1.024553 0.355178,1.810043 1.304597,2.021784 1.352409,0.307365 2.465756,-0.58741 3.367364,-2.684328 l 1.1475,-2.684327 c 0.28687,-0.669375 0.71718,-1.195312 1.03138,-1.605133 -0.28688,0.628393 -0.59424,1.523169 -0.45764,2.657007 l 0.21175,1.646114 c 0.16392,1.284106 0.0615,1.734909 -0.19808,2.049105 -0.0615,0.0683 -0.12295,0.136607 -0.18442,0.19808 l 0.0683,0.07513 c 0.48495,-0.409821 0.92893,-1.051874 1.22946,-1.734909 l 1.18165,-2.711649 c 0.84697,-1.939819 1.88518,-2.841425 3.08732,-2.575042 l 0.0342,-0.07513 c -1.34558,-0.307365 -2.47258,0.57375 -3.37419,2.691158 l -1.15433,2.670667 c -0.0956,0.232232 -0.20491,0.450803 -0.32103,0.655714 0.10246,-0.37567 0.12978,-0.860624 0.0478,-1.489017 l -0.21174,-1.591471 c -0.17076,-1.35924 0.041,-2.090087 0.15709,-2.616024 z"
         style="stroke-width:0.300912"
         id="path1138" />
      <path
         d="m 105.10438,73.729714 c 1.20214,0 2.21303,-1.632454 2.23353,-2.752631 0.41665,-0.05464 0.89477,-0.314197 1.30459,-0.77183 l -0.0205,-0.03415 c -0.36884,0.38933 -0.85379,0.58058 -1.29093,0.594241 -0.041,-0.491786 -0.30054,-0.819642 -0.75134,-0.819642 -0.75817,0 -1.49585,0.730847 -1.93299,1.687096 -0.51228,1.120178 -0.34835,2.096918 0.45763,2.096918 z m 1.20214,-3.558613 c 0.10246,-0.05464 0.20491,-0.08879 0.30054,-0.08879 0.31419,0 0.40299,0.273214 0.36884,0.648883 -0.3142,-0.07513 -0.56009,-0.259553 -0.66938,-0.560089 z m -1.22263,3.435666 c -0.62156,0 -0.36201,-1.017722 -0.0137,-1.851025 0.25955,-0.642052 0.73085,-1.277275 1.15433,-1.543659 0.082,0.430312 0.36201,0.689866 0.71719,0.758169 -0.0615,0.321027 -0.18442,0.689866 -0.32103,1.017722 -0.34152,0.840133 -1.04504,1.618793 -1.53683,1.618793 z"
         style="stroke-width:0.300912"
         id="path1140" />
      <path
         d="m 109.67389,69.474406 c 0.14344,-0.300536 0.25272,-0.498616 0.33469,-0.57375 l -0.0205,-0.05464 c -0.28688,0.02049 -0.62156,0.252723 -0.75817,0.519107 l -0.34152,0.696696 c -0.25955,-0.0068 -0.51911,-0.02049 -0.75817,-0.04098 l -0.041,0.122946 c 0.23223,0.02049 0.47812,0.03415 0.73768,0.04098 l -0.94259,1.912498 c -0.50545,1.017722 -0.29371,1.618793 0.57375,1.618793 0.88794,0 1.56415,-0.635223 1.9808,-1.871516 l -0.0683,-0.0068 c -0.35518,1.017722 -1.09969,1.700757 -1.83054,1.700757 -0.66937,0 -0.58741,-0.58058 -0.21174,-1.345579 l 0.9904,-2.008123 c 0.37567,0 0.74451,-0.0068 1.04505,-0.02049 l 0.0341,-0.136607 c -0.28005,0.02049 -0.64205,0.03415 -1.01772,0.03415 z"
         style="stroke-width:0.300912"
         id="path1142" />
      <path
         d="m 114.21607,69.897887 c -0.17075,0.177589 -0.12977,0.478125 0.40983,0.409821 l -0.8538,1.796382 c -0.46446,0.983571 -0.90843,1.434374 -1.31143,1.434374 -0.45763,0 -0.39616,-0.58058 -0.1366,-1.120178 l 0.89477,-1.816873 c 0.15027,-0.293705 0.25956,-0.498615 0.34152,-0.573749 l -0.0137,-0.04781 c -0.2937,0.02049 -0.63522,0.252723 -0.77183,0.519107 l -0.0956,0.19125 c 0.0205,-0.437143 -0.12978,-0.77183 -0.46447,-0.77183 -0.62839,0 -1.34558,0.676205 -1.76906,1.659775 -0.57375,1.36607 -0.49861,2.1379 0.0546,2.1379 0.35518,0 0.81965,-0.423482 1.27045,-1.106517 -0.23906,0.669374 0,1.106517 0.64888,1.106517 0.56009,0 0.97674,-0.58058 1.46853,-1.584641 l 0.89477,-1.837364 c 0.49862,-0.03415 0.73085,-0.143438 0.87429,0 0.23906,0.20491 0.0341,0.805981 -0.67621,2.035444 -0.45763,0.77866 -0.21857,1.386561 0.45764,1.386561 0.69669,0 1.22263,-0.635223 1.63245,-1.871516 l -0.0683,-0.0068 c -0.41665,1.208972 -1.00406,1.700757 -1.42755,1.700757 -0.47129,0 -0.44397,-0.601071 -0.15026,-1.120178 0.7445,-1.277275 0.95625,-2.076426 0.63522,-2.376961 -0.25955,-0.245893 -0.86746,0.0068 -1.33875,0.122946 -0.13661,-0.143437 -0.27321,-0.273214 -0.50545,-0.266384 z m -1.57781,0.887946 -0.41665,0.846963 c -0.57375,1.024553 -1.18165,1.714418 -1.48218,1.714418 -0.3142,0 -0.29371,-0.635223 0.12977,-1.646114 0.37567,-0.881116 0.94942,-1.495847 1.3729,-1.495847 0.23907,0 0.32103,0.20491 0.39616,0.58058 z"
         style="stroke-width:0.300912"
         id="path1144" />
      <path
         d="m 118.38258,69.180701 0.0888,0.04098 c 0.18442,-0.300536 0.68986,-0.805982 0.97674,-1.031383 l -0.0478,-0.07513 c -0.55326,-0.02732 -1.03139,0.478124 -1.01773,1.065535 z m -0.31419,1.420712 c 0.12978,-0.266383 0.25272,-0.491785 0.34152,-0.573749 l -0.0137,-0.04781 c -0.26639,0.02049 -0.6284,0.225402 -0.75817,0.519107 l -0.89478,1.830534 c -0.40982,0.826472 -0.19808,1.386561 0.53277,1.386561 0.61473,0 1.14067,-0.635223 1.55732,-1.871516 l -0.0683,-0.0068 c -0.42348,1.208972 -1.01089,1.700757 -1.44803,1.700757 -0.45763,0 -0.39616,-0.58058 -0.12978,-1.120178 z"
         style="stroke-width:0.300912"
         id="path1146" />
      <path
         d="m 121.63384,70.601413 c 0.15026,-0.293705 0.25955,-0.498615 0.34151,-0.573749 l -0.0137,-0.04781 c -0.2937,0.02049 -0.63522,0.252723 -0.77183,0.519107 l -0.0956,0.19125 c 0.0205,-0.437143 -0.12978,-0.77183 -0.46446,-0.77183 -0.6284,0 -1.34558,0.676205 -1.76907,1.659775 -0.57374,1.36607 -0.49861,2.1379 0.0547,2.1379 0.35518,0 0.81964,-0.423482 1.27044,-1.106517 -0.23906,0.669374 0,1.106517 0.64889,1.106517 0.6079,0 1.14066,-0.635223 1.55049,-1.871516 l -0.0683,-0.0068 c -0.41665,1.208972 -1.00406,1.700757 -1.4412,1.700757 -0.45764,0 -0.39616,-0.58058 -0.13661,-1.120178 z m -0.58058,0.18442 -0.41665,0.846963 c -0.57375,1.024553 -1.18165,1.714418 -1.48219,1.714418 -0.3142,0 -0.29371,-0.635223 0.12978,-1.646114 0.37567,-0.881116 0.94941,-1.495847 1.3729,-1.495847 0.23906,0 0.32102,0.20491 0.39616,0.58058 z"
         style="stroke-width:0.300912"
         id="path1148" />
      <path
         d="m 122.82233,71.871858 1.01089,-2.055935 c 0.60107,-1.222633 1.11334,-2.062766 1.57781,-2.411113 l -0.0341,-0.05464 c -0.79915,0.341517 -1.41389,1.188481 -1.98764,2.329149 l -1.05187,2.096917 c -0.68986,1.379731 -0.4508,1.93982 0.24589,1.93982 0.74451,0 1.32509,-0.635223 1.74174,-1.871516 l -0.0683,-0.0068 c -0.42348,1.208972 -1.0792,1.700757 -1.55732,1.700757 -0.52594,0 -0.42348,-0.58058 0.12295,-1.666606 z"
         style="stroke-width:0.300912"
         id="path1150" />
      <path
         d="m 127.6104,73.716053 c 0.0137,0 0.0341,0 0.0478,0 0.082,0 0.16393,-0.01366 0.24589,-0.02732 1.02455,-0.150267 1.70759,-0.703526 1.99446,-1.816873 l -0.0683,-0.03415 c -0.25272,0.922097 -0.79232,1.441203 -1.50951,1.666605 0.44398,-0.341517 0.50545,-1.058704 0.11612,-1.95348 -0.3142,-0.730848 0.10245,-1.461695 0.89478,-1.570981 l -0.007,-0.04098 c -0.40299,0 -0.73767,0.109286 -0.98357,0.293705 -0.51227,0.334688 -0.8333,0.908437 -1.127,1.489017 -0.4713,0.908436 -0.88112,1.816873 -1.92616,1.816873 -0.71036,0 -0.94259,-0.812812 -0.50545,-1.837364 0.40299,-0.949419 1.09969,-1.680266 1.50951,-1.680266 0.27321,0 0.10929,0.539597 -0.19125,1.099686 -0.36201,0.662544 -0.87429,1.208972 -1.4617,1.331918 l 0.007,0.03415 c 0.86062,-0.116116 1.59147,-0.751339 1.98763,-1.56415 0.24589,-0.525937 0.10928,-1.004062 -0.44398,-1.004062 -0.66254,0 -1.3524,0.628392 -1.83053,1.659775 -0.57375,1.256785 -0.19125,2.1379 0.91527,2.1379 1.08602,0 1.5095,-0.990401 2.01495,-1.960311 0.21174,-0.40299 0.43031,-0.799151 0.71719,-1.120177 -0.16393,0.334687 -0.16393,0.751339 0.041,1.202142 0.40299,0.915267 0.1571,1.646114 -0.57375,1.646114 -0.40299,0 -0.57375,-0.300535 -0.39616,-0.744508 l -0.0478,-0.0068 c -0.26639,0.58058 -0.0546,0.983571 0.58058,0.983571 z"
         style="stroke-width:0.300912"
         id="path1152" />
    </g>
    <g
       aria-label="Irupé Leyes"
       id="text342-3"
       style="font-size:58.5157px;font-family:'Gold Lines Trial';-inkscape-font-specification:'Gold Lines Trial';text-align:center;text-anchor:middle;fill-rule:evenodd;stroke:#000000;stroke-width:0.864213"
       transform="matrix(0.85142894,0,0,0.85142894,1.5177527,3.6971481)">
      <path
         d="m 64.97812,27.248101 c 1.053283,0 1.931018,0 2.633207,-0.05852 2.691722,-0.175547 2.165081,-1.111798 -0.05852,-1.053283 -1.22883,0 -2.399144,0.351095 -3.510942,0.877736 h -0.7607 C 49.764038,26.31185 43.795436,31.812326 43.736921,36.78616 c 0,3.393911 2.750238,6.495243 7.841104,7.138916 -4.856803,8.484776 -10.298764,16.794006 -18.139868,16.73549 -4.681256,-0.05851 -8.835871,-3.042816 -8.835871,-8.075167 -0.05851,-5.734538 5.090866,-8.83587 10.474311,-8.426261 l 0.05852,-0.175547 c -5.558992,-0.468125 -10.766889,2.750238 -10.766889,8.660324 0,5.500476 4.62274,8.30923 9.65509,8.250714 9.245481,0 15.097051,-8.426261 19.895339,-16.911038 0.40961,0 0.81922,-0.05851 1.287345,-0.117031 l -0.05851,-0.234063 -1.111799,0.175547 C 58.014752,36.610613 61.233115,29.471697 64.97812,27.248101 Z M 51.695056,43.749529 c -4.973834,-0.643673 -7.724072,-3.627974 -7.724072,-6.963369 0,-4.856803 5.910085,-10.240248 19.310181,-9.596575 h 0.40961 c -4.330162,2.45766 -7.958135,9.538059 -11.995719,16.559944 z M 65.329215,27.072554 c 0.760704,-0.351094 1.931018,-0.585157 2.750237,-0.585157 1.287346,0 1.345862,0.351094 -0.526641,0.526641 -0.585157,0 -1.345861,0.05852 -2.223596,0.05852 z"
         style="font-family:'The Dellgado';-inkscape-font-specification:'The Dellgado';stroke-width:0.864216"
         id="path1155" />
      <path
         d="m 64.978031,46.382735 c -1.22883,1.696955 -5.149382,7.548526 -7.255947,7.49001 -0.351094,0 -0.468125,-0.175547 -0.468125,-0.468126 0.117031,-3.39391 6.144148,-8.426261 6.144148,-11.059467 0.05852,-1.63844 -1.755471,-2.633207 -2.867269,-3.452427 0.117031,-0.40961 0.234063,-0.760704 0.234063,-1.053282 0,-0.351094 -0.234063,-0.702189 -0.643673,-0.702189 -0.351094,0.05852 -0.585157,0.40961 -0.585157,0.760704 0,0.526642 0.292578,0.877736 0.643673,1.287346 -0.994767,2.457659 -3.686489,6.67079 -4.798288,8.075167 l 0.175547,0.117031 c 1.111799,-1.462892 3.745005,-5.558992 4.798288,-8.075167 0.643673,0.585157 1.404377,1.111799 1.404377,1.989534 -0.05852,2.165081 -5.500476,6.904853 -5.558992,11.117983 0,0.936252 0.468126,1.696956 1.462893,1.696956 2.340628,0 6.144148,-5.793055 7.490009,-7.607041 z"
         style="font-family:'The Dellgado';-inkscape-font-specification:'The Dellgado';stroke-width:0.864216"
         id="path1157" />
      <path
         d="m 79.138825,46.382735 c -1.22883,1.696955 -5.149382,7.548526 -7.255947,7.49001 -0.351094,0 -0.468126,-0.175547 -0.468126,-0.468126 0.05852,-1.696955 6.612274,-11.29353 7.782588,-13.049001 -1.053282,0.936251 -1.813986,1.345861 -2.867269,0.526641 -0.877735,1.345861 -2.633206,3.979068 -3.979068,6.495243 -1.638439,2.223597 -4.505709,6.553759 -7.431494,6.495243 -0.526641,-0.05852 -0.994767,-0.292579 -0.994767,-0.936251 0,-1.872503 5.851571,-10.474311 7.314463,-12.580876 -1.053283,0.936251 -1.813987,1.345861 -2.867269,0.526641 -1.521409,2.340628 -5.85157,8.660324 -5.85157,11.176499 0,1.287346 0.936251,2.04805 2.165081,2.04805 2.9843,0 5.383444,-3.159848 6.904852,-5.324929 -0.702188,1.462892 -1.170314,2.750238 -1.170314,3.627973 0,0.936252 0.40961,1.696956 1.404377,1.696956 2.340628,0 6.144149,-5.793055 7.49001,-7.607041 z"
         style="font-family:'The Dellgado';-inkscape-font-specification:'The Dellgado';stroke-width:0.864216"
         id="path1159" />
      <path
         d="m 93.124109,46.382735 c -1.813987,2.516175 -5.090866,7.49001 -8.543292,7.548526 -0.643673,0 -1.22883,-0.351095 -1.22883,-1.053283 0,-1.931018 2.691722,-2.984301 4.915319,-4.973835 2.399144,-2.048049 3.335395,-3.745005 3.335395,-5.090866 -0.05852,-1.404376 -1.111798,-2.282112 -2.340628,-2.282112 -1.696956,0 -4.973835,2.399144 -7.021884,4.681256 1.345861,-2.223597 2.808753,-4.388677 4.271646,-6.553758 -1.053283,0.936251 -1.813987,1.345861 -2.86727,0.526641 -5.910085,8.952902 -11.000951,18.37393 -17.1451,27.209801 1.053283,-0.936251 1.813987,-1.345861 2.867269,-0.526641 4.213131,-6.26118 7.958136,-12.756423 11.937203,-19.134635 1.696956,-2.457659 6.027118,-5.968601 7.782589,-5.968601 0.643672,0 1.111798,0.40961 1.111798,1.170314 0,0.994767 -0.760704,2.457659 -3.042816,4.271646 -2.165081,1.755471 -4.798288,3.218364 -4.798288,5.734539 0,1.287345 0.81922,2.165081 2.106565,2.165081 3.686489,0 6.846337,-4.915319 8.835871,-7.607041 z"
         style="font-family:'The Dellgado';-inkscape-font-specification:'The Dellgado';stroke-width:0.864216"
         id="path1161" />
      <path
         d="m 102.19407,46.382735 0.17554,0.117032 c -2.04805,2.808753 -5.67602,7.958135 -9.655088,7.899619 -1.170314,0 -2.106565,-0.585157 -2.106565,-2.165081 -0.05852,-3.627973 6.144148,-11.70314 10.240243,-11.70314 1.28735,0 1.34587,1.521408 0.76071,2.633207 -1.22883,2.340628 -4.213132,3.159847 -6.670792,4.096099 -1.696955,2.633206 -2.867269,4.915319 -2.867269,6.027117 0,0.468126 0.351094,0.81922 0.994767,0.81922 3.569458,0 7.197434,-5.149382 9.128454,-7.724073 z m -1.22883,-5.617507 c -1.111803,0 -3.803525,3.159848 -5.793059,6.202664 2.282113,-0.877735 5.090869,-1.755471 6.261179,-3.920552 0.52664,-0.994767 0.40961,-2.282112 -0.46812,-2.282112 z m -0.81922,-1.053283 h 0.70218 l 2.2236,-2.808753 h -2.04805 z"
         style="font-family:'The Dellgado';-inkscape-font-specification:'The Dellgado';stroke-width:0.864216"
         id="path1163" />
      <path
         d="m 139.76121,58.671032 c -3.15984,3.042817 -12.11275,-0.819219 -19.7783,-3.101332 3.15984,-3.510942 5.9686,-8.426261 8.71884,-13.166033 0.70218,0.05852 1.40437,0.117032 2.10656,0.117032 11.52759,-0.05852 18.66651,-8.777355 18.54948,-13.692674 -0.0585,-2.223597 -1.57993,-3.510942 -3.62798,-3.510942 -9.01141,-0.05852 -14.9215,9.65509 -19.0176,16.442912 -5.91008,-1.63844 -9.36251,-7.021884 -5.44196,-13.517127 l -0.17555,-0.05852 c -3.97906,6.553759 -0.52664,12.054235 5.50048,13.75119 -2.75024,4.739772 -5.38344,9.596575 -8.25071,13.166033 -2.10657,-0.526642 -4.0961,-0.936252 -5.73454,-0.936252 -4.27165,0 -6.20267,2.04805 -6.20267,3.920552 0,1.462893 1.22883,2.808754 3.51095,2.808754 3.45242,0.117031 6.43672,-1.579924 9.12844,-4.330162 7.49001,2.984301 16.26737,7.782588 20.83159,2.223597 z M 128.81878,42.169605 c 3.33539,-5.617508 9.42102,-16.61846 17.02807,-16.559944 1.93101,0 3.27688,1.22883 3.27688,3.218364 0.11703,4.798287 -6.96337,13.400095 -18.31542,13.458611 -0.64367,0 -1.34586,0 -1.98953,-0.117031 z m -11.23502,13.868221 c -2.34063,2.691722 -4.8568,4.505709 -7.66555,4.62274 -2.16509,0 -3.27688,-1.170314 -3.27688,-2.516175 0,-1.63844 1.63844,-3.452426 4.91531,-3.510942 1.75548,0 3.80353,0.585157 6.02712,1.404377 z"
         style="font-family:'The Dellgado';-inkscape-font-specification:'The Dellgado';stroke-width:0.864216"
         id="path1165" />
      <path
         d="m 141.51667,46.382735 c -1.93102,2.574691 -5.55899,7.724073 -9.12845,7.724073 -0.64368,0 -0.99477,-0.351094 -0.99477,-0.81922 0,-1.111798 1.17031,-3.393911 2.86727,-6.027117 2.45766,-0.936252 5.44196,-1.755471 6.67079,-4.096099 0.58516,-1.111799 0.52664,-2.633207 -0.7607,-2.633207 -4.0961,0 -10.29877,8.075167 -10.24025,11.70314 0,1.579924 0.93625,2.165081 2.10656,2.165081 3.97907,0.05852 7.60704,-5.090866 9.65509,-7.899619 z m -1.22883,-5.617507 c 0.87773,0 0.99476,1.287345 0.46812,2.282112 -1.17031,2.165081 -3.97907,3.042817 -6.26118,3.920552 1.98954,-3.042816 4.68126,-6.202664 5.79306,-6.202664 z"
         style="font-family:'The Dellgado';-inkscape-font-specification:'The Dellgado';stroke-width:0.864216"
         id="path1167" />
      <path
         d="m 147.13422,53.287588 c 2.80875,-7.255947 6.20266,-13.049001 8.01665,-13.868221 l -0.0585,-0.175547 c -1.93102,0.819219 -4.33016,4.62274 -6.43672,8.426261 -1.63844,2.282112 -4.38868,6.26118 -7.19744,6.202664 -0.52664,-0.05852 -0.99476,-0.292579 -0.99476,-0.936251 0,-1.872503 5.85157,-10.474311 7.31446,-12.580876 -1.05328,0.936251 -1.81399,1.345861 -2.86727,0.526641 -1.52141,2.340628 -5.85157,8.660324 -5.85157,11.176499 0,1.287346 0.93625,2.04805 2.16508,2.04805 2.69172,0 4.97384,-2.633207 6.49524,-4.739772 -1.05328,1.872502 -1.93101,3.627973 -2.6332,4.915319 -5.2079,2.223596 -14.62893,3.920552 -14.62893,9.655091 0,2.048049 1.63844,3.627973 3.97907,3.627973 7.13892,0 10.00618,-7.49001 12.52236,-13.985253 h 0.0585 c 3.39391,-1.813986 5.91008,-3.979067 8.01665,-7.080399 l -0.17555,-0.117032 c -2.04805,3.042817 -4.44719,5.090866 -7.72407,6.904853 z m -12.69791,14.043768 c -2.10657,0 -3.745,-1.345861 -3.745,-3.39391 0,-5.441961 9.06993,-7.255947 14.21931,-9.362513 -4.03758,7.197432 -6.43673,12.756423 -10.47431,12.756423 z"
         style="font-family:'The Dellgado';-inkscape-font-specification:'The Dellgado';stroke-width:0.864216"
         id="path1169" />
      <path
         d="m 163.92826,46.382735 c -1.93102,2.574691 -5.55899,7.724073 -9.12845,7.724073 -0.64367,0 -0.99477,-0.351094 -0.99477,-0.81922 0,-1.111798 1.17032,-3.393911 2.86727,-6.027117 2.45766,-0.936252 5.44196,-1.755471 6.67079,-4.096099 0.58516,-1.111799 0.52664,-2.633207 -0.7607,-2.633207 -4.0961,0 -10.29877,8.075167 -10.24025,11.70314 0,1.579924 0.93625,2.165081 2.10656,2.165081 3.97907,0.05852 7.60704,-5.090866 9.65509,-7.899619 z m -1.22883,-5.617507 c 0.87773,0 0.99476,1.287345 0.46812,2.282112 -1.17031,2.165081 -3.97906,3.042817 -6.26118,3.920552 1.98954,-3.042816 4.68126,-6.202664 5.79306,-6.202664 z"
         style="font-family:'The Dellgado';-inkscape-font-specification:'The Dellgado';stroke-width:0.864216"
         id="path1171" />
      <path
         d="m 162.93353,50.478834 c 0,2.633207 2.10657,3.686489 4.15462,3.686489 2.45766,-0.05851 5.14938,-1.931018 5.14938,-4.973834 0,-3.335395 -3.51094,-5.676023 -3.86204,-8.250714 1.22883,-1.63844 2.04805,-2.867269 2.04805,-3.276879 0,-0.292579 -0.29258,-0.526642 -0.52664,-0.526642 -1.52141,0 -1.93102,2.691723 -1.8725,3.920552 -1.75547,2.399144 -4.0961,5.266413 -4.73977,6.202665 l 0.17554,0.117031 c 0.70219,-0.936251 2.86727,-3.686489 4.56423,-6.027117 0.29258,2.516175 2.2236,4.915319 2.2236,7.841104 0,2.925785 -2.04805,4.447193 -3.92056,4.447193 -1.5214,0 -3.15984,-0.994767 -3.15984,-3.159848 -0.0585,-1.111798 0.58515,-2.399144 1.5214,-3.335395 l -0.17554,-0.175547 c -0.99477,1.053283 -1.57993,2.340628 -1.57993,3.510942 z"
         style="font-family:'The Dellgado';-inkscape-font-specification:'The Dellgado';stroke-width:0.864216"
         id="path1173" />
    </g>
  </g>
</svg>
