<?xml version="1.0" encoding="UTF-8" standalone="no"?>
<!-- Created with Inkscape (http://www.inkscape.org/) -->

<svg
   width="122.7501mm"
   height="41.288544mm"
   viewBox="0 0 122.7501 41.288544"
   version="1.1"
   id="svg5"
   inkscape:version="1.2.2 (b0a8486541, 2022-12-01)"
   sodipodi:docname="caratula de maria.svg"
   xmlns:inkscape="http://www.inkscape.org/namespaces/inkscape"
   xmlns:sodipodi="http://sodipodi.sourceforge.net/DTD/sodipodi-0.dtd"
   xmlns="http://www.w3.org/2000/svg"
   xmlns:svg="http://www.w3.org/2000/svg">
  <sodipodi:namedview
     id="namedview7"
     pagecolor="#ffffff"
     bordercolor="#000000"
     borderopacity="0.25"
     inkscape:showpageshadow="2"
     inkscape:pageopacity="0.0"
     inkscape:pagecheckerboard="0"
     inkscape:deskcolor="#d1d1d1"
     inkscape:document-units="mm"
     showgrid="false"
     showguides="true"
     inkscape:zoom="1.3202441"
     inkscape:cx="549.89831"
     inkscape:cy="686.99417"
     inkscape:window-width="1920"
     inkscape:window-height="991"
     inkscape:window-x="0"
     inkscape:window-y="0"
     inkscape:window-maximized="1"
     inkscape:current-layer="layer1">
    <sodipodi:guide
       position="11.292181,208.53808"
       orientation="1,0"
       id="guide1252"
       inkscape:locked="false" />
    <sodipodi:guide
       position="111.45793,229.56889"
       orientation="1,0"
       id="guide1254"
       inkscape:locked="false" />
  </sodipodi:namedview>
  <defs
     id="defs2">
    <rect
       x="119.67484"
       y="106.041"
       width="574.89368"
       height="118.15997"
       id="rect2178" />
    <rect
       x="119.67484"
       y="106.041"
       width="574.89368"
       height="118.15997"
       id="rect2180" />
    <rect
       x="119.67484"
       y="106.041"
       width="574.89368"
       height="118.15997"
       id="rect2182" />
    <rect
       x="119.67484"
       y="106.041"
       width="574.89368"
       height="118.15997"
       id="rect2184" />
  </defs>
  <g
     inkscape:label="Capa 1"
     inkscape:groupmode="layer"
     id="layer1"
     transform="translate(-48.190641,-222.60311)">
    <g
       aria-label="
María del Valle Silva"
       transform="matrix(0.4000429,0,0,0.4000429,-53.375291,185.15498)"
       id="text2136"
       style="font-size:37.3333px;font-family:'Gold Lines Trial';-inkscape-font-specification:'Gold Lines Trial';text-align:center;white-space:pre;shape-inside:url(#rect2178);display:inline;fill-rule:evenodd;stroke-width:7.22268">
      <path
         d="m 278.60224,165.84896 -9.55732,21.39199 h -0.52267 l -9.37066,-20.53332 v 15.04532 q 0,2.83733 0.672,3.77066 0.672,0.896 2.83734,1.008 v 0.70934 h -8.77333 v -0.70934 q 2.31466,-0.14933 2.94933,-1.008 0.672,-0.896 0.672,-3.77066 v -15.15732 q 0,-2.05333 -0.63467,-2.61333 -0.59733,-0.59733 -2.91199,-0.74667 v -0.70933 h 7.39199 l 8.62399,18.85332 8.25066,-18.85332 h 7.42933 v 0.70933 q -2.09067,0.18667 -2.688,0.784 -0.56,0.59733 -0.56,2.576 v 16.57599 q 0,1.97866 0.59733,2.61333 0.59734,0.59733 2.65067,0.74666 v 0.70934 h -10.45333 v -0.70934 q 2.20267,-0.14933 2.8,-0.784 0.59733,-0.672 0.59733,-2.98666 z"
         style="font-family:FreeSerif;-inkscape-font-specification:FreeSerif"
         id="path2186" />
      <path
         d="m 287.15159,183.61962 q 0,-0.672 0.14933,-1.232 0.14934,-0.59734 0.52267,-1.08267 0.37333,-0.52267 0.70933,-0.93333 0.336,-0.41067 1.008,-0.82133 0.672,-0.448 1.12,-0.70934 0.448,-0.29866 1.344,-0.672 0.93333,-0.41066 1.41867,-0.59733 0.48533,-0.224 1.53066,-0.63467 1.04533,-0.41066 1.53067,-0.59733 v -2.27733 q 0,-3.09866 -2.83733,-3.09866 -1.12,0 -1.904,0.56 -0.784,0.52266 -0.784,1.26933 0,0.29866 0.0747,0.82133 0.11199,0.52267 0.11199,0.672 0,0.63467 -0.52266,1.12 -0.48533,0.448 -1.15733,0.448 -0.63467,0 -1.12,-0.48533 -0.48534,-0.48534 -0.48534,-1.12 0,-1.75467 1.792,-2.94933 1.82933,-1.232 4.48,-1.232 3.06133,0 4.21866,1.49333 1.15733,1.456 1.15733,4.48 v 7.27999 q 0,1.232 0.224,1.71733 0.26134,0.448 0.896,0.448 0.784,0 1.64267,-0.70933 v 0.97066 q -0.97067,1.08267 -1.71733,1.49334 -0.70934,0.37333 -1.64267,0.37333 -1.15733,0 -1.71733,-0.63467 -0.52267,-0.63466 -0.672,-2.09066 -3.21066,2.72533 -5.45066,2.72533 -1.71733,0 -2.83733,-1.12 -1.08267,-1.12 -1.08267,-2.87466 z m 9.33333,-0.97067 v -5.41333 q -3.36,1.232 -4.704,2.38933 -1.344,1.15733 -1.344,2.8 0,1.53066 0.74667,2.27733 0.74666,0.74667 1.60533,0.74667 1.26933,0 2.72533,-0.85867 0.59733,-0.336 0.784,-0.70933 0.18667,-0.37333 0.18667,-1.232 z"
         style="font-family:FreeSerif;-inkscape-font-specification:FreeSerif"
         id="path2188" />
      <path
         d="m 313.69555,173.72629 q -0.56,0 -1.38134,-0.63467 -0.82133,-0.672 -1.08266,-0.672 -0.74667,0 -1.68,1.08267 -0.93333,1.08267 -0.93333,1.97867 v 8.39999 q 0,1.60533 0.63466,2.16533 0.63467,0.56 2.53867,0.63467 v 0.56 h -8.95999 v -0.56 q 1.79199,-0.336 2.20266,-0.74667 0.448,-0.41067 0.448,-1.82933 v -9.33333 q 0,-1.232 -0.29867,-1.71733 -0.26133,-0.52267 -0.97066,-0.52267 -0.59733,0 -1.30667,0.14934 v -0.59733 q 2.98667,-0.97067 5.52533,-2.016 l 0.18667,0.0747 v 3.43467 q 1.38133,-1.97867 2.352,-2.72533 0.97066,-0.784 2.12799,-0.784 0.97067,0 1.49334,0.52266 0.56,0.52267 0.56,1.456 0,0.784 -0.41067,1.232 -0.37333,0.448 -1.04533,0.448 z"
         style="font-family:FreeSerif;-inkscape-font-specification:FreeSerif"
         id="path2190" />
      <path
         d="m 317.46619,168.38763 h -1.49333 l 5.48799,-5.52533 q 0.85867,-0.85867 1.568,-0.85867 1.30667,0 1.30667,1.19467 0,0.85867 -1.12,1.568 z m 0.18666,4.14399 q -0.448,0 -1.56799,0.14934 v -0.56 l 5.78666,-2.05333 0.14933,0.112 v 13.25332 q 0,2.016 0.448,2.576 0.48533,0.52266 2.31466,0.672 v 0.56 h -8.84799 v -0.56 q 1.94133,-0.112 2.42667,-0.672 0.52266,-0.56 0.52266,-2.576 v -8.66133 q 0,-1.232 -0.29866,-1.71733 -0.26134,-0.52267 -0.93334,-0.52267 z"
         style="font-family:FreeSerif;-inkscape-font-specification:FreeSerif"
         id="path2192" />
      <path
         d="m 326.65018,183.61962 q 0,-0.672 0.14933,-1.232 0.14933,-0.59734 0.52267,-1.08267 0.37333,-0.52267 0.70933,-0.93333 0.336,-0.41067 1.008,-0.82133 0.672,-0.448 1.12,-0.70934 0.448,-0.29866 1.344,-0.672 0.93333,-0.41066 1.41866,-0.59733 0.48533,-0.224 1.53067,-0.63467 1.04533,-0.41066 1.53066,-0.59733 v -2.27733 q 0,-3.09866 -2.83733,-3.09866 -1.12,0 -1.904,0.56 -0.784,0.52266 -0.784,1.26933 0,0.29866 0.0747,0.82133 0.112,0.52267 0.112,0.672 0,0.63467 -0.52267,1.12 -0.48533,0.448 -1.15733,0.448 -0.63466,0 -1.12,-0.48533 -0.48533,-0.48534 -0.48533,-1.12 0,-1.75467 1.792,-2.94933 1.82933,-1.232 4.47999,-1.232 3.06133,0 4.21867,1.49333 1.15733,1.456 1.15733,4.48 v 7.27999 q 0,1.232 0.224,1.71733 0.26133,0.448 0.896,0.448 0.784,0 1.64266,-0.70933 v 0.97066 q -0.97066,1.08267 -1.71733,1.49334 -0.70933,0.37333 -1.64266,0.37333 -1.15734,0 -1.71734,-0.63467 -0.52266,-0.63466 -0.67199,-2.09066 -3.21067,2.72533 -5.45067,2.72533 -1.71733,0 -2.83733,-1.12 -1.08266,-1.12 -1.08266,-2.87466 z m 9.33332,-0.97067 v -5.41333 q -3.36,1.232 -4.70399,2.38933 -1.344,1.15733 -1.344,2.8 0,1.53066 0.74666,2.27733 0.74667,0.74667 1.60533,0.74667 1.26934,0 2.72534,-0.85867 0.59733,-0.336 0.784,-0.70933 0.18666,-0.37333 0.18666,-1.232 z"
         style="font-family:FreeSerif;-inkscape-font-specification:FreeSerif"
         id="path2194" />
      <path
         d="m 364.05812,187.61428 -0.14933,-0.112 v -2.38933 q -1.792,2.50133 -4.77866,2.50133 -3.09867,0 -5.00267,-2.20267 -1.904,-2.23999 -1.904,-5.82399 0,-3.95733 2.27734,-6.72 2.27733,-2.79999 5.48799,-2.79999 2.016,0 3.92,1.60533 v -5.824 q 0,-1.15733 -0.336,-1.53066 -0.336,-0.37333 -1.38133,-0.37333 -0.52267,0 -0.82134,0.0373 v -0.59733 q 3.39733,-0.896 5.488,-1.64267 l 0.18667,0.0747 v 21.16798 q 0,1.30666 0.29866,1.71733 0.336,0.41067 1.344,0.41067 0.18667,0 0.85867,-0.0373 v 0.59734 z m -3.472,-1.94133 q 1.41867,0 2.352,-0.784 0.97067,-0.82134 0.97067,-1.456 v -8.58666 q 0,-1.49333 -1.15733,-2.61333 -1.15734,-1.12 -2.65067,-1.12 -2.128,0 -3.39733,1.904 -1.26933,1.904 -1.26933,5.07733 0,3.43466 1.41866,5.52533 1.41867,2.05333 3.73333,2.05333 z"
         style="font-family:FreeSerif;-inkscape-font-specification:FreeSerif"
         id="path2196" />
      <path
         d="m 373.16746,176.89962 q 0.0747,2.352 0.63466,4.06933 0.56,1.68 1.456,2.53867 0.896,0.82133 1.792,1.19466 0.93333,0.336 1.94133,0.336 1.792,0 3.09867,-0.896 1.344,-0.896 2.688,-3.024 l 0.59733,0.26134 q -1.15733,3.02399 -3.21067,4.62933 -2.05333,1.60533 -4.70399,1.60533 -3.21067,0 -5.11466,-2.24 -1.86667,-2.27733 -1.86667,-6.12266 0,-4.144 2.16533,-6.64533 2.20267,-2.53866 5.63733,-2.53866 2.83733,0 4.40533,1.71733 1.568,1.68 1.97867,5.11466 z m 0.0747,-1.19466 h 7.61599 q -0.37333,-2.42667 -1.15733,-3.36 -0.784,-0.93333 -2.50133,-0.93333 -3.36,0 -3.95733,4.29333 z"
         style="font-family:FreeSerif;-inkscape-font-specification:FreeSerif"
         id="path2198" />
      <path
         d="m 385.74877,163.9823 v -0.59733 q 3.696,-0.896 5.93599,-1.64267 l 0.14934,0.0747 v 22.28798 q 0,1.53066 0.48533,2.016 0.52267,0.448 2.31466,0.56 v 0.56 h -8.81065 v -0.56 q 1.75466,-0.14934 2.31466,-0.672 0.56,-0.52267 0.56,-2.016 v -17.80799 q 0,-1.30666 -0.336,-1.792 -0.336,-0.48533 -1.232,-0.48533 -0.74666,0 -1.38133,0.0747 z"
         style="font-family:FreeSerif;-inkscape-font-specification:FreeSerif"
         id="path2200" />
      <path
         d="m 430.13805,162.5263 v 0.70933 q -1.38133,0.0747 -1.97867,0.672 -0.56,0.59733 -1.45599,2.8 l -8.288,20.94398 h -0.56 l -9.18399,-20.49598 q -1.08267,-2.464 -1.82933,-3.136 -0.70933,-0.70933 -2.128,-0.784 v -0.70933 h 9.93066 v 0.70933 q -1.04533,0.0747 -1.08267,0.0747 -1.71733,0.112 -1.71733,1.15733 0,0.74667 1.53067,4.144 l 5.63733,12.61865 5.48799,-13.70132 q 0.70933,-1.792 0.70933,-2.72533 0,-0.784 -0.59733,-1.12 -0.59733,-0.37333 -2.128,-0.448 v -0.70933 z"
         style="font-family:FreeSerif;-inkscape-font-specification:FreeSerif"
         id="path2202" />
      <path
         d="m 429.57809,183.61962 q 0,-0.672 0.14933,-1.232 0.14933,-0.59734 0.52267,-1.08267 0.37333,-0.52267 0.70933,-0.93333 0.336,-0.41067 1.008,-0.82133 0.672,-0.448 1.12,-0.70934 0.448,-0.29866 1.344,-0.672 0.93333,-0.41066 1.41866,-0.59733 0.48533,-0.224 1.53067,-0.63467 1.04533,-0.41066 1.53066,-0.59733 v -2.27733 q 0,-3.09866 -2.83733,-3.09866 -1.12,0 -1.904,0.56 -0.784,0.52266 -0.784,1.26933 0,0.29866 0.0747,0.82133 0.112,0.52267 0.112,0.672 0,0.63467 -0.52267,1.12 -0.48533,0.448 -1.15733,0.448 -0.63467,0 -1.12,-0.48533 -0.48533,-0.48534 -0.48533,-1.12 0,-1.75467 1.792,-2.94933 1.82933,-1.232 4.47999,-1.232 3.06133,0 4.21867,1.49333 1.15733,1.456 1.15733,4.48 v 7.27999 q 0,1.232 0.224,1.71733 0.26133,0.448 0.896,0.448 0.784,0 1.64266,-0.70933 v 0.97066 q -0.97066,1.08267 -1.71733,1.49334 -0.70933,0.37333 -1.64266,0.37333 -1.15734,0 -1.71734,-0.63467 -0.52266,-0.63466 -0.672,-2.09066 -3.21066,2.72533 -5.45066,2.72533 -1.71733,0 -2.83733,-1.12 -1.08266,-1.12 -1.08266,-2.87466 z m 9.33332,-0.97067 v -5.41333 q -3.36,1.232 -4.70399,2.38933 -1.344,1.15733 -1.344,2.8 0,1.53066 0.74666,2.27733 0.74667,0.74667 1.60533,0.74667 1.26934,0 2.72534,-0.85867 0.59733,-0.336 0.784,-0.70933 0.18666,-0.37333 0.18666,-1.232 z"
         style="font-family:FreeSerif;-inkscape-font-specification:FreeSerif"
         id="path2204" />
      <path
         d="m 445.07142,163.9823 v -0.59733 q 3.69599,-0.896 5.93599,-1.64267 l 0.14933,0.0747 v 22.28798 q 0,1.53066 0.48534,2.016 0.52266,0.448 2.31466,0.56 v 0.56 h -8.81066 v -0.56 q 1.75467,-0.14934 2.31467,-0.672 0.56,-0.52267 0.56,-2.016 v -17.80799 q 0,-1.30666 -0.336,-1.792 -0.336,-0.48533 -1.232,-0.48533 -0.74667,0 -1.38133,0.0747 z"
         style="font-family:FreeSerif;-inkscape-font-specification:FreeSerif"
         id="path2206" />
      <path
         d="m 454.70339,163.9823 v -0.59733 q 3.696,-0.896 5.93599,-1.64267 l 0.14934,0.0747 v 22.28798 q 0,1.53066 0.48533,2.016 0.52267,0.448 2.31467,0.56 v 0.56 h -8.81066 v -0.56 q 1.75466,-0.14934 2.31466,-0.672 0.56,-0.52267 0.56,-2.016 v -17.80799 q 0,-1.30666 -0.336,-1.792 -0.336,-0.48533 -1.232,-0.48533 -0.74666,0 -1.38133,0.0747 z"
         style="font-family:FreeSerif;-inkscape-font-specification:FreeSerif"
         id="path2208" />
      <path
         d="m 467.21001,176.89962 q 0.0747,2.352 0.63466,4.06933 0.56,1.68 1.456,2.53867 0.896,0.82133 1.792,1.19466 0.93333,0.336 1.94133,0.336 1.792,0 3.09867,-0.896 1.344,-0.896 2.68799,-3.024 l 0.59734,0.26134 q -1.15733,3.02399 -3.21067,4.62933 -2.05333,1.60533 -4.70399,1.60533 -3.21067,0 -5.11466,-2.24 -1.86667,-2.27733 -1.86667,-6.12266 0,-4.144 2.16533,-6.64533 2.20267,-2.53866 5.63733,-2.53866 2.83733,0 4.40533,1.71733 1.568,1.68 1.97866,5.11466 z m 0.0747,-1.19466 h 7.616 q -0.37333,-2.42667 -1.15733,-3.36 -0.784,-0.93333 -2.50134,-0.93333 -3.35999,0 -3.95733,4.29333 z"
         style="font-family:FreeSerif;-inkscape-font-specification:FreeSerif"
         id="path2210" />
      <path
         d="m 503.61,182.20095 q 0,-1.75467 -1.232,-3.09866 -1.232,-1.38134 -2.98667,-2.352 -1.75466,-0.97067 -3.50933,-1.97867 -1.71733,-1.04533 -2.94933,-2.65066 -1.232,-1.60533 -1.232,-3.73333 0,-2.83733 1.904,-4.592 1.94133,-1.792 4.55467,-1.792 1.56799,0 3.39733,0.63467 1.82933,0.63467 2.20266,0.63467 0.97067,0 1.19467,-1.26934 h 0.784 l 0.82133,7.952 H 505.626 q -0.896,-3.28533 -2.76267,-4.85333 -1.82933,-1.568 -4.06933,-1.568 -1.71733,0 -2.8,0.97066 -1.08266,0.97067 -1.08266,2.50134 0,1.49333 1.26933,2.83733 1.26933,1.344 4.21866,2.98666 3.696,1.97867 5.33867,3.92 1.64266,1.904 1.64266,4.21866 0,2.87467 -2.20266,4.85333 -2.20267,1.94133 -5.41333,1.94133 -1.86667,0 -3.808,-0.63466 -1.904,-0.63467 -2.352,-0.63467 -0.41066,0 -0.70933,0.37333 -0.29867,0.336 -0.336,0.85867 h -0.82133 l -1.12,-7.91466 h 0.85866 q 1.38134,3.39733 3.21067,5.00266 1.82933,1.60533 4.33066,1.60533 2.05333,0 3.32267,-1.15733 1.26933,-1.19467 1.26933,-3.06133 z"
         style="font-family:FreeSerif;-inkscape-font-specification:FreeSerif"
         id="path2212" />
      <path
         d="m 511.56196,172.56896 q -0.82134,0 -1.568,0.112 v -0.56 q 2.61333,-0.74667 5.78666,-2.05333 l 0.14933,0.112 v 13.25332 q 0,2.016 0.448,2.576 0.48534,0.52266 2.31467,0.672 v 0.56 h -8.84799 v -0.56 q 1.94133,-0.112 2.42666,-0.672 0.52267,-0.56 0.52267,-2.576 v -8.66133 q 0,-1.232 -0.29867,-1.71733 -0.26133,-0.48533 -0.93333,-0.48533 z m 2.464,-10.82666 q 0.82133,0 1.38133,0.56 0.56,0.56 0.56,1.344 0,0.82133 -0.56,1.38133 -0.56,0.52267 -1.38133,0.52267 -0.784,0 -1.344,-0.56 -0.52267,-0.56 -0.52267,-1.344 0,-0.784 0.56,-1.344 0.56,-0.56 1.30667,-0.56 z"
         style="font-family:FreeSerif;-inkscape-font-specification:FreeSerif"
         id="path2214" />
      <path
         d="m 519.62595,163.9823 v -0.59733 q 3.696,-0.896 5.936,-1.64267 l 0.14933,0.0747 v 22.28798 q 0,1.53066 0.48533,2.016 0.52267,0.448 2.31467,0.56 v 0.56 h -8.81066 v -0.56 q 1.75466,-0.14934 2.31466,-0.672 0.56,-0.52267 0.56,-2.016 v -17.80799 q 0,-1.30666 -0.336,-1.792 -0.336,-0.48533 -1.232,-0.48533 -0.74666,0 -1.38133,0.0747 z"
         style="font-family:FreeSerif;-inkscape-font-specification:FreeSerif"
         id="path2216" />
      <path
         d="m 545.23658,170.44096 v 0.56 q -0.85867,0.0747 -1.26934,0.56 -0.41066,0.48533 -1.15733,2.352 l -4.77866,11.98399 q -0.74667,1.86666 -1.04533,1.86666 -0.41067,0 -0.97067,-1.75466 l -4.48,-10.71466 q -1.19466,-2.87467 -1.75466,-3.54666 -0.56,-0.672 -1.64267,-0.74667 v -0.56 h 7.31733 v 0.56 q -0.97067,0.0747 -1.344,0.29867 -0.37333,0.224 -0.37333,0.74666 0,0.59733 0.336,1.38133 l 3.808,9.55733 3.69599,-9.66933 q 0.224,-0.56 0.224,-1.11999 0,-1.04534 -1.75466,-1.19467 v -0.56 z"
         style="font-family:FreeSerif;-inkscape-font-specification:FreeSerif"
         id="path2218" />
      <path
         d="m 545.6099,183.61962 q 0,-0.672 0.14933,-1.232 0.14934,-0.59734 0.52267,-1.08267 0.37333,-0.52267 0.70933,-0.93333 0.336,-0.41067 1.008,-0.82133 0.672,-0.448 1.12,-0.70934 0.448,-0.29866 1.344,-0.672 0.93333,-0.41066 1.41867,-0.59733 0.48533,-0.224 1.53066,-0.63467 1.04533,-0.41066 1.53067,-0.59733 v -2.27733 q 0,-3.09866 -2.83733,-3.09866 -1.12,0 -1.904,0.56 -0.784,0.52266 -0.784,1.26933 0,0.29866 0.0747,0.82133 0.112,0.52267 0.112,0.672 0,0.63467 -0.52266,1.12 -0.48534,0.448 -1.15733,0.448 -0.63467,0 -1.12,-0.48533 -0.48534,-0.48534 -0.48534,-1.12 0,-1.75467 1.792,-2.94933 1.82933,-1.232 4.48,-1.232 3.06133,0 4.21866,1.49333 1.15733,1.456 1.15733,4.48 v 7.27999 q 0,1.232 0.224,1.71733 0.26134,0.448 0.896,0.448 0.784,0 1.64267,-0.70933 v 0.97066 q -0.97067,1.08267 -1.71733,1.49334 -0.70934,0.37333 -1.64267,0.37333 -1.15733,0 -1.71733,-0.63467 -0.52267,-0.63466 -0.672,-2.09066 -3.21066,2.72533 -5.45066,2.72533 -1.71733,0 -2.83733,-1.12 -1.08267,-1.12 -1.08267,-2.87466 z m 9.33333,-0.97067 v -5.41333 q -3.36,1.232 -4.704,2.38933 -1.344,1.15733 -1.344,2.8 0,1.53066 0.74667,2.27733 0.74666,0.74667 1.60533,0.74667 1.26933,0 2.72533,-0.85867 0.59733,-0.336 0.784,-0.70933 0.18667,-0.37333 0.18667,-1.232 z"
         style="font-family:FreeSerif;-inkscape-font-specification:FreeSerif"
         id="path2220" />
    </g>
    <g
       id="g2164"
       transform="translate(9.0816374e-6,81.09192)">
      <g
         aria-label="
VS"
         transform="matrix(0.32644049,0,0,0.32644049,-23.60142,103.24237)"
         id="text2144"
         style="font-size:37.3333px;font-family:'Gold Lines Trial';-inkscape-font-specification:'Gold Lines Trial';text-align:center;white-space:pre;shape-inside:url(#rect2180);display:inline;fill-rule:evenodd;stroke-width:7.22268">
        <path
           d="m 409.97805,157.9849 v 0.0747 h -3.22933 l -10.32266,28.48531 h -0.056 l -9.89332,-28.48531 h -2.61333 v -0.0747 h 10.82665 v 0.0747 h -4.10666 l 7.59733,23.37065 8.45599,-23.37065 h -4.85333 v -0.0747 z"
           style="font-family:'Bodoni Moda SC';-inkscape-font-specification:'Bodoni Moda SC'"
           id="path2223" />
        <path
           d="m 421.02872,186.54487 q -2.52,0 -4.23733,-0.784 -1.69866,-0.784 -2.8,-2.128 l -2.03466,2.72533 h -0.0747 v -7.65332 h 0.0747 q 0.31733,1.66133 0.97067,3.08 0.65333,1.39999 1.69866,2.44533 1.064,1.04533 2.55733,1.624 1.512,0.57866 3.54667,0.57866 1.97866,0 3.47199,-0.70933 1.49333,-0.70933 2.33333,-2.09067 0.84,-1.39999 0.84,-3.43466 0,-1.64267 -0.82133,-2.78133 -0.82133,-1.13867 -2.16533,-1.97867 -1.344,-0.84 -2.968,-1.56799 -1.60533,-0.728 -3.22933,-1.512 -1.60533,-0.784 -2.94933,-1.81067 -1.344,-1.04533 -2.16533,-2.50133 -0.82133,-1.456 -0.82133,-3.528 0,-2.05333 1.064,-3.60266 1.08266,-1.568 2.83733,-2.42666 1.75466,-0.87734 3.82666,-0.87734 1.904,0 3.43466,0.59734 1.53067,0.59733 2.61333,1.86666 l 2.016,-2.464 h 0.0747 v 7.65333 h -0.0747 q -0.37333,-2.59466 -1.43733,-4.256 -1.04533,-1.66133 -2.65066,-2.44533 -1.60534,-0.80266 -3.60267,-0.80266 -2.688,0 -4.08799,1.34399 -1.4,1.32534 -1.4,3.54667 0,1.47466 0.80266,2.52 0.80267,1.02666 2.10933,1.82933 1.30667,0.784 2.87467,1.512 1.58666,0.70933 3.15466,1.54933 1.58667,0.82133 2.89333,1.94133 1.30667,1.12 2.10934,2.70666 0.80266,1.568 0.80266,3.808 0,2.42667 -1.04533,4.23733 -1.04533,1.792 -2.98667,2.8 -1.92266,0.98933 -4.55466,0.98933 z"
           style="font-family:'Bodoni Moda SC';-inkscape-font-specification:'Bodoni Moda SC'"
           id="path2225" />
      </g>
      <g
         aria-label="
M"
         transform="matrix(0.32644049,0,0,0.32644049,-23.729388,93.666448)"
         id="text2152"
         style="font-size:37.3333px;font-family:'Gold Lines Trial';-inkscape-font-specification:'Gold Lines Trial';text-align:center;white-space:pre;shape-inside:url(#rect2182);display:inline;fill-rule:evenodd;stroke-width:7.22268">
        <path
           d="m 405.67541,186.3582 -10.37866,-28.3733 h 3.56533 l 8.58666,23.18398 8.23199,-23.18398 h 0.0747 l -10.02399,28.3733 z m -10.34133,-28.3733 v 27.92531 h 2.89333 v 0.0747 h -5.67466 v -0.0747 h 2.70666 v -27.85065 h -2.87466 v -0.0747 z m 26.54398,0 v 0.0747 h -2.61333 v 27.85065 h 2.61333 v 0.0747 h -9.16533 v -0.0747 h 3.00533 V 157.9849 Z"
           style="font-family:'Bodoni Moda SC';-inkscape-font-specification:'Bodoni Moda SC'"
           id="path2228" />
      </g>
      <g
         aria-label="del"
         transform="matrix(0.07295556,0,0,0.07295556,76.691495,145.45819)"
         id="text2158"
         style="font-size:37.3333px;font-family:'Gold Lines Trial';-inkscape-font-specification:'Gold Lines Trial';text-align:center;white-space:pre;shape-inside:url(#rect2184);display:inline;fill-rule:evenodd;stroke-width:7.22268">
        <path
           d="m 377.89011,139.31825 v -0.0747 h 9.51999 q 1.94134,0 3.17334,-1.21333 1.25066,-1.232 1.84799,-3.36 0.59734,-2.14667 0.59734,-4.872 0,-2.65066 -0.59734,-4.77866 -0.59733,-2.14666 -1.84799,-3.39733 -1.232,-1.26933 -3.17334,-1.26933 h -9.51999 v -0.0747 h 9.51999 q 2.94934,0 5.17067,1.04533 2.22133,1.02667 3.47199,3.136 1.25067,2.10933 1.25067,5.33866 0,3.32267 -1.4,5.432 -1.4,2.09066 -3.65866,3.09866 -2.25867,0.98934 -4.83467,0.98934 z m 3.00533,0 v -19.03999 h 3.54667 v 19.03999 z"
           style="font-family:'Bodoni Moda SC';-inkscape-font-specification:'Bodoni Moda SC'"
           id="path2231" />
        <path
           d="m 412.14343,132.28092 q 0,-0.97067 -0.65333,-1.66133 -0.65334,-0.69067 -1.568,-1.064 -0.91467,-0.37334 -1.69867,-0.37334 h -2.05333 v -0.0747 h 2.05333 q 0.784,0 1.69867,-0.336 0.91466,-0.336 1.568,-0.98933 0.65333,-0.672 0.65333,-1.64267 h 0.0747 v 6.14133 z m 5.20799,0.504 h 0.0747 v 6.53333 h -16.48265 v -0.0747 h 2.44533 V 120.3529 h -2.44533 v -0.0747 h 16.31465 v 5.78666 h -0.0747 q 0,-1.99733 -0.83999,-3.24799 -0.82134,-1.26934 -2.072,-1.86667 -1.232,-0.59733 -2.48267,-0.59733 h -4.85333 v 18.89065 h 4.27467 q 1.62399,0 3.02399,-0.616 1.4,-0.616 2.25867,-2.03467 0.85866,-1.41866 0.85866,-3.80799 z"
           style="font-family:'Bodoni Moda SC';-inkscape-font-specification:'Bodoni Moda SC'"
           id="path2233" />
        <path
           d="m 421.06607,139.31825 v -0.0747 h 2.44533 V 120.3529 h -2.44533 v -0.0747 h 8.41866 v 0.0747 h -2.42667 v 18.89065 h 2.98667 q 2.20266,0 3.64,-0.48533 1.45599,-0.504 2.27733,-1.38134 0.84,-0.896 1.176,-2.05333 0.35466,-1.176 0.35466,-2.53866 h 0.0747 v 6.53333 z"
           style="font-family:'Bodoni Moda SC';-inkscape-font-specification:'Bodoni Moda SC'"
           id="path2235" />
      </g>
      <path
         id="circle2160"
         style="fill:none;fill-rule:evenodd;stroke:#000000;stroke-width:1.235"
         d="m 122.36469,154.92769 a 12.798997,12.798997 0 0 1 -12.79899,12.799 12.798997,12.798997 0 0 1 -12.799,-12.799 12.798997,12.798997 0 0 1 12.799,-12.799 12.798997,12.798997 0 0 1 12.79899,12.799 z" />
      <path
         id="circle2162"
         style="fill:none;fill-rule:evenodd;stroke:#000000;stroke-width:0.107"
         d="M 121.03955,154.92769 A 11.473854,11.473854 0 0 1 109.5657,166.40154 11.473854,11.473854 0 0 1 98.091843,154.92769 11.473854,11.473854 0 0 1 109.5657,143.45383 11.473854,11.473854 0 0 1 121.03955,154.92769 Z" />
    </g>
    <path
       style="fill:none;fill-rule:evenodd;stroke:#000000;stroke-width:1.25;stroke-dasharray:none"
       d="m 48.190695,247.01779 h 48.137532 v 0"
       id="path2166" />
    <path
       style="fill:none;fill-rule:evenodd;stroke:#000000;stroke-width:0.107;stroke-dasharray:none"
       d="m 48.190695,248.21783 h 48.137532 v 0"
       id="path2168" />
    <path
       style="fill:none;fill-rule:evenodd;stroke:#000000;stroke-width:1.25;stroke-dasharray:none"
       d="m 122.8032,247.01779 h 48.13753 v 0"
       id="path2170" />
    <path
       style="fill:none;fill-rule:evenodd;stroke:#000000;stroke-width:0.107;stroke-dasharray:none"
       d="m 122.8032,248.21783 h 48.13753 v 0"
       id="path2172" />
    <path
       style="fill:none;fill-rule:evenodd;stroke:#000000;stroke-width:1.25;stroke-dasharray:none"
       d="M 48.190695,263.26665 H 170.94073 v 0"
       id="path2174" />
    <path
       style="fill:none;fill-rule:evenodd;stroke:#000000;stroke-width:0.107;stroke-dasharray:none"
       d="M 48.190695,262.06661 H 170.94073 v 0"
       id="path2176" />
  </g>
</svg>
